<mxfile host="Electron" modified="2024-04-23T20:19:10.174Z" agent="Mozilla/5.0 (X11; Linux x86_64) AppleWebKit/537.36 (KHTML, like Gecko) draw.io/24.2.5 Chrome/120.0.6099.109 Electron/28.1.0 Safari/537.36" etag="tiRtsrbpZx6zGTnbB1v-" version="24.2.5" type="device">
  <diagram name="Pagina-1" id="VIyYVmzVjMcwkLGq1V15">
    <mxGraphModel dx="1050" dy="1788" grid="1" gridSize="5" guides="1" tooltips="1" connect="1" arrows="1" fold="1" page="1" pageScale="1" pageWidth="827" pageHeight="1169" math="0" shadow="0">
      <root>
        <mxCell id="0" />
        <mxCell id="1" parent="0" />
        <mxCell id="3iR2tvqCmlfJgyPU4IL4-19" value="" style="ellipse;whiteSpace=wrap;html=1;aspect=fixed;fillColor=#000000;fontColor=#333333;strokeColor=#666666;" parent="1" vertex="1">
          <mxGeometry x="249" y="355" width="25" height="25" as="geometry" />
        </mxCell>
        <mxCell id="3iR2tvqCmlfJgyPU4IL4-18" value="" style="whiteSpace=wrap;html=1;aspect=fixed;" parent="1" vertex="1">
          <mxGeometry x="264" y="-10" width="170" height="170" as="geometry" />
        </mxCell>
        <mxCell id="3iR2tvqCmlfJgyPU4IL4-17" value="" style="whiteSpace=wrap;html=1;aspect=fixed;" parent="1" vertex="1">
          <mxGeometry x="265" y="660" width="170" height="170" as="geometry" />
        </mxCell>
        <mxCell id="BX5PvhPX-RmELK_GvS-_-17" value="&lt;span style=&quot;font-size: 16px;&quot;&gt;PS1&lt;/span&gt;" style="text;html=1;align=center;verticalAlign=middle;whiteSpace=wrap;rounded=0;fontSize=16;" parent="1" vertex="1">
          <mxGeometry x="231.5" y="320" width="60" height="30" as="geometry" />
        </mxCell>
        <mxCell id="3iR2tvqCmlfJgyPU4IL4-1" value="" style="rounded=0;whiteSpace=wrap;html=1;" parent="1" vertex="1">
          <mxGeometry x="40" y="380" width="240" height="60" as="geometry" />
        </mxCell>
        <mxCell id="3iR2tvqCmlfJgyPU4IL4-3" value="" style="rounded=0;whiteSpace=wrap;html=1;rotation=90;" parent="1" vertex="1">
          <mxGeometry x="230" y="195" width="240" height="60" as="geometry" />
        </mxCell>
        <mxCell id="3iR2tvqCmlfJgyPU4IL4-4" value="" style="rounded=0;whiteSpace=wrap;html=1;rotation=-90;" parent="1" vertex="1">
          <mxGeometry x="230" y="565" width="240" height="60" as="geometry" />
        </mxCell>
        <mxCell id="3iR2tvqCmlfJgyPU4IL4-5" value="" style="shape=image;verticalLabelPosition=bottom;labelBackgroundColor=default;verticalAlign=top;aspect=fixed;imageAspect=0;image=data:image/svg+xml,PHN2ZyB4bWxucz0iaHR0cDovL3d3dy53My5vcmcvMjAwMC9zdmciIGhlaWdodD0iMjU2IiB3aWR0aD0iMjU2IiB2ZXJzaW9uPSIxLjEiIHZpZXdCb3g9IjAgMCAyNTUuOTk5OTkgMjU2IiBpZD0ic3ZnMiI+JiN4YTsgIDx0aXRsZSBpZD0idGl0bGU0NTc3Ij5IYW08L3RpdGxlPiYjeGE7ICA8ZGVmcyBpZD0iZGVmczYiPiYjeGE7ICAgIDxsaW5lYXJHcmFkaWVudCB4MT0iMTA4MS42IiB5MT0iMzM0Ljg5MDAxIiB4Mj0iMTAwNy4yIiBncmFkaWVudFVuaXRzPSJ1c2VyU3BhY2VPblVzZSIgeTI9IjI2Ni43Mzk5OSIgaWQ9ImxpbmVhckdyYWRpZW50NDE2NSI+JiN4YTsgICAgICA8c3RvcCBvZmZzZXQ9IjAiIHN0eWxlPSJzdG9wLWNvbG9yOiM5ODcyNmQiIGlkPSJzdG9wMzg3MiIvPiYjeGE7ICAgICAgPHN0b3Agb2Zmc2V0PSIxIiBzdHlsZT0ic3RvcC1jb2xvcjojZDVhMjhjIiBpZD0ic3RvcDM4NzQiLz4mI3hhOyAgICA8L2xpbmVhckdyYWRpZW50PiYjeGE7ICAgIDxsaW5lYXJHcmFkaWVudCB4MT0iMzg2LjcwOTk5IiB5MT0iNjA0LjUiIGdyYWRpZW50VHJhbnNmb3JtPSJ0cmFuc2xhdGUoMzkxLjM1LDE0LjYwMykiIHgyPSIyOTEuODI5OTkiIGdyYWRpZW50VW5pdHM9InVzZXJTcGFjZU9uVXNlIiB5Mj0iNDc4LjkyMDAxIiBpZD0ibGluZWFyR3JhZGllbnQ0MTY3Ij4mI3hhOyAgICAgIDxzdG9wIG9mZnNldD0iMCIgc3R5bGU9InN0b3AtY29sb3I6I2NjNDkzMCIgaWQ9InN0b3AzODExIi8+JiN4YTsgICAgICA8c3RvcCBvZmZzZXQ9IjEiIHN0eWxlPSJzdG9wLWNvbG9yOiNmNTczMGIiIGlkPSJzdG9wMzgxMyIvPiYjeGE7ICAgIDwvbGluZWFyR3JhZGllbnQ+JiN4YTsgIDwvZGVmcz4mI3hhOyAgJiN4YTsgIDxnIHRyYW5zZm9ybT0ibWF0cml4KDAuMjM3MTY1ODQsMC4wNTEyMjIzNiwtMC4wNTEyMjIzNiwwLjIzNzE2NTg0LC01Ny43NTA0NjcsLTMxLjc4MjkyMykiIGlkPSJnNDExMCI+JiN4YTsgICAgPGcgdHJhbnNmb3JtPSJ0cmFuc2xhdGUoNDAwKSIgaWQ9ImczNzY4Ij4mI3hhOyAgICAgIDxwYXRoIGQ9Im0gNzczLjA5LDYuMTg3NSBjIC0yNC41MTMsMC43OTU2NiAtNjEuNTExLDMyLjIwMiAtNjIuNDM4LDc0LjYyNSBsIDcuODEyNSwxOC41IGMgNi40MjksNy40NjM2IDExLjIzNCwxNC45MTEgMzAuMTU2LDIyLjM3NSBsIC0zNi45NjksNDIuODQ0IGMgLTQuODIwOCw4LjY5MzIgLTYuODY4OCwyNC43OCAtNy44MTI1LDQzLjgxMiAtMy41NjI1LC0xOC4zMzMgLTcuMTI1LC0yNC40OTkgLTEwLjY4OCwtMTkuNDY5IC0yMDAuNzQsMTk4LjcxIC00MDUuODcsNDQ3LjIzIC01NDYuMDIsNTc2IC00Ljg2MTcsMS44MjYyIC0xMS45MzUsMTAuMjc3IC0xNS4xMDgsMTMuNzE2IC0xNS41NzMsMTYuODc3IC0xLjg3MjUsNDcgMzAuNTk0LDY3LjI4MSAzMi40NjY1LDIwLjI4MSA3MS4zOTYsMjMuMDMzIDg2Ljk2OSw2LjE1NjIgMC45MzEzNSwtMS4wMDkzIDEuNzc1OCwtMi4wNTcxIDIuNSwtMy4xNTYyIGwgMC4wNjI1LDAuMDMxMiBjIDEyNC40NiwtMTc2LjM2IDE4Ni4wNiwtMjY1LjY5IDM1NS4zMywtMzk3LjU5IDkyLjYzLC0xNDIuNDEgMTc3LjUxLC0yNjAuMTkgMjI1Ljg2LC0zMTAuMTYgMzcuNzIsMTYuNzkgNzguNzcsMi4wMyA4OC41OCwtNy43NyAzMS41NSwtMzcuMDIzIDIxLjUsLTkxLjMxMyAtNDguNjYsLTExMCAtMzIuNDcsLTEuNjIgLTE0LjE1LDY3Ljk5NyAtNTUuNSw1OS4zNyAtMjguODQsLTIzLjUyNiAtMTAuNCwtNzIuMTcyIC0zNS4wMywtNzQuOTY5IC0yLjg1MDUsLTEuMTkxOCAtNi4xMjMyLC0xLjcwNzQgLTkuNjI1LC0xLjU5MzggeiIgc3R5bGU9ImZpbGw6I2ZlZjFlMztzdHJva2U6IzVkMmUzMTtzdHJva2Utd2lkdGg6NC4xOTk5OTk4MSIgaWQ9InBhdGgyOTg3Ii8+JiN4YTsgICAgICA8cGF0aCBkPSJtIDEzNS4zMiw3NzUuODkgYyAxNS4zMjgsNC40NjY5IDI4Ljc3NiwxMy43MzQgMzguOTQxLDIzLjM2NCBsIC0xMS42ODIsLTI4LjIzMiBjIDg2LjkwMiw4Ljg5MTcgMTA0LjI2LDYzLjAzMiA4Ny42MTcsODEuNzc1IiBzdHlsZT0iZmlsbDpub25lO3N0cm9rZTojMDAwMDAwO3N0cm9rZS13aWR0aDo0LjQwMDAwMDE7c3Ryb2tlLWxpbmVjYXA6cm91bmQ7c3Ryb2tlLWxpbmVqb2luOnJvdW5kIiBpZD0icGF0aDM3NjIiLz4mI3hhOyAgICAgIDxwYXRoIGQ9Im0gMTYwLjYzLDc2OS4wOCAzNC4wNzMsLTQyLjgzNSBjIDczLjUzOSwtMTAuMjkyIDEwNS45Niw0OS45MyAxMDAuMjcsNTkuMzg1IiBzdHlsZT0iZmlsbDpub25lO3N0cm9rZTojMDAwMDAwO3N0cm9rZS13aWR0aDozLjIwMDAwMDA1O3N0cm9rZS1saW5lY2FwOnJvdW5kO3N0cm9rZS1saW5lam9pbjpyb3VuZCIgaWQ9InBhdGgzNzY0Ii8+JiN4YTsgICAgPC9nPiYjeGE7ICAgIDxwYXRoIGQ9Im0gNTM4LjMzLDgwMS42NyBjIDIuMDg3NywxLjM4OTEgNC4yMTU3LDIuNzAyOCA2LjM5LDMuOTUyNiAwLjI4Nzg1LDAuMTMwNjUgMC41ODQyNCwwLjI0MzkyIDAuODYzNTUsMC4zOTE5NSAxLjEyNzQsMC41OTc1IDAuNDQ0NDEsMC4zNzQ5MiAxLjUyNTIsMC44NzQzNSAwLjgxOTE1LDAuMzc4NTMgMS41MjE3LDAuNTE5MjIgMi4zMTQyLDAuOTkwOTcgMS43MjMsMS4wODMzIDMuNjUxMiwxLjcyODYgNS40NjQxLDIuNjE0NiAxLjIzOCwwLjg1OTg3IDIuNDEyOSwxLjg3NjggMy43OTY2LDIuNDkyMiAxLjM4MDMsMC41OTU1MiAyLjcwODIsMS4xMDg2IDQuMjExOSwxLjMyNDQgMS43MDE5LDAuMDA4IDMuMjkwMywwLjYwMjYxIDQuOTU1NSwwLjg3NjQ5IDEuNzIzNiwwLjEzNDc0IDMuNTI3MiwwLjQ4ODI5IDUuMjI2MiwwLjA3NTggMC44MDExNSwtMC4xNjI1NSAxLjUwNTgsLTAuMzE3NTQgMi4yMjE3LC0wLjcwOTg2IGwgLTExLjQwNCw4LjkxNDYgYyAtMC43OTk0MiwwLjE3MjY3IC0xLjU5ODgsMC4zNTY1MyAtMi40MTUyLDAuNDMxNDMgLTEuODM1MywwLjAxNjQgLTMuNjc2OSwtMC4wOTQzIC01LjQ4NCwtMC40Mjk4NyAtMS42NDczLC0wLjM0NTU5IC0zLjI3NjksLTAuNzI1MjQgLTQuOTU3OCwtMC44Nzg3NCAtMS41NjE5LC0wLjM2MzIzIC0zLjAwOTksLTAuOTg5ODYgLTQuNDYxNywtMS42NjMxIC0xLjI4ODQsLTAuNzUwMjUgLTIuNDY0OCwtMS42NzM1IC0zLjczNTYsLTIuNDUxNyAtMS44NzgzLC0wLjgwNzUxIC0zLjY3ODEsLTEuNzM1NyAtNS40OTYyLC0yLjY2ODYgLTEuNjMwMiwtMC42ODcyNCAtMy4yMTY3LC0xLjQxOTEgLTQuNzMwNCwtMi4zNDY3IC0yLjE1NTcsLTEuMzI5NyAtNC4yOTcyLC0yLjY4MDQgLTYuNDYyMSwtMy45OTMxIGwgMTIuMTc4LC03Ljc5NzcgeiIgc3R5bGU9Im9wYWNpdHk6MC42MTMzODAwNDtmaWxsOiM5MTgwNzA7c3Ryb2tlOiM1NjNjMTU7c3Ryb2tlLXdpZHRoOjIuMjAwMDAwMDU7c3Ryb2tlLWxpbmVjYXA6cm91bmQ7c3Ryb2tlLWxpbmVqb2luOnJvdW5kIiBpZD0icGF0aDM5NzQiLz4mI3hhOyAgICA8cGF0aCBkPSJtIDYxOS44Niw4NDguMTYgYyAyLjY2NDgsLTAuNTIyNjQgNS4xNzgsLTEuNTAwMSA3Ljg0MzgsLTIuMDIxNCAxLjgxODYsLTAuNTcxNjQgMy41NTUsLTEuMzcxNiA1LjIzOTIsLTIuMjYyIDMuMzQ5LC0xLjM2MjUgLTEuNzQ4MiwwLjY4MTQ1IDEuNzEyLC0wLjYwNDgyIDAuMjk0MzgsLTAuMTA5NDMgMS4xMzM2LC0wLjUzODE1IDAuODYxNjgsLTAuMzgxMDcgLTMuODU3NiwyLjIyODIgLTcuNzQ2OSw0LjQwMTEgLTExLjYyMyw2LjU5NjkgLTAuMjU4NzEsMC4xNDY1NiAwLjUxMjYyLC0wLjMwMTQ5IDAuNzcwOCwtMC40NDg5NyA0LjM4NzcsLTIuNTA2NSA4Ljc3OCwtNS4wMDg3IDEzLjE2NywtNy41MTMgMS42MjQsLTEuMDUxOCAzLjUzNzYsLTEuNTQxIDUuMjAxOSwtMi40ODcgNC44NTk2LC0yLjIzOTYgMS40Njk2LC0wLjcwNTUgLTEwLjkwOSw2LjMxODIgLTAuMjI1NTMsMC4xMjc5NyAwLjQzNzk5LC0wLjI3Nzc2IDAuNjU3NDgsLTAuNDE1ODQgMC42MjMzNiwtMC4zOTIxMyAxLjE3NzEsLTAuODQyMjcgMS43NjUxLC0xLjI4NTEgMS40OTc2LC0wLjk1NTc1IDIuOTcyNywtMS45NDk2IDQuNDY0MiwtMi45MTczIDEuNDgxMywtMC44NTkyMiAyLjgzNTEsLTEuODk1OCA0LjIxMTgsLTIuOTA1MyAxLjMwMzMsLTAuNjQ3ODIgMi4yOTY2LC0xLjU3NjEgMy4yNjUzLC0yLjYyODQgMS4wMjksLTAuOTEyIDIuMTE0NSwtMS43NjEyIDMuMDkxOCwtMi43Mjk2IDAuOTg4MDksLTAuOTE5NDcgMS45OTY4LC0xLjgzMDYgMi45MDY1LC0yLjgyOTggMC43NjU2MiwtMS4xNzU0IDEuNzAyMywtMi4yMjI4IDIuNDA3MywtMy40MzYgMC44NTc5NywtMS4xNzIgMS4zMTI4LC0yLjU2NjIgMS44NTI5LC0zLjkwMDggMC42NTY1OSwtMS4zNTQ3IDEuMTA1NCwtMi43OTA3IDEuNjc4MSwtNC4xNzkzIDAuNDc0NjQsLTEuNDQ1NSAxLjAzNiwtMi44NjY4IDEuNDczNCwtNC4zMjQ5IDAuMjQ1NzgsLTAuOTk3MzggMC42NDcwNywtMS45MzcxIDEuMTU4NCwtMi44MjM2IGwgMTMuMjMsLTUuODkwMyBjIC0wLjQ3NTY0LDAuODIyNSAtMS4wMzcsMS41NDc4IC0xLjM0MDIsMi40NjU5IC0wLjMyNjUsMS41NjIzIC0xLjAxNjksMi45NTc5IC0xLjM3NzgsNC41MDYyIC0wLjE4MTA2LDAuNDQ2MzkgLTAuNDM5MDcsMC44NjA1IC0wLjYwMTY2LDEuMzE0IC0wLjMzOTQ1LDAuOTQ2NyAtMC40MjYzMywxLjk5MTUgLTEuMTExLDIuNzk4MiAtMC40Mzc3MywxLjQ1NyAtMS4wNzQ1LDIuODU3NSAtMS42ODcyLDQuMjQxNCAtMC44NzE4LDEuMDg4MiAtMS40MDU5LDIuNDI0MSAtMi40MTExLDMuNDI3OCAtMC42NjA4MiwxLjMwOTcgLTEuODE0MywyLjA5NzcgLTIuNzU0LDMuMTg2NCAtMS4xMDYyLDAuODIyIC0yLjAwNTYsMS44OTUyIC0zLjA4MTgsMi43NTUzIC0wLjczNzUsMC40NDg1NSAtMC45MjgwMywwLjgzODc4IC0xLjQ0NiwxLjQ5NzcgLTAuNTM3NCwwLjY4MzY2IC0wLjQ2NzE2LDAuNDAyNjYgLTEuMTU4NSwwLjg3MzIxIC0wLjIwOTA0LDAuMTQyMjggLTAuMzkyOTEsMC4zMTg0IC0wLjU4OTM2LDAuNDc3NTkgLTEuNTc0NywwLjcyMzMzIC0yLjY4NTksMi4xMTI1IC00LjI3MDIsMi44Mzg3IC0xLjQ2MjEsMS4wMTMgLTMuMDA2MSwxLjg3OCAtNC4zOTk5LDIuOTc2NSAtMC43NzE3OSwwLjM0NzY2IC0xLjEzNjksMC43NTQ0IC0xLjc4MjMsMS4yNjUgLTQuMzQ0NSwzLjQzNzIgLTkuNTI4NSw1Ljg4NzggLTE0LjUzNCw4LjMzNzQgLTEuNzgsMC43MzM5OSAtMy40OTE2LDEuNjA5MSAtNS4xOTIyLDIuNTEwNyAzLjg2NjksLTIuMjM4OCA3LjczMTQsLTQuNDgxOCAxMS42MDEsLTYuNzE2NCAwLjI1OTE1LC0wLjE0OTY2IC0wLjUxMDE1LDAuMzEzMiAtMC43NzAwNywwLjQ2MTUzIC00LjQwMDQsMi41MTEzIC04Ljc4MzUsNS4wNTM0IC0xMy4yMTEsNy41MTc0IC0wLjc4ODAzLDAuNDM4NTggLTEuNzcxMSwwLjU0NzAzIC0yLjUyOTQsMS4wNjQ0IC0xLjc1NzEsMC43Njc0OCAtMy40NzA1LDEuNjMzIC01LjM4NzcsMS45NTAzIC0yLjYzNjUsMC42MzY4NSAtNS4yMTI0LDEuNTA1NiAtNy44NTAzLDIuMTQxNiBsIDExLjQ1NywtOC44MjEzIHoiIHN0eWxlPSJvcGFjaXR5OjAuNjEzMzgwMDQ7ZmlsbDojOTE4MDcwO3N0cm9rZTojNTYzYzE1O3N0cm9rZS13aWR0aDoyLjIwMDAwMDA1O3N0cm9rZS1saW5lY2FwOnJvdW5kO3N0cm9rZS1saW5lam9pbjpyb3VuZCIgaWQ9InBhdGgzOTcyIi8+JiN4YTsgICAgPHBhdGggdHJhbnNmb3JtPSJtYXRyaXgoMS4xOTYsMC40ODk3NSwtMC40ODk3NSwxLjE5Niw5ODMuNDksLTIxOS45KSIgZD0iTSA1My41NDM0MzIsODU5LjYxNTQ4IEEgMjguMjMxOTkxLDEzLjYyOTIzNyAwIDAgMSAyNS40NTIxNzksODczLjI0NDU1IDI4LjIzMTk5MSwxMy42MjkyMzcgMCAwIDEgLTIuOTE5MTQ2Miw4NTkuNzUxMzYgMjguMjMxOTkxLDEzLjYyOTIzNyAwIDAgMSAyNC44ODkyNDMsODQ1Ljk4Nzc3IDI4LjIzMTk5MSwxMy42MjkyMzcgMCAwIDEgNTMuNTM3ODIsODU5LjM0MzczIiBzdHlsZT0iZmlsbDojYjc4ZDc3IiBpZD0icGF0aDM3NjYtMSIvPiYjeGE7ICAgIDxwYXRoIHRyYW5zZm9ybT0ibWF0cml4KDAuOTI1NDIsMC4zNzg5NSwtMC4zNzg5NSwwLjkyNTQyLDg5NS4yLDE1LjU4MSkiIGQ9Ik0gNTMuNTQzNDMyLDg1OS42MTU0OCBBIDI4LjIzMTk5MSwxMy42MjkyMzcgMCAwIDEgMjUuNDUyMTc5LDg3My4yNDQ1NSAyOC4yMzE5OTEsMTMuNjI5MjM3IDAgMCAxIC0yLjkxOTE0NjIsODU5Ljc1MTM2IDI4LjIzMTk5MSwxMy42MjkyMzcgMCAwIDEgMjQuODg5MjQzLDg0NS45ODc3NyAyOC4yMzE5OTEsMTMuNjI5MjM3IDAgMCAxIDUzLjUzNzgyLDg1OS4zNDM3MyIgc3R5bGU9ImZpbGw6I2ZlZjFlMztzdHJva2U6IzAwMDAwMDtzdHJva2Utd2lkdGg6My4yMDAwMDAwNTtzdHJva2UtbGluZWNhcDpyb3VuZDtzdHJva2UtbGluZWpvaW46cm91bmQiIGlkPSJwYXRoMzc2NiIvPiYjeGE7ICAgIDxwYXRoIHN0eWxlPSJmaWxsOiM2ZDRkMWE7c3Ryb2tlOiM1NjNjMTU7c3Ryb2tlLXdpZHRoOjIuMTI1NDAwMDciIGQ9Im0gMTE5Ny43LDE2Mi43IC0yMTMuNTEsMjU0IDIxOC45MSwtMjcyLjE0IGMgMS4xNDQzLDMuNTY5MiAxMS4zMzQsMC40NDU2IC01LjQ1MDIsMTguMTMzIHoiIGlkPSJwYXRoMzg3OCIvPiYjeGE7ICAgIDxwYXRoIHN0eWxlPSJvcGFjaXR5OjAuODQzODY5OTg7ZmlsbDp1cmwoI2xpbmVhckdyYWRpZW50NDE2NSkiIGQ9Im0gMTMzNS43LDc0Ljk2MSBjIC0yMy4yMzksMzMuMjY4IC0xMjMuNDQsMjUuNDM3IC0xMzkuMjEsNDcuNzAyIC0zNy4zNTMsMjIuMTAzIC0yNTIuNSw0MDEuNTQgLTMzNi44NCwzNzQuOCBsIDE5LjQ3LDYwLjM1OCAxMjYuNTYsLTEwNS4xNCBjIDgxLjYwMSwtMTIzLjY2IDE1OC4xOSwtMjMxLjMgMjI2LjgzLC0zMTMuNDcgOTMuMDI2LDMxLjkyMyAxMTMuNjYsLTM1LjM1MSAxMDMuMTksLTY0LjI1MiB6IiBpZD0icGF0aDM4NjAiLz4mI3hhOyAgICA8cGF0aCBkPSJtIDEyNjUuNSwxMjAuMiBjIDIuMTY2MiwxLjQxNTYgNC42NDc4LDIuMjA2MiA3LjAzMzksMy4xNjE3IDAuNzg4OCwwLjQ5MTU0IDEuNjA5MiwwLjkwNjc1IDIuNDYyOCwxLjI2OTIgbCAtMTIuMDU2LDcuOTgxOCBjIC0wLjgwMywtMC40MDM2IC0xLjU4NDcsLTAuODQzMTUgLTIuMzkwMSwtMS4yNDIgLTIuNDQ4NiwtMS4wNDExIC00Ljk3NjQsLTEuOTI2MyAtNy4yMjkyLC0zLjM3MyBsIDEyLjE3OCwtNy43OTc3IHoiIHN0eWxlPSJvcGFjaXR5OjAuNjI4MjU7ZmlsbDojOTE4MDcwO3N0cm9rZTojNTYzYzE1O3N0cm9rZS13aWR0aDowLjg5OTk5OTk4O3N0cm9rZS1saW5lY2FwOnJvdW5kO3N0cm9rZS1saW5lam9pbjpyb3VuZCIgaWQ9InBhdGgzOTU4Ii8+JiN4YTsgICAgPHBhdGggc3R5bGU9ImZpbGw6IzZkNGQxYTtzdHJva2U6IzU2M2MxNTtzdHJva2Utd2lkdGg6MS44NjAyMDAwNSIgZD0iTSAxMDcyLjUsMjM3LjU2IDg5MS40Nyw0NjYuMzIgMTA4Ny4zLDIyOS4zOSBjIC01LjM1NDgsLTQuMzYxIC0xMC4zNzgsLTMuMjAxMSAtMTQuNzksOC4xNjgxIHoiIGlkPSJwYXRoMzg3OC0yIi8+JiN4YTsgICAgPHBhdGggc3R5bGU9ImZpbGw6IzZkNGQxYTtzdHJva2U6IzU2M2MxNTtzdHJva2Utd2lkdGg6MS44NjAyMDAwNSIgZD0iTSA2MzguMTIsNzY5LjQ1IDgyNy42Nyw1NDcuNzMgNjMyLjk2LDc4NS41MyBjIC0xLjg2MTQsLTUuMTAzMiAzLjg0MDYsLTExLjM2MyA1LjE2MjIsLTE2LjA4OCB6IiBpZD0icGF0aDM4NzgtMi03Ii8+JiN4YTsgICAgPHBhdGggc3R5bGU9ImZpbGw6IzZkNGQxYTtzdHJva2U6IzU2M2MxNTtzdHJva2Utd2lkdGg6MS4wNjIxOTk5NSIgZD0ibSAxMTg5LjksMTA1LjM2IC05Ni4xODUsMTM4LjQgMTA0LjE3LC0xNDMuNDMgYyAtMi45Nzg0LC0yLjU0MjEgLTUuNzEsLTEuNzk1NCAtNy45ODUyLDUuMDMyOCB6IiBpZD0icGF0aDM4NzgtMi03MSIvPiYjeGE7ICAgIDxwYXRoIGQ9Im0gMTE2Ni40LDgzLjI2NiBjIC0wLjczNzYsMi43MjIgNC42Nzc5LC0yLjEzODUgMy44ODgsMC41Njg4NCAtMC42MTc2LDEuODEzMSAtMS4xNTYzLDMuNjUyNCAtMS42OTAzLDUuNDkxNyAtMC41MTkzLDEuNjgyOSAtMS4yMzQzLDMuMjk3NSAtMS44MzMsNC45NTI4IC0wLjQ2NTgsMS42MDU2IC0wLjk1MDYsMy4yMTg4IC0xLjY0MjYsNC43NDM0IC0wLjU0MjEsMS40ODQgLTEuMzk5NCwyLjgxMzEgLTIuMDkyMiw0LjIyNDUgLTAuNTQ4OCwxLjUxOSAtMS40NTQ5LDIuNzE2NSAtMi41NjgzLDMuODQ3NSAtMS4wNzcyLDEuMjMzNCAtMS43MDE0LDIuNzU0NSAtMi40NzA0LDQuMTgxNCAtMC45ODY3LDEuMjAwMyAtMS4zMDM4LDIuNjg5IC0xLjgyMSw0LjEwODggLTAuMDgyLDAuMjM3OTkgLTAuMTYzNywwLjQ3NTk5IC0wLjI0NTUsMC43MTM5OCAtOC43MjcyLDkuNDk2MiAtOS4zODI3LC0yLjU2MzQgLTcuMjc1LC00Ljg0MjYgMC41NDI5LC0wLjQ4MzM1IDAuNDc4LC0wLjY1NTgyIDAuODI5NiwtMS4yOTM5IDAuMTI3NSwtMC4yMzEzMiAwLjI3ODEsLTAuNDQ5MDcgMC40MTcyLC0wLjY3MzYxIDAuNTQ5LC0xLjUwMjYgMS40ODc3LC0yLjc3NjMgMi4wNTg3LC00LjI1MyAwLjY4NTMsLTEuNDkwNiAxLjM4NzUsLTIuOTkwOCAxLjczNywtNC42MDYxIDAuNDkwMSwtMS42NzQ0IDEuMTcxOCwtMy4yOTAyIDEuODcwMSwtNC44ODYxIDAuNDY3NSwtMS44ODgyIDEuMDc5MywtMy43NDEzIDEuNjgzMSwtNS41ODgyIDAuOTk1OCwtMi41ODM5IDEuNTk1NywtNS4zNTkgMi4zMjY2LC04LjAyMjcgeiIgc3R5bGU9Im9wYWNpdHk6MC42MjgyNTtmaWxsOiM5MTgwNzA7c3Ryb2tlOiM1NjNjMTU7c3Ryb2tlLXdpZHRoOjAuODk5OTk5OTg7c3Ryb2tlLWxpbmVjYXA6cm91bmQ7c3Ryb2tlLWxpbmVqb2luOnJvdW5kIiBpZD0icGF0aDM5MzYiLz4mI3hhOyAgICA8cGF0aCBkPSJtIDEyNzguMSw1My41MDcgYyAxLjIyODMsMi4wMDg3IDIuMTEwNiw0LjE3NjYgMi43OTYxLDYuNDIwNCBsIC0xMi42MjQsNi44OTA2IDguOTQ4OSwtMC42ODgzOCBjIC0wLjU4ODksLTIuMTIyMyAtMTAuMzE1LC0zLjQ5ODcgLTExLjU5OCwtNS4zMTE2IHoiIHN0eWxlPSJvcGFjaXR5OjAuNjI4MjU7ZmlsbDojOTE4MDcwO3N0cm9rZTojNTYzYzE1O3N0cm9rZS13aWR0aDowLjg5OTk5OTk4O3N0cm9rZS1saW5lY2FwOnJvdW5kO3N0cm9rZS1saW5lam9pbjpyb3VuZCIgaWQ9InBhdGgzOTM4Ii8+JiN4YTsgICAgPHBhdGggZD0ibSAxMTY0LjMsMzguOTgyIGMgMi40NjU2LDAuNzY4MTUgNC44NTg1LDEuNjg1MiA3LjQwMzEsMi4xNzk5IGwgLTExLjgzNSw4LjIxMTcgYyAtMi41MzgyLC0wLjYyNDcxIC0wLjgyNzEsLTcuMTE5IC0zLjM2ODIsLTcuNzI4MyB6IiBzdHlsZT0ib3BhY2l0eTowLjYyODI1O2ZpbGw6IzkxODA3MDtzdHJva2U6IzU2M2MxNTtzdHJva2Utd2lkdGg6MC44OTk5OTk5ODtzdHJva2UtbGluZWNhcDpyb3VuZDtzdHJva2UtbGluZWpvaW46cm91bmQiIGlkPSJwYXRoMzk0MCIvPiYjeGE7ICAgIDxwYXRoIGQ9Im0gMTIzMy40LDkzLjQ5OSBjIDEuMzI0OCwwLjQwODIyIDIuNjg3LDAuNjYzNjMgNC4wNDYzLDAuOTIyMzkgbCAtMTEuNzc0LDguMjA1NCBjIC0xLjQwNjcsLTAuMjkzMDMgLTIuODExNiwtMC41OTM0IC00LjIwMjEsLTAuOTU3NDQgbCAxMS45MywtOC4xNzAzIHoiIHN0eWxlPSJvcGFjaXR5OjAuNjEzMzgwMDQ7ZmlsbDojOTE4MDcwO3N0cm9rZTojNTYzYzE1O3N0cm9rZS13aWR0aDoyLjIwMDAwMDA1O3N0cm9rZS1saW5lY2FwOnJvdW5kO3N0cm9rZS1saW5lam9pbjpyb3VuZCIgaWQ9InBhdGgzOTQyIi8+JiN4YTsgICAgPHBhdGggZD0ibSAxMzExLjksNjguNzE5IGMgLTAuMDQ5LDEuOTUxNSAtMC4wMzEsMC45NDY4NCAtMC4wNDksMy4wMTQgbCAtOC42NDIxLDMuNzU0MyB2IDIuMDY1MSBjIDcuNTU0MiwtMS4zNTI3IC0wLjY4ODgsLTMuMTE4MyAtMC43Mzc0LC01LjAyOSBsIDkuNDI5LC0zLjgwNDYgeiIgc3R5bGU9Im9wYWNpdHk6MC42MjgyNTtmaWxsOiM5MTgwNzA7c3Ryb2tlOiM1NjNjMTU7c3Ryb2tlLXdpZHRoOjAuODk5OTk5OTg7c3Ryb2tlLWxpbmVjYXA6cm91bmQ7c3Ryb2tlLWxpbmVqb2luOnJvdW5kIiBpZD0icGF0aDM5NDQiLz4mI3hhOyAgICA8cGF0aCBkPSJtIDExNDIuNyw1MC44MiBjIDAuNzMzOCwxLjQ3ODUgMC4zMTU3LDAuNzUxNDYgMS4yNjQyLDIuMTc1NSBsIC00LjgyNCw3LjI2ODIgYyA5LjI2NDQsLTAuMTk2NTUgNC4yNDQ1LC03LjY2NjcgLTEuNDY5NSwtMi4zNjYzIHoiIHN0eWxlPSJvcGFjaXR5OjAuNjI4MjU7ZmlsbDojOTE4MDcwO3N0cm9rZTojNTYzYzE1O3N0cm9rZS13aWR0aDowLjg5OTk5OTk4O3N0cm9rZS1saW5lY2FwOnJvdW5kO3N0cm9rZS1saW5lam9pbjpyb3VuZCIgaWQ9InBhdGgzOTQ2Ii8+JiN4YTsgICAgPHBhdGggZD0ibSAxMTgwLjgsMTMuNTkzIGMgMC44MzYxLDEuMiAxLjU3NjksMi40NTY1IDIuMjk3NiwzLjcyNzQgbCAtNi40MzA2LDcuMTY0NiBjIC0wLjcwNiwtMS4yNDMgLTEuNDI3NSwtMi40NzYgLTIuMzQzNywtMy41ODExIHoiIHN0eWxlPSJvcGFjaXR5OjAuNjI4MjU7ZmlsbDojOTE4MDcwO3N0cm9rZTojNTYzYzE1O3N0cm9rZS13aWR0aDowLjg5OTk5OTk4O3N0cm9rZS1saW5lY2FwOnJvdW5kO3N0cm9rZS1saW5lam9pbjpyb3VuZCIgaWQ9InBhdGgzOTQ4Ii8+JiN4YTsgICAgPHBhdGggZD0ibSAxMTk1LjIsNjguNjQgYyAwLjA0MywwLjQ3NTgzIDAuMDg2LDAuOTUxNjUgMC4xMjg4LDEuNDI3NSBsIC0xMi43MjMsNi42NjY5IGMgLTAuMDY0LC0wLjQ1OTExIC0wLjEyODUsLTAuOTE4MjIgLTAuMTkyNywtMS4zNzczIGwgMTIuNzg3LC02LjcxNzEgeiIgc3R5bGU9Im9wYWNpdHk6MC42MjgyNTtmaWxsOiM5MTgwNzA7c3Ryb2tlOiM1NjNjMTU7c3Ryb2tlLXdpZHRoOjAuODk5OTk5OTg7c3Ryb2tlLWxpbmVjYXA6cm91bmQ7c3Ryb2tlLWxpbmVqb2luOnJvdW5kIiBpZD0icGF0aDM5NTAiLz4mI3hhOyAgICA8cGF0aCBkPSJtIDEyNzguMSwzMi4zMjMgYyAwLjYyNzYsMS41ODczIC0zLjExMDEsMTEuMDU0IC0xLjgyMDEsMTIuMTI1IGwgLTcuNDA0MSwtMC42NjU5OSA3LjU3MjIsMi43NTM1IGMgLTEuMzY5NywtMS4yNzU4IC0xMC4xMzQsLTUuNDI5MyAtMTAuOTUsLTcuMTM1NCB6IiBzdHlsZT0ib3BhY2l0eTowLjYyODI1O2ZpbGw6IzkxODA3MDtzdHJva2U6IzU2M2MxNTtzdHJva2Utd2lkdGg6MC44OTk5OTk5ODtzdHJva2UtbGluZWNhcDpyb3VuZDtzdHJva2UtbGluZWpvaW46cm91bmQiIGlkPSJwYXRoMzk1MiIvPiYjeGE7ICAgIDxwYXRoIGQ9Im0gMTI3NC42LDg3LjM2MSBjIDAuODQ2NSwyLjM4NTcgNS4zODI0LDEuMjcyNSA2Ljg2MjgsMy4zMzI5IDAuNzgzNCwwLjc0MTQ3IDAuMzYyOCwwLjQzMDczIDEuMjUxLDAuOTQ2NTIgbCAtMTIuMTg4LDcuNzcxNSBjIC0xLjA2NSwtMC44Mzg5MiAtMC41NjQ2LC0wLjM3MzE4IC0xLjQ5NTYsLTEuNDAzMyAtMS40NjYxLC0yLjE4NzQgLTIuNTcxOCwtNC41ODkyIC0zLjU4OTksLTcuMDEyMSB6IiBzdHlsZT0ib3BhY2l0eTowLjYyODI1O2ZpbGw6IzkxODA3MDtzdHJva2U6IzU2M2MxNTtzdHJva2Utd2lkdGg6MC44OTk5OTk5ODtzdHJva2UtbGluZWNhcDpyb3VuZDtzdHJva2UtbGluZWpvaW46cm91bmQiIGlkPSJwYXRoMzk1NCIvPiYjeGE7ICAgIDxwYXRoIGQ9Im0gMTI5OC43LDExMy41NyBjIDEuMjMxNCwxLjQxODMgMi43Nzk4LDIuNDc5OSA0LjIxOTEsMy42NjQ3IGwgLTEyLjE4NSw3LjYyNzcgYyAtMS40NDMyLC0xLjE5NDMgLTIuOTIwNywtMi4zNDQ3IC00LjI4NTQsLTMuNjMxMyBsIDEyLjI1MSwtNy42NjEgeiIgc3R5bGU9Im9wYWNpdHk6MC42MjgyNTtmaWxsOiM5MTgwNzA7c3Ryb2tlOiM1NjNjMTU7c3Ryb2tlLXdpZHRoOjAuODk5OTk5OTg7c3Ryb2tlLWxpbmVjYXA6cm91bmQ7c3Ryb2tlLWxpbmVqb2luOnJvdW5kIiBpZD0icGF0aDM5NTYiLz4mI3hhOyAgICA8cGF0aCBkPSJtIDEyMTIsMTI2Ljc5IGMgMi4xNjA0LDAuOTYzMDIgNC40NTcyLDEuNTIwNSA2Ljc3NDIsMS45NDM4IGwgLTExLjc5NCw4LjIxMTEgYyAtMi4zODc1LC0wLjUzNzI0IC00LjczNjEsLTEuMjE5OSAtNy4wMDc1LC0yLjE0IGwgMTIuMDI3LC04LjAxNSB6IiBzdHlsZT0ib3BhY2l0eTowLjYyODI1O2ZpbGw6IzkxODA3MDtzdHJva2U6IzU2M2MxNTtzdHJva2Utd2lkdGg6MC44OTk5OTk5ODtzdHJva2UtbGluZWNhcDpyb3VuZDtzdHJva2UtbGluZWpvaW46cm91bmQiIGlkPSJwYXRoMzk2MCIvPiYjeGE7ICAgIDxwYXRoIGQ9Im0gMTIwNS4zLDcxLjM0MiBjIDAuNjkyOCwyLjQ4MDMgNy41NTc5LDQuNjkxOSA4LjkzNjcsNi44NDIxIC0xLjc0MjYsMS40MzEyIDIuMjc0NywyLjUzMjUgMy43NDM1LDMuNDYzMyAxLjAzODUsMC45OTQ1MSAyLjI1OTIsMS43MjI4IDMuMzkxNiwyLjU4MzQgMS4yMjM3LDAuNjc3MDcgMi4zODU3LDEuNDAxOCAzLjc1NjcsMS43NDQ1IDEuNjU0NCwwLjIxODc5IDMuNDA2NSwwLjUzMjU4IDUuMDQ1OSwwLjEzMDgzIDEuNDQ2NiwtMC4zNjM4MiAyLjk5NjIsLTAuODAyNTkgNC4yMzYxLC0xLjY1NjIgbCAtMTEuMjk5LDkuMDU1OCBjIC0xLjQ4NCwwLjUzOTc2IC0yLjkyOTYsMS4xNiAtNC41MzYzLDEuMjM1MyAtMS44MTgzLDAuMDA5NSAtMy42NjA0LC0wLjA5MTgyIC01LjQxMDgsLTAuNjIyODggLTEuNDIwNCwtMC41MzUwNSAtMi43NDU5LC0xLjI5OTUgLTQuMDE5NywtMi4xMjAxIC0xLjE3MywtMC43OTA5IC0yLjI1MTYsLTEuNjg1IC0zLjM2MiwtMi41NjA5IC0xLjU0NzgsLTEuMTI4NCAtMi45Mjk1LC0yLjM4MDYgLTMuOTkxNiwtMy45OTcxIC0xLjQzNTksLTIuMjc4MiAtMi43NDM0LC00LjY0NjIgLTMuNjgwMywtNy4xNzc3IHoiIHN0eWxlPSJvcGFjaXR5OjAuNjI4MjU7ZmlsbDojOTE4MDcwO3N0cm9rZTojNTYzYzE1O3N0cm9rZS13aWR0aDowLjg5OTk5OTk4O3N0cm9rZS1saW5lY2FwOnJvdW5kO3N0cm9rZS1saW5lam9pbjpyb3VuZCIgaWQ9InBhdGgzOTYyIi8+JiN4YTsgICAgPHBhdGggZD0ibSA2MzQuNCw4MDMuMTkgYyAyLjkzNzEsLTAuOTQ4OTkgNS44OTcyLC0xLjgzNjIgOC44MDYsLTIuODcwNiAyLjAwMjQsLTAuNzEyMDYgNC4xOTM4LC0xLjE3NTUgNi4wMzAzLC0yLjI3MTggMS40MzI4LC0wLjYwODY2IDIuNjgyNywtMS40MDkgNC4yMjAxLC0xLjc1MjUgNC4wNDM3LC0yLjI0MSAxMS40OTMsLTYuMzcyNiAtMTEuMjE4LDYuMzk1NSAtMC4yMDA0MywwLjExMjY4IDAuMzc1NjgsLTAuMjY1MiAwLjU2MjA3LC0wLjM5OTgzIDAuNTcyMSwtMC40MTMyIDEuMTY0NCwtMC43NzU5OSAxLjcyOTgsLTEuMTk4NCAyOS43MzksLTE3LjEyNCA1LjgxNDgsLTMuMzQxMSAxLjIyOCwtMC43MjY3IC0wLjIyMjMxLDAuMTI2NzIgMC40MzY4NCwtMC4yNjc1MSAwLjY0NDY3LC0wLjQxNjggMC43ODM0LC0wLjU2MjczIDEuNDY5MiwtMS4yMzA3IDIuMTUxLC0xLjkwODQgMS4xMDgzLC0xLjMgMi40MDc5LC0yLjQ1NTQgMy4yODc5LC0zLjkyOTMgMC40Nzk1MiwtMS40NDU1IDEuMDkxMSwtMi44MTE2IDEuODAzNSwtNC4xNTM5IDAuMDkyOCwtMC4yMjAyNyAwLjE4NTUzLC0wLjQ0MDUzIDAuMjc4MjksLTAuNjYwOCAwLDAgMTMuMTA0LC02LjE0NjEgMTMuMTA0LC02LjE0NjEgLTAuMDcxLDAuMjYzMSAtMC4xNDIwMiwwLjUyNjE5IC0wLjIxMzAyLDAuNzg5MjggLTAuNTUyNjMsMS40MjQzIC0xLjU4OTQsMi42MDkyIC0xLjgxMSw0LjE2NjggLTAuNjI1ODMsMS43NTQ4IC0xLjg0ODksMy4wMyAtMy4xNTIzLDQuMzI5MSAtNS45MDM0LDcuNTc3NyAtMzAuNjMzLDE3LjIzNiAtMy44MzQsMy4zNzM2IC0wLjc5ODA4LDAuNDc5NzQgLTAuNDIyNjUsMC4yMDE0MiAtMS4xMjM1LDAuODM4NzcgLTAuMTkyMTYsMC4xMzA0MiAtMC40MjkxNCwwLjE4MjEgLTAuNjI3MiwwLjMwMzM3IC00LjY1MTMsMi44NDc5IC04Ljk3Myw2LjY0OCAtMTQuMjU2LDguMjAwNyAtMS4zOTA0LDAuNTcxODYgLTIuNjk3MiwxLjMyNzggLTQuMDg3NSwxLjkwNiAtMi4wMDU4LDAuNzMwNCAtNC4wMDA5LDEuNDc3MyAtNi4wNTMxLDIuMDczMyAtMi45NTgsMC45Mzk1OCAtNS45MTc0LDEuODk1IC04LjgwOTYsMy4wMjA0IGwgMTEuMzM5LC04Ljk2MTYgeiIgc3R5bGU9Im9wYWNpdHk6MC42MTMzODAwNDtmaWxsOiM5MTgwNzA7c3Ryb2tlOiM1NjNjMTU7c3Ryb2tlLXdpZHRoOjIuMjAwMDAwMDU7c3Ryb2tlLWxpbmVjYXA6cm91bmQ7c3Ryb2tlLWxpbmVqb2luOnJvdW5kIiBpZD0icGF0aDM5NjQiLz4mI3hhOyAgICA8cGF0aCBkPSJtIDY2MC41LDczNC42NyBjIC0wLjk5OTI0LDIuNjk0MiAtMi4wNzY2LDUuMzY5MiAtMy4yNTcsNy45OTA3IC0wLjgwOTI0LDEuODQ4NiAtMS44NTU3LDMuNTY1MyAtMi45MjE4LDUuMjcyMSAtMC44MjYzLDEuNDQ1NyAtMS45MDQ3LDIuNzE1IC0yLjg5MzYsNC4wNDcgLTAuODM3NjEsMS4zMiAtMS45MTc4LDIuNDU3IC0yLjczODMsMy43ODU1IC0wLjk1MTg4LDEuMjgwOCAtMS41MDI0LDIuNzkyNSAtMi4yNzg4LDQuMTc2NCAtMC45OTg0OSwxLjc0NjUgLTIuMTksMy40MDMyIC0zLjUyNjgsNC45MDY4IC0xLjE5MDksMS4wMTc0IC0yLjEwMiwyLjI5NzcgLTMuMTU4OCwzLjQ0MTMgLTAuODE0NjgsMS4xNDQyIC0xLjYxMTYsMi4yOTgzIC0yLjQ0ODMsMy40MjkgLTAuOTY5MjMsMC45OTQ1NSAtMS42MDU0LDIuMjM5NiAtMi40NzM5LDMuMzE1MyAtMC44NjI2NCwxLjExMjggLTEuODA3NCwyLjE3NTQgLTIuODM2OSwzLjEzNzYgLTEuMjY3OCwwLjY3ODc5IC0xLjkzNTIsMS44Njg4IC0yLjY1NjYsMy4wNTMxIC0wLjI2NjA3LDAuNTQ1NTQgLTEuNzI0MSwxLjcxMjcgLTAuNTc5OCwxLjkwNjYgMS41ODksMC4yMzU0OSAzLjIwMSwwLjIyNzA3IDQuODAzNSwwLjIzNDY4IDEuNzgwNSwwLjAxNjkgMy42MDY4LDAuMTc2NiA1LjE2NSwtMC44MTExMiAtMy45NTI3LDIuMjQ0NiAtNy44OTEzLDQuNTE0MiAtMTEuODU4LDYuNzMzNyAtMC4xODA3MiwwLjEwMTEyIDAuMzUyNTMsLTAuMjI1MjEgMC40OTQ3NCwtMC4zNzU3NSAwLjc1MzA1LC0wLjc5NzE5IDEuMTEyNywtMS45MzM1IDEuNDkyMSwtMi45MzIzIDAuNTYwOSwtMS41NTc5IDEuNTUzNCwtMi44ODk4IDIuMzI2MSwtNC4zMzg5IDAuNjQ4NTEsLTEuMzk4OCAxLjY1MDEsLTIuNjA0IDIuNTkzLC0zLjgxNiAwLjg0ODU4LC0xLjE2MDIgMS43ODg2LC0yLjI2NCAyLjgyOTQsLTMuMjU2NCAxLjA4MywtMS4xMzU4IDIuMjgwMiwtMi4xMjIgMy41NTg2LC0zLjAyOTggMS4wNTgxLC0wLjk4MDY4IDIuMzcxMywtMS41OTc5IDMuNDk4MiwtMi40ODY5IDEuMjcxOSwtMC45NDQzIDIuNjI3LC0xLjc2NjkgMy44NDI0LC0yLjc4NTIgMS4xNTI3LC0wLjg0ODY1IDIuMDU2NiwtMS45NzQyIDMuMjUzMiwtMi43NjIgMC45NzE4NCwtMC45NDE5OSAyLjExOTksLTEuNzM1MyAyLjk5NTksLTIuNzczOSAxLjAwOTIsLTEuMDA2IDEuNzY5LC0yLjE5NTIgMi42MDU0LC0zLjMzNTQgMS4wMjEsLTEuMTg4MSAxLjg5NTIsLTIuNDcxOCAyLjc4NTEsLTMuNzU1MyAwLjU0MSwtMC44MDMxMSAxLjEzMDMsLTEuNTUyNiAxLjYxNjcsLTIuMzkyMiAwLDAgMTMuMjczLC01Ljc5NDQgMTMuMjczLC01Ljc5NDQgLTAuNjA1OTYsMC43NTg0MSAtMC44NTk5OCwxLjcyMzggLTEuNjQyNiwyLjM1MjMgLTAuODAxOTQsMS4zODc2IC0xLjczMzMsMi42NjI5IC0yLjcxODMsMy45MTgyIC0wLjk3OTEzLDEuMDY2OSAtMS41OTE3LDIuMzQwOCAtMi41NTc2LDMuNDExIC0xLjI1MjQsMS4yMjk4IDAuMjk4MDEsLTAuMzY2MjYgLTAuODc5NjYsMS4xMDk5IC0wLjU5Mjk3LDAuNzQzMjkgLTEuNjU5MSwwLjkyNTE4IC0yLjAyMjQsMS44OTgyIC0xLjE4OTEsMS4wMzI2IDAuMTM4OTEsLTAuMDMzOCAtMS4xNzA3LDAuNzYyNjYgLTAuODE2NjMsMC40OTY2MSAtMS4zNzA3LDEuMzg2OSAtMi4wOTQ5LDEuOTk1NSAtMS4yOTU4LDAuOTExNTUgLTIuNDMxNCwyLjAzIC0zLjgxNjIsMi44MjQgLTEuMTk2LDAuNzgyMTIgLTIuMjM2NywxLjc2NzMgLTMuNTQ4NCwyLjM3ODkgLTEuMTA5NiwxLjExODQgLTIuNjM5LDEuNzA0MyAtMy41NzY3LDMuMDAwMiAtMS4wODUxLDAuOTA3NTUgLTIuMDEyNSwxLjg5OCAtMi45NTA4LDIuOTQ1OSAtMC44MDk1NSwxLjI4MTMgLTEuODA1NCwyLjM5NzkgLTIuNzIzNSwzLjU4NjMgLTAuNjA4NjMsMS41NTEzIC0xLjYzNDksMi44MjQ1IC0yLjMzMjMsNC4zMTYzIC0wLjQwOTQxLDAuODExMjYgLTAuNTg0NzksMS42NTY2IC0wLjk1NTQsMi40ODM2IC0yLjQ4MDEsNS41MzQ0IC00LjUxNjQsNC40Mjk5IC0xMy42OTEsOS4wNzAzIC0xLjgxMDQsMC40MDIwOSAtMy42MzY0LDAuMzgzNTIgLTUuNDg0OCwwLjMzMDA0IC0xLjc4MDcsLTAuMDQwNCAtMy42NTU4LC0wLjAwMiAtNS4yODQ1LC0wLjgxOTI5IC0xLjQyNTYsLTEuMTYxNSAtMS42NzQ5LC0yLjU0MjIgLTAuNTQ2NDcsLTQuMDU4NyAwLjk5MDg3LC0xLjA3IDEuMzI3MywtMi41Njk4IDIuNDc0MywtMy40OTg0IDEuMjg3MiwtMC41OTEzMiAxLjk5OTMsLTEuNzU1OSAzLjAyMzYsLTIuNjgyMSAwLjc4NDg4LC0xLjE2OTggMS43NTA2LC0yLjE5ODQgMi40MTE3LC0zLjQ1NzUgMS4wNDQ4LC0wLjkwNzI5IDEuODMwMiwtMi4xNTExIDIuNDg0MiwtMy4zNTcyIDAuOTM3MDEsLTEuMjg3IDIuMDk4NywtMi40MTU4IDMuMTIwMiwtMy42Mzc0IDEuNTUzMSwtMS4xNzkgMi41NjY0LC0yLjg5OTMgMy42ODk1LC00LjQ3MTggMC43NjE5NSwtMS40MzEzIDEuNTE4OSwtMi44NDc4IDIuMTk2NSwtNC4zMjM4IDAuOTc4OTEsLTEuMjAwOSAxLjY1MTgsLTIuNjM5NyAyLjc3OSwtMy43NDM3IDAuODMxNTIsLTEuNDQzOCAxLjk2OTYsLTIuNjM3NyAyLjkzNTgsLTMuOTgzMiAwLjk1MTM1LC0xLjc1ODYgMi4xOTk4LC0zLjMzMjMgMy4wMjM3LC01LjE2MzkgMS4xODQ4LC0yLjU1MTMgMi4zMTU4LC01LjEyNzUgMy4yOTI2LC03Ljc2NzUgbCAxMy4wNjEsLTYuMjAzNSB6IiBzdHlsZT0ib3BhY2l0eTowLjYxMzM4MDA0O2ZpbGw6IzkxODA3MDtzdHJva2U6IzU2M2MxNTtzdHJva2Utd2lkdGg6Mi4yMDAwMDAwNTtzdHJva2UtbGluZWNhcDpyb3VuZDtzdHJva2UtbGluZWpvaW46cm91bmQiIGlkPSJwYXRoMzk2NiIvPiYjeGE7ICAgIDxwYXRoIGQ9Im0gNzMxLjQ2LDYxNy4wNCBjIC0xLjY4ODMsMy40NTQ5IC0zLjYwNzcsNi43OTE2IC01LjQzOTQsMTAuMTczIC0xLjc3NTQsMy4xNjEyIC0zLjcwODQsNi4yMzc2IC01LjcxMTEsOS4yNTk3IC0xLjY5NzEsMi42NDcxIC0zLjM3NzksNS4yOTU3IC01LjI5MDgsNy43OTMzIC0zLjE1NzMsMy41OTY0IC02LjA0MDQsNy4zOTEgLTguODA5LDExLjI5MiAtMi43NzI0LDMuNDU1OCAtNS4xODk2LDcuMTQgLTcuNTkzOSwxMC44NTIgLTIuMjM1OCwzLjEwODIgLTQuMzE0OSw2LjMyNiAtNi41NjA4LDkuNDI2NyAtMS44NDA0LDIuNDUwOCAtMy43NzI4LDQuODI4OSAtNS42NzE4LDcuMjMzNSAtMS40MTQzLDIuMDQ3IC0zLjE5NzQsMy43ODcgLTQuODAyMSw1LjY3NDMgLTEuNTAzMiwxLjg1NyAtMy4zMjY3LDMuMzkzNiAtNS4xMzI5LDQuOTM5NyAtMS41NTcsMS40MDEgLTMuMjE5MSwyLjY3OTcgLTQuNzcwNiw0LjA4NjQgLTEuNTQ2LDEuMzA4NyAtMy4xNywyLjUzMTggLTQuNTk1MywzLjk3MzggLTEuNDc0NSwxLjQxMDYgLTIuOTQ2LDIuODM2NiAtNC41MDYsNC4xNTM1IC0xLjU4ODgsMS4yNjQzIC0zLjIwMjgsMi40NTc3IC00LjU3MTUsMy45NjU1IC0xLjMxMjgsMS40MTY1IC0yLjc2NzIsMi42ODk3IC00LjI0NDIsMy45MzAzIC0wLjcxODczLDAuNzY5OTYgLTEuNjIyNCwxLjMwMjMgLTIuNDY0NywxLjkxNjUgbCAtMTMuNDksNS4yNTUgYyAwLjg5NzkyLC0wLjUwNzc0IDEuNzE2OCwtMS4xMjE4IDIuNTgxMiwtMS42ODE1IDEuMzM0MiwtMS4zODk5IDIuOTg5OSwtMi40MjE0IDQuMjg3LC0zLjg2MDggMi4xNzAyLC0yLjE2ODIgLTAuOTI2MTQsMC45ODA0NSAxLjI5NDgsLTEuNDc2MyAwLjcxODEzLC0wLjc5NDM3IDEuNTU1NiwtMS4zNCAyLjQwMTksLTEuOTY5NyAwLjI4NTkzLC0wLjIxMjczIDAuNTQ2MjEsLTAuNDU3OTIgMC44MTkzMSwtMC42ODY4OCAxLjU5MjEsLTEuMjcxMyAzLjA1ODgsLTIuNjYxOCA0LjU2NiwtNC4wMjY1IDAuNTE3NDQsLTAuNTEwMTMgMC45NDAyNywtMS4xMTI2IDEuNDcyMywtMS42MDc1IDAuOTQzNjIsLTAuODc3ODcgMi4xMTI4LC0xLjU2NDcgMy4wNDMsLTIuNDc0IDEuNjcxLC0xLjI3NjggMy4xNjk5LC0yLjc4MyA0LjgzMDUsLTQuMDgwMyAxLjc2OTUsLTEuNTUzMiAzLjYyMzUsLTIuOTk4OSA1LjI1NjcsLTQuNjk4MyAxLjQ3NzYsLTIuMDA4OSAzLjM2MiwtMy42Mzk0IDQuODI2MywtNS42NTk2IDEuODI4NCwtMi40Njg3IDMuODgyNiwtNC43NzE0IDUuNzIxMywtNy4yMzQ2IDIuMzI5NiwtMy4wNDY5IDQuMzYyOCwtNi4yOTczIDYuNjQ5OCwtOS4zNzU3IDIuNDc5MiwtMy43MDQzIDQuNzM1MiwtNy41NDE2IDcuNjU4NSwtMTAuOTM1IDEuOTE0NCwtMi42OTA1IDMuNzIyNCwtNS40OTM4IDUuODU4NSwtOC4wMTgyIDAuNDgzOTQsLTAuNTcxODggMS4wMjQ5LC0xLjA5MzggMS41MSwtMS42NjQ2IDAuNDQzNTgsLTAuNTIyMDEgMC44NDk2NCwtMS4wNzQ4IDEuMjc0NSwtMS42MTIyIDEuOTY4OCwtMi40Mzk5IDMuNjgzNCwtNS4wNDE1IDUuMzM1MiwtNy43MDUxIDIuMDY3NiwtMi45NjIyIDMuOTMzMiwtNi4wNjM5IDUuODEyNCwtOS4xNDY5IDEuNzkxNywtMy4zMDg2IDMuNjA2MiwtNi41OTkyIDUuMzY3MSwtOS45MjI1IDAsMCAxMy4wODgsLTYuMDg3NyAxMy4wODgsLTYuMDg3NyB6IiBzdHlsZT0ib3BhY2l0eTowLjYxMzM4MDA0O2ZpbGw6IzkxODA3MDtzdHJva2U6IzU2M2MxNTtzdHJva2Utd2lkdGg6Mi4yMDAwMDAwNTtzdHJva2UtbGluZWNhcDpyb3VuZDtzdHJva2UtbGluZWpvaW46cm91bmQiIGlkPSJwYXRoMzk2OCIvPiYjeGE7ICAgIDxwYXRoIGQ9Im0gOTYwLjA5LDQzMi4xMyBjIC0yLjYxNDksMy41ODg4IC01LjUzMzYsNi45MzE0IC04LjQwMzQsMTAuMzE0IC0zLjIyMzQsNC4xMDEgLTYuNDkyMSw4LjE3MzggLTkuNTExNCwxMi40MjkgLTMuNDQ5Nyw0Ljg4NDMgLTcuMDkzNCw5LjYyNjggLTEwLjcxLDE0LjM4NyAtMi45MjI4LDMuOTY5MiAtNS43MzMsNy45OTg2IC04Ljg4NDIsMTEuNzk0IC00LjEyNTksNS4zNTk4IC04Ljk3NDMsMTAuMDc4IC0xMy42NDgsMTQuOTQ2IC00LjE3MDYsNC4xODUgLTguMjY1Miw4LjQ0NDggLTEyLjQ5NSwxMi41NyAtMi4zODU4LDIuMzk0MyAtNC41MzUyLDQuOTk5OSAtNi45ODY1LDcuMzI5MSAtMi41MDcsMi4zNjc5IC00LjY5NjEsNS4wNDA0IC03LjAyNjksNy41NzY1IC0yLjIyMjgsMi41NDI3IC00Ljc0MTEsNC43OTU3IC03LjAzNSw3LjI3MDQgLTIuMjI3OCwyLjQxMzEgLTQuNTIzNCw0Ljc2MjggLTYuNzczOSw3LjE1NTYgLTIuMTgzNCwyLjM2NTQgLTQuMTQ5Myw0LjkxNTIgLTYuMTI3Myw3LjQ1MDggLTEuOTgyLDIuNDY2MiAtNC4wMzgsNC44NzY4IC02LjIyNDIsNy4xNjQzIC0yLjU3NzIsMi41NjQ1IC01LjI4NzEsNC45OTk2IC03Ljc3NjMsNy42NTExIC0xLjg4MTQsMS44ODggLTMuNDM2Miw0LjA1OTQgLTUuMjQ4Niw2LjAwNjIgLTEuNjU2MSwxLjQ2NjIgLTIuOTgxMSwzLjIyNDIgLTQuNDE0Nyw0Ljg5NDYgLTEuMTY2OCwxLjQwNTkgLTIuNDUzNCwyLjcwNTEgLTMuNjU2NCw0LjA3NzMgLTEuMTA0LDEuNjgzMiAtMi4yNzQyLDMuMzE4NyAtMy40ODE4LDQuOTI5OSAtMS40MjYxLDIuMDM4NCAtMi44NjYsNC4wNjQyIC00LjUyOSw1LjkxNyAtMS44Njk0LDEuOTM5OCAtMy42MTg3LDMuOTg2NyAtNS40Mzg3LDUuOTcyNCAtMi4zMjQ0LDIuNjM0NyAtNC44MTU3LDUuMTAzOCAtNi45OTQ2LDcuODY0OSAtMS45NDE4LDIuNzc0NiAtMy45MTE3LDUuNTEzNiAtNi4wMDk0LDguMTczMyAtMS42MDAyLDIuMjQ3IC0zLjQ1MjcsNC4yOTA5IC01LjIzOTIsNi4zODY2IC0xLjIyNTgsMS42NjAyIC0yLjU3ODYsMy4yMjgxIC0zLjczMDIsNC45NDE3IC0xLjA4MjYsMS42MjIxIC0yLjI2MDIsMy4xNjg5IC0zLjM2Niw0Ljc3NjUgLTEuMTI3LDEuNTQ2MiAtMi4xMTE2LDMuMTc0NCAtMy4xMTExLDQuODAxOCAtMS42NzIxLDIuMTQwMiAtMy4xNDk3LDQuNDIgLTQuNTc0OSw2LjcyOTUgLTEuNDA5NCwyLjYyMTcgLTMuMDkxOSw1LjA3MzIgLTQuODI5Niw3LjQ4NCAtMS4zNjQxLDIuMDA1NSAtMi43OTg0LDMuOTU5OSAtNC4yMjgsNS45MTg4IC0xLjQyMiwxLjgzMzQgLTIuNjEyLDMuODI3MSAtMy44NTQyLDUuNzgyNyAtMS4wODk1LDEuODM3OSAtMi4yNzYyLDMuNjExNiAtMy40MjgsNS40MTA5IC0xLjE0NywxLjY3NjYgLTIuNDU1OSwzLjIzMjMgLTMuNzA0OCw0LjgzMjMgLTEuNTIwNiwxLjk2NDggLTIuNjQzOCw0LjE4NDMgLTQuMDAxNCw2LjI1NjkgLTEuNDQ1OSwyLjA0NzkgLTIuODQzLDQuMTI1MyAtNC4zMjMxLDYuMTQ5NSAtMS4wNzg5LDEuNjI5NyAtMi4zMTg3LDMuMDkwMyAtMy42MTcxLDQuNTQzNyAtMS4zNjcxLDEuODEwMSAtMi44OTc3LDMuNDg3IC00LjM1MjIsNS4yMjY0IC0yLjkwMTcsMy43NDY0IC01Ljc1MTQsNy41MzE4IC04LjU5NjMsMTEuMzIxIC0yLjY2MjgsMy40NTcgLTUuMjY0OSw2Ljk1ODcgLTcuOTM0NiwxMC40MSAtMS40NzM2LDEuODI3MiAtMy4wNTU3LDMuNTU0NiAtNC42OTQ1LDUuMjMyNSAtMS4yODgxLDEuMDgzNiAtMi40MzE0LDIuMzE5NSAtMy42NDg0LDMuNDc3NyAtMS4zNzMsMS41Njc0IC0yLjc5OTQsMy4wODc0IC00LjE4MDIsNC42NDc2IC0xLjI5MDksMS41NjI0IC0yLjY2MTQsMy4wNTY3IC0zLjk2MzgsNC42MDc4IC0xLjU4MjIsMS45MjA0IC0zLjEzODcsMy44NjA0IC00LjY1MTEsNS44MzYzIC0xLjM2MTUsMS4zNzA2IC0yLjI3NSwzLjA5MzEgLTMuNjAxNCw0LjQ4NSAtMS4xMTgsMC45MTYyMyAtMS44Nzc1LDIuMTY4NSAtMi45NTQ3LDMuMTE1MSAtMS41NTYxLDEuMjg2NiAtMi45MDQ2LDIuNzc3MiAtNC4yMjI0LDQuMzAyNyAtMS42NDU0LDEuODQ2IC0zLjA0NywzLjg5MDIgLTQuNTg2LDUuODIyNCAtMS4yNjA3LDEuNDE0IC0yLjM5MzYsMi45MzI4IC0zLjUzOTUsNC40MzkxIC0wLjg4MjA1LDEuMTQzIC0xLjkyNiwyLjE0MTIgLTIuODcyNiwzLjIyNTQgLTAuOTI3NDgsMS4yMzU4IC0xLjcwMDgsMi41NzU2IC0yLjU3MzgsMy44NDc5IC0wLjExMTE2LDAuMTc3MzMgLTAuMjIyMzIsMC4zNTQ2NiAtMC4zMzM0OCwwLjUzMTk5IGwgLTEzLjMyLDUuNzI2OSBjIDAuMTM2MzcsLTAuMTQ2OTQgMC4yNzI3NSwtMC4yOTM4OCAwLjQwOTEyLC0wLjQ0MDgyIDAuNzk5MDYsLTEuMzEzNCAxLjY0MTYsLTIuNjE3MiAyLjU1MjksLTMuODUzMyAwLjY4ODMzLC0xLjM2MjggMS45MjI5LC0yLjE5NjcgMi44MTI2LC0zLjQxNDYgMS4zNjExLC0xLjM0MzkgMi4yODEyLC0zLjA1NzMgMy41ODMyLC00LjQ2MzcgMS43MzgxLC0xLjc3MzcgMy4wMDkyLC0zLjk0NTMgNC41OTc2LC01Ljg0NzggMS4zNjgyLC0xLjQzNzIgMi40ODExLC0zLjE5MSA0LjA5ODcsLTQuMzU3NiAxLjM5NTksLTEuNDY4MSAtMC40MzY0NywwLjM3MzM4IDEuMDUwMSwtMC44NjAyNiAwLjc2NDQxLC0wLjYzNDM0IDAuOTUyNjMsLTEuNzc2OSAxLjk1MzksLTIuMTg0NiAwLjcyMzI1LC0wLjgwNTM0IDAuMzMyMDMsLTAuNDMwNjkgMS4xNzQ5LC0xLjEyMjYgMC45NjIyMiwtMC45OTY5OSAxLjM1NTUsLTIuNDU4OCAyLjUxNDksLTMuMzA0NiAxLjYyNiwtMS44NTk1IDIuOTYyNiwtMy45Njg1IDQuNjU5NCwtNS43NzMxIDEuMTM5MiwtMS43MDE4IDIuNjU1OCwtMy4xMDIyIDMuOTU3LC00LjY3OTUgMS4yNjk4LC0xLjY0MjggMi43OTk3LC0zLjA1OCA0LjA4NTcsLTQuNjkwOCAxLjA2OTUsLTEuMzE4NyAyLjQwNDgsLTIuNDI2OSAzLjYyNjIsLTMuNjAxMyAxLjgyNTUsLTEuNDk1MyAzLjI3LC0zLjM2OTYgNC45MDQyLC01LjA2NDMgMi43NDA2LC0zLjQ1ODcgNS40Mjc4LC02Ljk1NDUgOC4xMDU2LC0xMC40NjIgMi44NTYyLC0zLjcwMzcgNS41OTcxLC03LjQ5ODQgOC4zNzQ2LC0xMS4yNjIgMS4zNTk4LC0xLjc4ODUgMi45MDc0LC0zLjQyMzggNC4yODY1LC01LjE4NTkgMC43ODczNiwtMS4xMzU3IDEuODY2NSwtMS44MjgyIDIuNTg2LC0yLjg5NTUgMC4xODA1MSwtMC4yNjc3NyAwLjI4NjYzLC0wLjU4MDAyIDAuNDU4MywtMC44NTM1NCAwLjE3ODYxLC0wLjI4NDU3IDAuMzkzNSwtMC41NDQ3IDAuNTkwMjUsLTAuODE3MDUgMS42NTIxLC0xLjg4NTcgMi45MTAyLC00LjA2NSA0LjQwMTYsLTYuMDY2NCAxLjQ0NTQsLTIuMDIwMiAyLjUyNiwtNC4yMzc2IDMuOTQzOSwtNi4yNzE2IDEuMTMyMSwtMS42OTE0IDIuNTUwNSwtMy4xNjQ0IDMuNzA5OSwtNC44Mjk4IDEuMzE0NCwtMS42MjUzIDIuMzk5NCwtMy41ODAxIDMuNDQxOCwtNS4zOTMgMS40MDkxLC0xLjg1MzMgMi4zNzI4LC00LjAyMDUgMy44Nzc0LC01Ljc5ODQgMS4zNTksLTIuMDIxOCAyLjk2NjgsLTMuODc2OCA0LjE5NzYsLTUuOTg0MSAxLjg5NSwtMi4yNTk3IDMuNTEyMywtNC43NzIzIDQuOTY4LC03LjMzNDMgMS4yOTg2LC0yLjM2OTYgMi43OTYzLC00LjY0NjEgNC40MDM2LC02LjgxMTkgMC42MzcxMSwtMC43NDEyMiAwLjk1OTc0LC0xLjQ4MTcgMS40NDIxLC0yLjMxOTUgMC43NDk1MywtMS4zMDE4IDAuMjg2NzYsLTAuMzE2NTggMS4xNDc5LC0xLjU1MzggMC4yMDQ4NSwtMC4yOTQzMSAwLjM2Njk4LC0wLjYxNjE2IDAuNTUwNDcsLTAuOTI0MjQgMC41OTM5NSwtMC44MTQzOSAxLjA5MjksLTEuNjc4NyAxLjY2NjgsLTIuNTAyNyAwLjM1ODM2LC0wLjUxNDUxIDAuODg4MTUsLTAuODk0NTcgMS4yNDQ2LC0xLjQxMDQgMC4xODQsLTAuMjY2MjIgMC4yNzYwMiwtMC41ODU0MyAwLjQxNDAzLC0wLjg3ODE0IDEuMjYsLTEuNTQ4MiAtMC4xOTk2NywwLjMxNjUzIDEuMDMyNiwtMS41MTYyIDAuODMwMTcsLTEuMjM0NiAyLjAyNzIsLTIuMTk5NiAyLjcyMDksLTMuNTQyNCAxLjc4NjQsLTIuMTA1NSAzLjcxNTksLTQuMDk1MSA1LjI5NjcsLTYuMzYzNCAyLjE0MiwtMi42NDUyIDQuMjIxMywtNS4zMTIgNi4wODA2LC04LjE2NyAyLjA4MzEsLTIuODM1MiA0LjUwNTgsLTUuMzUxNCA2Ljg4NiwtNy45MjkyIDEuNzQyOCwtMi4wNjIzIDMuNjI4OCwtMy45OTQzIDUuMzk4OCwtNi4wMzM4IDEuNzc4MiwtMS42Nzg1IDMuMTE1LC0zLjY4ODkgNC41ODI0LC01LjYzIDAuOTkzMTYsLTEuNzc0OSAyLjU1NjgsLTMuMTc3MyAzLjQzNTgsLTUuMDM0NyAxLjAyNTMsLTEuNTMxNiAyLjQxMjQsLTIuNzYxIDMuNjQxOSwtNC4xMjU5IDIuNTUxLC0zLjIzMzUgLTEuMzI1MSwxLjYyMzMgMS40MDMyLC0xLjYwNDIgMC45NzUyMiwtMS4xNTM3IDEuNjg3NywtMi41Mzk0IDMuMDAwMywtMy4zODE0IDAuNTUxMzMsLTAuNTkyOTMgMS4xODQ2LC0xLjEwODUgMS43MTMyLC0xLjcyMTggMS4yMTQ2LC0xLjQwOSAyLjE3MDYsLTMuMDczMiAzLjYxMywtNC4yOTMxIDIuMzk3NSwtMi43NjE3IDUuMTcxMiwtNS4xNjQ3IDcuNzgyOSwtNy43MDk3IDIuMjAwMywtMi4yMzU2IDQuMjM0MywtNC42MTE0IDYuMjQ5MSwtNy4wMTU2IDIuMDE2OSwtMi41MzIyIDMuOTQ0NSwtNS4xMzIyIDYuMDc5NCwtNy41Njk1IDIuMjU5NiwtMi4zODI5IDQuNTEyOSwtNC43NzEzIDYuNzg4MSwtNy4xMzQ2IDIuMjY5NiwtMi41Mjg3IDQuNzgzMywtNC43OTQ3IDcuMDY1LC03LjMwOTQgMi4zOTkyLC0yLjQ3NDIgNC41MjIyLC01LjE4ODQgNi45NDA1LC03LjY0NSAyLjUzNDQsLTIuMjg2MiA0Ljc4MTcsLTQuODIyNiA3LjA4NDYsLTcuMzM5OSA0LjM0MDUsLTQuMTIwOSA4LjUzMjgsLTguMzg1NyAxMi43NjQsLTEyLjYxOCA0LjYwMzksLTQuODM0NSA5LjQ3NDQsLTkuNDQzIDEzLjUxMywtMTQuNzgyIDMuMTUwNiwtMy43OTExIDYuMDc2NiwtNy43MjE5IDguOTEyMywtMTEuNzUyIDMuNzA2LC00LjcwNzQgNy4yOTc4LC05LjUwOTIgMTAuODI0LC0xNC4zNTQgMi45MTAyLC00LjMxNTkgNi4xNywtOC4zNjg3IDkuMzI3MSwtMTIuNTA0IDIuODIzOCwtMy4zMDg5IDUuNzM4LC02LjU0NzkgOC4yNDAzLC0xMC4xMTIgMCwwIDEzLjI0MiwtNS43NDMgMTMuMjQyLC01Ljc0MyB6IiBzdHlsZT0ib3BhY2l0eTowLjYxMzM4MDA0O2ZpbGw6IzkxODA3MDtzdHJva2U6IzU2M2MxNTtzdHJva2Utd2lkdGg6Mi4yMDAwMDAwNTtzdHJva2UtbGluZWNhcDpyb3VuZDtzdHJva2UtbGluZWpvaW46cm91bmQiIGlkPSJwYXRoMzk3MCIvPiYjeGE7ICAgIDxwYXRoIHN0eWxlPSJmaWxsOnVybCgjbGluZWFyR3JhZGllbnQ0MTY3KTtzdHJva2U6Izg2MWMwMDtzdHJva2Utd2lkdGg6NS41OTk5OTk5O3N0cm9rZS1saW5lY2FwOnJvdW5kO3N0cm9rZS1saW5lam9pbjpyb3VuZCIgZD0ibSA0MjIuNTEsNTkyLjg3IGMgNDkuOTI1LC05MC4wNyAxMDUuODksLTE3MS45NCAxOTEuNzgsLTIxMy4yIDEyMi43OCwtNTQuMjE0IDI1Ni4zNiwtMzcuNjQzIDM0My42NSwtODguNTkgMTkuMTc1LDMuODk0MSAyNi4yMDYsNy43ODgxIDI3LjI1OCwxMS42ODIgMTMuODMyLC0yLjAyOSAyNi43MjYsLTIuMTgwNCAzNy45NjcsMC45NzM1MSAwLDAgMTMuNjI5LDcuNzg4MSAxNy41MjMsOS43MzUyIDMuODk0MSwxLjk0NyAxOS40NywxMy42MjkgMjEuNDE3LDE3LjUyMyAxLjk0NywzLjg5NDEgMTIuNjU2LDI5LjIwNiAxMC43MDksMzMuMSAtMS45NDcxLDMuODk0MSAwLjk3MzUsMjIuMzkxIDAuOTczNSwyMi4zOTEgLTAuNDI3OCwxNC45MTMgLTMuMzI5NiwzNy4yNDcgMC45NzM1LDM3Ljk2NyBsIC05LjczNTIsMTEuNjgyIGMgMCwwIC0xNC4xMjIsOC40NzYzIC0yNC4zMzgsMjUuMzExIC03LjYwMzksMTIuNTMxIC0xOC40OTcsMTEyLjkxIC00NS43NTUsMTc0LjI2IC04LjQ4NTIsMTcuODk2IC03NS4wNjksOTEuOTQ0IC04OC41OSwxMTYuODIgLTEuMTA4MSwyMS43MzQgLTIwLjY3Nyw1NS42OTQgLTM3Ljk2Nyw3Ny44ODEgLTkuODQ0MSw2LjU5NzkgLTE3LjczMiwxNC4xNzQgLTIyLjM5MSwyMy4zNjQgLTUuMzc2Miw2Ljk5ODggLTExLjg2MiwxNS4xMDggLTIyLjM5MSwyNy4yNTggbCAtMTcuNTIzLDIwLjQ0NCBjIC0yMi4wMTMsMTguOTgxIC00OC44MjYsMjMuNTYyIC03NS45MzQsMjcuMjU4IC0xMDguMDYsMjIuNDQgLTMzMS40NSwtOTEuNjIgLTMzNCwtMjUxLjE1IDUuNzQ5NiwtMjIuODEgLTIuODMyOSwtMTkuODIzIDI2LjI4NSwtODQuNjk2IHoiIGlkPSJwYXRoMzc5MSIvPiYjeGE7ICAgIDxwYXRoIHN0eWxlPSJvcGFjaXR5OjAuNTcyNDg5OTY7ZmlsbDojNGYxYTAwIiBkPSJtIDc4MC43Niw3MTQuNTYgMzQuMDczLDE3OS4xMyA0Ny43MDIsLTU4LjQxMSBjIDI2Ljc3OSwtMzIuMzkgNTIuNSwtNjIuOTYzIDQ1Ljc1NSwtODcuNjE3IDIzLjE2NCwtMzYuMjY5IDUyLjU3LC03Mi4zNjUgODMuNzIyLC0xMTAuMDEgMjcuNDM3LC01OC43NiAzNC43MjksLTEyMC44OCA0Ny43MDIsLTE4Mi4wNSAxMi4zMDQsLTExLjY4MiAzMi40MDEsLTIzLjM2NCAzMy4xLC0zNS4wNDcgLTEuMDQzNywtMzUuODk3IC0yLjI0ODgsLTcwLjAxOSAtNS44NDExLC03Ny44ODEgLTE3LjM1MiwyMC45MzkgLTIwLjIxOSw1Ni4zNjQgLTU4LjQxMSw1Ni40NjQgLTEwLjc5Myw3Ljk3OCAtMjUuODQ0LDU4LjU0NiAtMzguOTQxLDg5LjU2NCAtMTQuMTY4LDM0Ljg0IC0zNC43OTEsMzkuOTQgLTQ4LjY3Niw5My40NTggbCAtMTMuNjI5LDgxLjc3NSBjIC0xMS40MDksMTEuMzk4IC0yMS45NjksMjMuOTI3IC00MC44ODgsMjUuMzExIC02Mi45OTksLTMuNzE4OSAtNjIuNDkxLDE0Ljk3NiAtODUuNjcsMjUuMzExIHoiIGlkPSJwYXRoNDEwOCIvPiYjeGE7ICAgIDxwYXRoIHN0eWxlPSJmaWxsOiNmZmZmZmYiIGQ9Im0gNDIwLjU2LDYwNC41NSBjIDc3LjE3NywtODcuMDUzIDE4My4yMiwtMzQuNDEyIDI0NC4zNSwyMC40NDQgNjAuNDMsNTIuODk0IDEzMC4wNiw3MS43MTYgMTM3LjI3LDkxLjUxMSAxOC44MTQsMTcuODMzIDE0Ljk2Nyw3Ny4zNDQgMjEuNDE3LDE2NC41MiAtMjUuNTI1LDMzLjMyNCAtMzMuODY3LDQxLjc3OSAtMTE1Ljg1LDUwLjYyMyAtMTMyLjc5LC0xMi41NDIgLTIzOSwtNjkuMzkxIC0zMDEuNzksLTE5OC42IC04LjcyMTIsLTQwLjE0OSAtMTQuOTQ0LC03Mi40NTUgMTQuNjAzLC0xMjguNSB6IiBpZD0icGF0aDM5NzYiLz4mI3hhOyAgICA8cGF0aCBzdHlsZT0iZmlsbDojYmIyYTAwIiBkPSJtIDQ0OS43LDYzMC42OCBjIDY1LjEwNCwtNzIuNTI3IDE1NC41NiwtMjguNjcgMjA2LjEzLDE3LjAzMiA1MC45NzYsNDQuMDY4IDEwOS43MSw1OS43NDkgMTE1Ljc5LDc2LjI0IDE1Ljg3LDE0Ljg1NyAxMi42MjYsNjQuNDM4IDE4LjA2NywxMzcuMDcgLTIxLjUzMiwyNy43NjQgLTI4LjU2OSwzNC44MDggLTk3LjcyNSw0Mi4xNzUgLTExMi4wMiwtMTAuNDUgLTIwMS42MSwtNTcuODIgLTI1NC41OCwtMTY1LjQ2IC05LC0yNi4xNSAtMTkuMTcsLTUxLjQ0IDEyLjMyLC0xMDcuMDYgeiIgaWQ9InBhdGgzOTc2LTIiLz4mI3hhOyAgICA8cGF0aCBzdHlsZT0iZmlsbDojOGIyYTAwIiBkPSJtIDc3NS4zNCw3MjkuMDEgYyAtMzcuMDk3LDQ4Ljg5OCAtODkuMjY5LDkzLjYxNSAtMTg0LjkxLDkzLjYxNSAtMjguMjUxLDAgLTg1LjUwNywtMTMuNjczIC0xMTAuNjIsLTE5LjExNSA1My4xOTMsNjIuNjE0IDEyNi4yMiw5Mi42MDMgMjEyLjU2LDEwMC42NiA2OS4xNTYsLTcuMzY3OSA3Ni4xODcsLTE0LjQyNCA5Ny43MTksLTQyLjE4OCAtNS4wMjA4LC02Ny4wMjMgLTIuNjc2OCwtMTE0LjM3IC0xNC43NSwtMTMyLjk3IHoiIGlkPSJwYXRoMzk3Ni0yLTYiLz4mI3hhOyAgICA8cGF0aCB0cmFuc2Zvcm09Im1hdHJpeCgwLjc1MDU1LDAuNDIyMzksLTAuMzU0MzUsMC44OTQ2Nyw3MTkuMDEsLTM0MC43MikiIGQ9Im0gNjE3LjIwOTc2LDEwNjguOTIxNiBhIDE1NC43ODkyLDcwLjA5MzIyNCAwIDAgMSAtMTU0LjAxNzU3LDcwLjA5MjQgMTU0Ljc4OTIsNzAuMDkzMjI0IDAgMCAxIC0xNTUuNTUzMTMsLTY5LjM5MzUgMTU0Ljc4OTIsNzAuMDkzMjI0IDAgMCAxIDE1Mi40NjY2OSwtNzAuNzg0MjUgMTU0Ljc4OTIsNzAuMDkzMjI0IDAgMCAxIDE1Ny4wNzMyNCw2OC42ODc4NSIgc3R5bGU9Im9wYWNpdHk6MC42NDY4Mzk5OTtmaWxsOiM0ZjFhMDAiIGlkPSJwYXRoNDEwNiIvPiYjeGE7ICAgIDxnIHRyYW5zZm9ybT0idHJhbnNsYXRlKDI5Mi4zMSwtMjcuNzcxKSIgaWQ9Imc0MDg5Ij4mI3hhOyAgICAgIDxwYXRoIGQ9Im0gMzE1LjQyLDc1MS4wNyAtMzUuMDQ3LDQyLjM0OCAxMC43MDksMjUuNzk4IC0zOC45NDEsLTE3LjUyMyAtOS43MzUyLDE0LjYwMyAxMC43MDksMjYuNzcyIDI0LjMzOCwxOC45ODQgMzEuMTUzLDE2LjU1IDM2Ljk5NCw2LjMyNzkgMjQuMzM4LC02LjgxNDYgNDAuNDAxLC03NC40NzQgYyAyLjkzOTEsLTIwLjUzNSAtNDUuOTA2LC02Ni43MjYgLTk0LjkxOCwtNTIuNTcgeiIgc3R5bGU9ImZpbGw6I2ZmZmZmZiIgaWQ9InBhdGg0MDg3Ii8+JiN4YTsgICAgICA8ZyB0cmFuc2Zvcm09InRyYW5zbGF0ZSgxMTcuMzEsMjMuODUxKSIgaWQ9Imc0MDcyIj4mI3hhOyAgICAgICAgPHBhdGggZD0ibSAyMTcuNDgsNzg2LjcxIGMgMS4xMDE0LC0wLjcxNjk3IDIuMDU0OCwtMS42MTUzIDIuOTI1OSwtMi41OTI2IDAuNzc3NjUsLTAuODg0ODggMS41Mjk1LC0xLjc5MSAyLjI4NjEsLTIuNjkzNyAwLjUxMjY0LC0wLjYzMTk4IDAuODg2OSwtMS4zNTA2IDEuMjk4NywtMi4wNDY0IDAuMjg3NjUsLTAuNjU4NDkgMC42Njc3OSwtMS4yNTc3IDEuMDU4MSwtMS44NTcyIDAuMzM2OTYsLTAuNjIyMTQgMC43MzUzNiwtMS4yMTMzIDEuMjExNiwtMS43MzcxIDAuNTM3NjUsLTAuNDgyMzcgMC44NDg4OCwtMS4wNzIxIDEuMTgyMSwtMS42OTc3IDAuMjkyMzksLTAuNzc4MzggMC43OTA1MywtMS40NDE4IDEuMTYzMywtMi4xNzk2IDAuMzg4NDUsLTAuOTA2ODYgMC42NjAxMywtMS44NTI5IDEuMTM1NywtMi43MjE0IDAuMzU5NTIsLTAuNjU2NDEgMC42ODMyNiwtMS4zMzMzIDEuMDU2NywtMS45ODE2IDAuMzc5OTMsLTAuNjAxMDMgMC43NjA3OSwtMS4yMDA5IDEuMTM4NiwtMS44MDQ3IDAuNDc5MjksLTAuNTQwOTYgMC43MTk5NSwtMS4yMjU1IDEuMDM4LC0xLjg2MzQgMC4zNjM3NywtMC42MDMyNiAwLjc1NDQ1LC0xLjE5OTkgMS4wMjg2LC0xLjg1MDMgMC4yMDUxOSwtMC43NTgxMyAwLjQ4MjgzLC0xLjQ4OTggMC42MzczMiwtMi4yNjEgMC4xNDIyNywtMC43NzI2MSAwLjQxODg3LC0xLjUwNTggMC43MjE1MiwtMi4yMjY3IDAuMzA3NDksLTAuODEzMTggMC4zMzkxNiwtMS42ODk2IDAuNTA5MTQsLTIuNTM1NSAwLjE1Njk1LC0wLjg1NDkzIDAuNDE4MjMsLTEuNjk1MSAwLjc4MTc3LC0yLjQ4NDggMC4yNDg3NiwtMC40Nzg1OCAwLjM2MzM4LC0xLjAwNDUgMC40OTQ4NiwtMS41MjI4IGwgNi41Mjc2LC0zLjEwMDQgYyAtMC4xNzIwOSwwLjUzNjI3IC0wLjIyMzQzLDEuMDk3OCAtMC40Mzc0NiwxLjYyMjQgLTAuMzU1MjcsMC43NTE3NyAtMC43MjY1NCwxLjUxMiAtMC44NjczMiwyLjM0MDYgLTAuMTg5MDIsMC44NzM1OSAtMC4yNTgzOCwxLjc1MzEgLTAuNDQ3MTQsMi42MjY1IC0wLjIzNTE4LDAuNzE1NzMgLTAuNTk4NTMsMS4zNjk5IC0wLjc4ODAxLDIuMTA0OSAtMC4xMTAwMiwwLjgxODUgLTAuMzY1NTgsMS41NzQyIC0wLjU4MjQ5LDIuMzYwNCAtMC4xOTI1MSwwLjc0MjI3IC0wLjU3NTAyLDEuMzU0NiAtMC45NDgwNSwyLjAxNDEgLTAuNDgyOCwwLjU3MjA5IC0wLjU5MjEzLDEuMzEzNiAtMS4wMTA0LDEuOTI0NSAtMC41MDExNywwLjUwMDk3IC0wLjY5NjksMS4xODkyIC0xLjE4OTEsMS42OTUzIC0wLjM0NjI5LDAuNjcwMTQgLTAuNzM5NTEsMS4zMDk3IC0xLjA2MywxLjk4OTggLTAuNDgyNTMsMC44NjAxMyAtMC45Mjg2OCwxLjcxMzEgLTEuMTcwNSwyLjY4MjggLTAuMTc5OTksMC40MTY1NyAtMC4zMzU3NCwwLjg1NDgxIC0wLjU5NjcxLDEuMjMwMiAtMC4xNjU5MiwwLjIzODY4IC0wLjI5NDg2LDAuMzA4MDggLTAuNDE2NDEsMC41NzMzNyAtMC4wNTUzLDAuMTIwNjUgLTAuMDgxMywwLjI1MjY2IC0wLjEyMTk1LDAuMzc5IC0wLjA1MTUsMC4xMTMwMiAtMC4xMDI5LDAuMjI2MDUgLTAuMTU0MzYsMC4zMzkwOCAtMC4wNjA5LDAuMDk3MyAtMC4xMzQ5OCwwLjE4NzQ5IC0wLjE4Mjc3LDAuMjkxODUgLTAuMjA5MzUsMC40NTcxMyAtMC4yOTUwOCwwLjk0MTg1IC0wLjc3NTc1LDEuMjE2NiAtMC40MDY3OCwwLjU1MDk1IC0wLjkyNjg5LDEuMDA0NCAtMS4yNzEsMS42MDY2IC0wLjI4OTMsMC42Njg2NCAtMC44Mzk1MywxLjE2MzcgLTEuMDU0NywxLjg2OTYgLTAuMzg2MzMsMC43NDc1IC0wLjgxODQzLDEuNDU4MyAtMS4yNzI1LDIuMTY3MiAtMC43MTcxLDAuOTQ1NDkgLTEuNTMwOSwxLjgxMzEgLTIuMjkwNCwyLjcyNjMgLTAuODUwODQsMS4wMTc0IC0xLjc1OSwxLjk2NiAtMi44MjIxLDIuNzYxMiBsIC02LjczMzQsMi42MzQ2IHoiIHN0eWxlPSJvcGFjaXR5OjAuNzk5MjYwMDQ7ZmlsbDojOWE4ZDgwIiBpZD0icGF0aDQwNjIiLz4mI3hhOyAgICAgICAgPHBhdGggZD0ibSAxNTAuMzksODIwLjcgYyAxLjUwNDYsMC40OTEwNiAyLjk0MzQsMS4xNTMzIDQuNDI2OSwxLjcwMTcgMC45NjE3MywwLjQwNjA2IDIuMDA4LDAuNjI5MTEgMi45NjM5LDEuMDM4NiAwLjcwOTE2LDAuMjY5MTEgMS4zMzkxLDAuNzQxNjkgMS44NjksMS4yNzk3IDAuNDczNDMsMC42NTE3MiAwLjkwNzE5LDEuMzI2OCAxLjM3MTksMS45ODM3IDAuNDQxODMsMC42ODI2NCAwLjk3MDEzLDEuMzA2MSAxLjQzMDgsMS45NzczIDAuNDE5MDMsMC41MDI5NSAwLjkwMjQ1LDAuOTY5NDMgMS40ODcsMS4yNzIzIGwgLTYuMDc1MywzLjkyODEgYyAtMC42MjE1OCwtMC40MjEzMyAtMS4xODE0LC0wLjkzNjIxIC0xLjYzNTMsLTEuNTM2NyAtMC40Njk5OCwtMC42NjQ5NCAtMS4wMTIzLC0xLjI3OTMgLTEuNDQyOSwtMS45NzE3IC0wLjQyNjQ5LC0wLjYyNTgzIC0wLjg0MjE1LC0xLjI1NSAtMS4zMDUsLTEuODU1OSAtMC41MDIzOCwtMC40NDk4IC0xLjA1NTYsLTAuODMyNzUgLTEuNzAyOCwtMS4wNDM4IC0wLjk4MzkyLC0wLjMyOTkyIC0xLjk0NTgsLTAuNzA3ODcgLTIuOTE4MiwtMS4wNzA0IC0xLjQ2MTEsLTAuNTg4MjIgLTIuOTAzNCwtMS4yMjUxIC00LjQzNDksLTEuNjE3OCBsIDUuOTY1LC00LjA4NTIgeiIgc3R5bGU9Im9wYWNpdHk6MC43OTkyNjAwNDtmaWxsOiM5YThkODAiIGlkPSJwYXRoNDA2OCIvPiYjeGE7ICAgICAgICA8cGF0aCBkPSJtIDIzMS4wNyw4MjcuNiBjIDEuMzQ5MSwtMC40NjAyMyAyLjY4ODgsLTAuOTYwMjYgNC4wNTc4LC0xLjM1OTkgMC45MTczNywtMC40NDE4MiAxLjkzMywtMC43MjYzOCAyLjc5NjgsLTEuMjY5OSAwLjgxMjM2LC0wLjM2NTM1IDEuNjM1NiwtMC42Nzc0NyAyLjM4ODIsLTEuMTYyOSAwLjE1NDIsLTAuMDgxMiAwLjYxMzMzLC0wLjMzMDg5IDAuNDYyNTgsLTAuMjQzNTEgLTEwLjE0Niw1Ljg4MTQgLTYuOTEzMiwzLjkyOTcgLTQuNzQ0LDIuNjc4OCAyLjIxNCwtMS4yNzY4IDQuNDI3OCwtMi41NTQyIDYuNjU1NywtMy44MDY3IDEuOTI2MiwtMS4wODMgLTMuODMzOSwyLjE5ODcgLTUuNzUwOCwzLjI5OCAyLjY0OTksLTIuMjI1OCA1LjU1ODIsLTMuMjMwOSA4LjQ1MjIsLTQuNjkxNSAtMC4yNzQwNCwwLjA4NTQgMS4wODY2LC0wLjYyMTI1IDAuODE1NzcsLTAuNDY0NDYgLTEuNzk3MSwxLjA0MDUgLTcuMjE0OCw0LjExNTggLTUuNDE3OCwzLjA3NTMgMC43NzAzMSwtMC40NDYgMTUuNjUxLC04Ljk4NzQgMC43Mjg2LC0wLjQyMTE5IDAuNjg3MDgsLTAuNDAwNzIgMS4zMTIyLC0wLjg5MjE3IDEuOTY5MywtMS4zMzkxIDAuNTg3NzYsLTAuNTg5MjYgMS4xODc4LC0xLjE1MjQgMS44MDk3LC0xLjcwMzkgMC42MTIyNCwtMC42MjkyMiAxLjE3NzQsLTEuMjkzIDEuNzE0MiwtMS45ODc4IDAuNjA2NDcsLTAuNzQxODUgMS4xODQ0LC0xLjQ5MDYgMS43MTA5LC0yLjI5MTkgMC41NTU3MywtMC45Mjc0MyAxLjA0NzQsLTEuODgzNCAxLjQ5NzQsLTIuODY1OCAwLjMxMTEsLTAuODA2MyAwLjg2OTg0LC0xLjQ3NDggMS4yNTMxLC0yLjI0MDIgMC4yOTg4NCwtMC42Nzk2IDAuNjA5MywtMS4zNTI4IDAuOTI0NDksLTIuMDI0OSAwLjI0NzM1LC0wLjc4ODAxIDAuNTg5MTYsLTEuNTM3MSAwLjkyMDQzLC0yLjI5MTYgMC4zNzMyOSwtMC44ODI1MSAwLjg4Mzc3LC0xLjY5ODQgMS4zNDk3LC0yLjUzMzkgMC40Mjg2OSwtMC44MjcwMSAwLjk0MTU4LC0xLjU5NyAxLjQzMzYsLTIuMzg1NCAwLjQzMzE2LC0wLjcxMjYzIDAuODA2NTUsLTEuNDUzNSAxLjI3NDMsLTIuMTQ0NCAwLjQ1NjY5LC0wLjc2ODAzIDAuOTMxMzYsLTEuNTI4OCAxLjUyNDksLTIuMTk4OCAwLjU5MjIzLC0wLjU5NDA1IDEuMDIyMiwtMS4zMjIyIDEuNTEzLC0xLjk5NzYgMC40NzE3NywtMC42MTEyNSAxLjA0NDQsLTEuMTMxMSAxLjU1NjMsLTEuNzA1MyAwLjM2NzA2LC0wLjYyMjUgMC45NTMyMiwtMS4wNDcxIDEuNDY0NiwtMS41Mzg3IDAuNTczNzIsLTAuNDg3NDcgMS4xMjAyLC0xLjAwNDIgMS42NjcyLC0xLjUyMTYgMC40MTI5MywtMC40NTc2OSAwLjcyOTMsLTAuOTkwMzIgMS4xMTY2LC0xLjQ2OSBsIDYuNjQ3MSwtMi44NzEzIGMgLTAuMzUyNTEsMC41MjQzMyAtMC44MTE1MiwwLjk2OTI0IC0xLjA5MTIsMS41NDQ0IC0wLjQ4Mzk1LDAuNTk4NjggLTEuMDg5NSwxLjA2MjkgLTEuNjIyMiwxLjYwODggLTAuNTU4NDUsMC4zOTI5IC0xLjA0MDgsMC45MDA3NiAtMS41NDYyLDEuMzUzNiAtMC4zODA3MywwLjcxMzQ2IC0xLjA0NTcsMS4xNTEyIC0xLjUzMjksMS43ODUzIC0wLjYxNTc2LDAuNTg3OTkgLTAuOTY3MjYsMS4zNzggLTEuNDk2MSwyLjAzNzIgLTAuNjQ2NjQsMC41OTYzOCAtMS4xNDE2LDEuMjg2IC0xLjYwNDYsMi4wMzI1IC0wLjE5MDM5LDAuMzk1MjYgLTAuNDcwNjcsMC42NTk4MiAtMC42NzA3NiwxLjAzODQgLTAuMTk0NjUsMC4zNjgyOSAtMC4yOTM1MywwLjc4ODIgLTAuNjA2MTgsMS4wOTE2IC0wLjQwODI1LDAuODU0MzUgLTEuMDY4NSwxLjU0MjIgLTEuNDMxOCwyLjQyNDYgLTAuNTE4MjMsMC43Njg0NCAtMC44ODc0NiwxLjYyOTYgLTEuMzg1OSwyLjQxMiAtMC4yNzU4MiwwLjc3OTk5IC0wLjcyNTE5LDEuNDgzMSAtMC45MTAwMywyLjI5MDkgLTAuMjM5OTEsMC43MDQ2MiAtMC42MDkwMSwxLjM1NzggLTAuOTI3OTEsMi4wMjc3IC0wLjI3MzYsMC44NTEwNyAtMC44MjgyLDEuNSAtMS4yNjYxLDIuMjY5IC0wLjQxODUzLDEuMDA5MyAtMC44OTMxMywxLjk4ODUgLTEuNDU5NywyLjkyMyAtMC40MTAzMywwLjg4MjQ3IC0xLjAxMzcsMS42NjExIC0xLjY4MzgsMi4zNjY2IC0wLjQ3NjUzLDAuNzM4MTQgLTEuMDIxOCwxLjQ0OCAtMS42NjQ3LDIuMDQ3NSAtMC4yNjc2NCwwLjM4NzI4IC0wLjUwMzEzLDAuNTM5MzIgLTAuODY3MTIsMC44MTgwNiAtMC40MDY4OCwwLjMxMTU5IC0wLjIzNzgyLDAuMjY1NTMgLTAuNTkxNzYsMC42NTIyMiAtMC4xMDE5NCwwLjExMTM3IC0wLjIyMTQ2LDAuMjA1MjcgLTAuMzMyMTksMC4zMDc5IC0wLjUwMDQ5LDAuNjEyNDQgLTEuMjg1MSwwLjk4NTY3IC0xLjkxNDQsMS40NTk2IC0yMS43NjcsMTIuNjM1IDQuMDI4MiwtMi4zNTQ5IC0xLjExNjIsMC42NTcxOCAtMi4xODYyLDEuMjggLTQuMzczOCwyLjU1NzUgLTYuNTYzLDMuODMyMyAtMC4zOTQ1OCwwLjIyOTc1IC0wLjQzODE3LDAuMjQyOTUgLTAuODQ0NzksMC40NDQ1NiAtMi41MDYzLDEuMTA0MyAtNi42MDMyLDMuOTY2IDMuOTM3NSwtMi40MDk4IC03LjI3NTgsNC4xOTc3IC05Ljg2NDYsNS43MDA0IC0wLjkxNzg0LDAuNTA1NzcgMC4zMjY2OCwtMC4xODk2OCAtMC42MjYxOCwwLjQyMzcxIC0wLjk1MjE0LDAuNjE0NjUgLTMuODkxNiwyLjI3OTYgLTQuNjEzNSwyLjY4NjMgLTcuMDk0Nyw0LjA5MDIgLTAuNzk1NjQsMC40MDYwNCAtMS42MzEzLDAuNzI0OTEgLTIuNDE4NSwxLjE0ODEgLTAuOTQyNjgsMC4zOTY2MyAtMS44NjI2LDAuODUwOTIgLTIuODQ2NSwxLjE0MyAtMS4zNzA4LDAuNDQzNSAtMi43MzA1LDAuOTIxMDUgLTQuMDk4NCwxLjM3MzEgbCA1LjcyODUsLTQuNDEwNyB6IiBzdHlsZT0ib3BhY2l0eTowLjc5OTI2MDA0O2ZpbGw6IzlhOGQ4MCIgaWQ9InBhdGg0MDY0Ii8+JiN4YTsgICAgICAgIDxwYXRoIGQ9Im0gMjE5LjA4LDg1NC4wOSBjIDEuNzY0OSwwLjAzMjYgMy41MzAzLDAuMDIxNSA1LjI5NTUsMC4wMTU3IDEuMzgyNywwLjEyMDcxIDIuNjk0OSwtMC4xOTY1MiA0LjAyNTYsLTAuNTA0MzQgMS4zNzA1LC0wLjIyODAyIDIuNjY2OCwtMC43MTUzMiAzLjk5NTMsLTEuMDk5NSAxLjE1NDIsLTAuMTU2MTcgMi4wNjkzLC0wLjg3Mzg1IDMuMDk3MiwtMS4zNDUgMC44MTcxLC0wLjI5OTgxIDEuNTgwOSwtMC43MTE0OSAyLjM2MTYsLTEuMDg4NCAwLjEyMzU1LC0wLjA0MSAwLjI1Mzg3LC0wLjA2NTQgMC4zNzA2NiwtMC4xMjI4OSAwLjkxNzE5LC0wLjQ1MTQgLTAuMzM5ODUsMC4wMjc1IDAuNjIxMTEsLTAuMzY2MTEgMC4zNzI4OSwtMC4xNTI3NSAwLjc2MDYsLTAuMjEwMTkgMS4xMzU2LC0wLjM2Mjk3IDAuODk4NTMsLTAuMjg0MDUgMS44NDAyLC0wLjM3NzQ4IDIuNjc4MywtMC44MjgwMiAwLjEzMzk1LC0wLjA2MTIgMC41MjkzOSwtMC4yNTczNyAwLjQwMTg1LC0wLjE4MzcxIC0xLjgzMjYsMS4wNTg0IC03LjM1ODksNC4xODM2IC01LjUyNDgsMy4xMjc5IDIuMTc4MywtMS4yNTM5IDQuMzQ1OCwtMi41MjcgNi41NDE1LC0zLjc1MDIgMC41MTIxMSwtMC4xNDcyOCAwLjI3NjQ3LC0wLjA0MjIgMC43MTA4NSwtMC4zMDYxOCAwLjMzMjk0LC0wLjIzMDgxIDAuNzUxMjksLTAuMjIwODcgMS4xMTY1LC0wLjM0NzQ3IDAuMzU5NzUsLTAuMTI0NzEgMC42NzQ3MiwtMC40MjAyNCAxLjAwODcsLTAuNjAxMjUgMS4wOTgyLC0wLjQzMzMzIDIuMTczLC0wLjkxOTgyIDMuMjY2OCwtMS4zNjI4IDEuMDc3NywtMC42MTUzNSAyLjIxNzEsLTEuMTI1NyAzLjI4ODQsLTEuNzQ2NiAtMTMuMTk2LDcuNTY3IC0xLjI3OTUsMC43MzU4MSAxLjAzNzgsLTAuNjAyNyAxLjg4NTQsLTEuMDg5MSAtNy41MjgxLDQuMzc4OCAtNS42NjUxLDMuMjUxOCAyLjYwNiwtMS41NzY1IDUuMTQ1LC0yLjkxMTIgNy42OTY1LC00LjQzMTYgMy4wNTksLTEuNzU5NCAtNC45MDgzLDIuODIzIC00LjkxNzksMi44Mjg0IC0wLjIxMzcyLDAuMTIxMDIgMC40MTE1OSwtMC4yNjgxMyAwLjYxOTEsLTAuMzk5NTIgMC41ODkyOSwtMC4zNzMxMyAxLjE4OSwtMC43Mjk2MyAxLjc4MzIsLTEuMDk0NyAyLjQwMzIsLTEuNjEyMyA0Ljk2MTMsLTIuODczNyA3LjQ2NjUsLTQuMzkyMyAxLjkxNDgsLTEuMTYwNyAtMy44NzcxLDIuMjQxMSAtNS44MjI2LDMuMzQ5NSAtMC4yMDQzMywwLjExNjQxIDAuMzgwNDQsLTAuMjc4OTggMC41NDk1LC0wLjQ0MjQ0IDAuNTQ1NzcsLTAuNzMxODkgMC45Mzc1OCwtMS41NTYgMS40MTUzLC0yLjMzMjggMC40NjY1NywtMC45MDg0MyAxLjAyOCwtMS43NjUgMS40ODQxLC0yLjY3ODMgMC40MTYwOSwtMC43MTc1MSAwLjY2NzM0LC0xLjUwMjIgMC45ODMyNywtMi4yNjMxIDAuMzQ3LC0wLjcwMjM3IDAuNzQyNSwtMS4zNzY3IDEuMDQ4NCwtMi4xMDA5IDAuMzY3MDUsLTAuNzQ4OCAwLjYyNjYzLC0xLjUxODcgMC44Mjg1LC0yLjMyNTUgMC4yMTEzOCwtMC43MzA0MSAwLjYwNDcyLC0xLjM3NzUgMC44NjgxNiwtMi4wODg3IDAuMzgwNDksLTAuNzAyNTUgMC41MzI0OSwtMS40NjQ4IDAuNjE5LC0yLjI0OTggMC4xMzE5NiwtMC44Mjg1NyAwLjM0ODgsLTEuNjM1NCAwLjQ1MjMyLC0yLjQ2OTcgMC4wNDI3LC0xLjA3NzUgMC4yMjg1NCwtMi4xMzc4IDAuMzgwOTcsLTMuMjAzIDAuMDEyLC0wLjcyOTIgMC40NDk3MiwtMS43NjkzIC0wLjEwOTcsLTIuMzc3IC0wLjU0NDQ5LC0wLjA2NDYgLTEuMDUyLDAuMjczMTUgLTEuNDkwOCwwLjU2MDU2IDEwLjcxNSwtNS44Njk4IDYuODMxNywtNC4yNjc1IDQuODk1NSwtMi42NTI2IC0wLjU1ODYzLDAuNDY1OTEgLTEuMDgxOSwwLjk3NTM4IC0xLjYyMjMsMS40NjIgLTAuOTA1NTgsMC42OTYzNiAtMS41MDc2LDEuNjQ4IC0yLjEzODksMi41NzcgLTAuNTA5OTEsMC43NzQ2NCAtMS4wNjE3LDEuNTIxIC0xLjU4MjgsMi4yODc1IC0wLjQ3MTI2LDAuNzM1NjQgLTAuOTIwMjcsMS40ODQyIC0xLjM2NjksMi4yMzUyIC0wLjYwNzI0LDEuMDYwMiAtMS4yMTg4LDIuMTIxOCAtMS44Njk0LDMuMTU2NCAtMC41MzY5MywwLjcwNTY3IC0wLjkyMTgxLDEuNTA2MyAtMS4yOTQzLDIuMzA2NCAtMC4yNDk5LDAuNjk3MTUgLTAuNzA2ODgsMS4yODE0IC0xLjA1NjIsMS45MjU2IC0wLjQ0MDk5LDAuNzE3NDYgLTAuODEyMjMsMS40NzMzIC0xLjIzODIsMi4yMDEyIC0wLjUwMTM3LDAuODExMzggLTEuMDI5MiwxLjYwNTcgLTEuNTE5MywyLjQyNDIgLTAuNDQ3MDIsMC42NzE2NiAtMC43NzU0LDEuNDEwMyAtMS4yNDg4LDIuMDY0OSAtMC40MTI1LDAuNzYzODkgLTAuOTQ4MjIsMS40MDU3IC0xLjYwNDgsMS45NzA4IC0wLjc1MiwwLjYyNzgxIC0xLjU2ODcsMS4xNzE2IC0yLjMxNzYsMS44MDI4IC0yLjUyMjksMS44NTE1IC01LjMyNjksMy4yODgyIC04LjAyNjQsNC44NjA1IDAuMjMwMTIsLTAuMDYwNSAtMC45NzczLDAuNDk4MSAtMC43NDAyOCwwLjM1OTg4IDEuOTM5MSwtMS4xMzA5IDcuNzQ0NiwtNC41NDA3IDUuODQ2MSwtMy4zNDI4IC0yLjEyOTMsMS4zNDM0IC00LjM3MzcsMi40OTU1IC02LjUzOTEsMy43ODAxIC0xLjkzOTIsMS4xNTA0IDMuODk5NywtMi4yNjQ5IDUuODYwOCwtMy4zNzc3IDAuMTExMTQsLTAuMDYzMSAtMC4yMDU4LDAuMTUxNTQgLTAuMzA4NywwLjIyNzMxIC0yMS43NywxMi41MjMgNC4wNTIyLC0yLjI2MjUgLTAuOTQwMTksMC42MDAyMSAtMi4xNzY1LDEuMjQ4IC00LjMzNTksMi41MjczIC02LjU0MjUsMy43MjE0IC0xLjk5MjYsMS4wNzgzIDcuODMsLTQuNTYxNiA1LjkwMDUsLTMuMzc0IC0yLjEzMjksMS4zMTI4IC00LjM0MDcsMi40OTk5IC02LjUxMSwzLjc0OTggLTAuMTE5OTUsMC4wNDA1IC0wLjI0NjgyLDAuMDY0NSAtMC4zNTk4NSwwLjEyMTU0IC0wLjIxMjQzLDAuMTA3MTYgLTAuODE4MywwLjQ4NTg3IC0wLjYxMjQ1LDAuMzY2NTcgMS44NjM3LC0xLjA4MDEgNy40ODAzLC00LjI3NiA1LjYxOTYsLTMuMTkwNyAtMi4xNjQ0LDEuMjYyNiAtNC4zNCwyLjUwNjEgLTYuNTA5OSwzLjc1OTIgMS45NjcsLTEuMTMxMSAzLjkzMDIsLTIuMjY4OSA1LjkwMTEsLTMuMzkzMyAwLjEwMzU3LC0wLjA1OTEgLTAuMTk0OTUsMC4xMzc5OCAtMC4yOTg0NywwLjE5NzE2IC0yLjE3NjcsMS4yNDQzIC00LjMyODMsMi41MzQ3IC02LjU0MTUsMy43MTI5IC0yLjAwMTQsMS4wNjU0IDcuODM2NiwtNC41NjI4IDUuOTA1NywtMy4zNzQ0IC0yLjEzMjUsMS4zMTI1IC00LjMzNTEsMi41MDc2IC02LjUxMSwzLjc0NjkgLTEuOTczNSwxLjEyNDEgMy45MzYsLTIuMjY3NSA1LjkwNCwtMy40MDEyIC0wLjA5NDksMC4wNjk2IC0wLjE4MzE2LDAuMTQ5MyAtMC4yODQ3NSwwLjIwODcxIC0yLjI3NzIsMS4zMzE4IC00LjQ3OTUsMi44MDcxIC02Ljg1MjcsMy45NTkyIC0wLjM5OTg1LDAuMTk0MTEgLTAuNzk5ODcsMC4yNzkzNyAtMS4xODc0LDAuNTAyNDIgLTAuMTQ3OTcsMC4wNTA0IC0wLjMwMTg3LDAuMDg2IC0wLjQ0MzkxLDAuMTUxMjQgLTAuMjczMjYsMC4xMjU2MSAtMS4wNTU5LDAuNTc2MjcgLTAuNzk1NTgsMC40MjU1OCAxLjgyMjUsLTEuMDU1MSA3LjMxODksLTQuMTY5NyA1LjQ5NDcsLTMuMTE3NiAtMi4xODAzLDEuMjU3NCAtNC4zNjcxLDIuNTAzNCAtNi41NTA3LDMuNzU1MSAtMC43NzM2MiwwLjM1MTM3IC0xLjU3MSwwLjc2OTQ0IC0yLjM3OTYsMS4wMzEgLTAuMTQwMzEsMC4wMzEzIC0wLjI4NTQxLDAuMDQ2IC0wLjQyMDk0LDAuMDkzOSAtMC4xMjExOSwwLjA0MjkgLTAuMjI4NjMsMC4xMTc2IC0wLjM0Mjk1LDAuMTc2NCAtMC4xMTk2NCwwLjA0NzcgLTAuNDcwNDIsMC4yMDc1MSAtMC4zNTg5MiwwLjE0MzA0IDEuODU3MSwtMS4wNzM5IDcuNDY1MiwtNC4yMzE2IDUuNjAwMSwtMy4xNzE1IC0yLjE3OTYsMS4yMzg5IC00LjM2MDYsMi40NzUxIC02LjU0MDksMy43MTI3IC0wLjczNDY4LDAuMjUzNzYgLTEuNDQyNCwwLjU5NDY1IC0yLjE4MDksMC44NjM0MyAtMC40MzI1OCwwLjQwMzkyIC0xLjAwNTgsMC40NzM4NCAtMS41MjcyLDAuNjc3NDYgLTAuMjQxNDcsMC4wOTQzIC0wLjQ2MSwwLjIzODQ0IC0wLjY5OTkyLDAuMzM5MDQgLTIuNDczNywxLjAzMzIgLTYuOTY5OSwzLjg2MDIgNC4xNzI4LC0yLjUzMTIgLTAuMjQxNTYsMC4yMzc0OSAtMC42NDQ2OSwtMC41NTI4MyAtMC40MDU4NiwtMC42NzI2MSAwLjA4NzksLTAuMDQ0MSAwLjE5Nzk2LC0wLjAwOSAwLjI5MzAyLC0wLjAzNCAwLjEyMzY4LC0wLjAzMjcgMC4yMzg3MiwtMC4wOTIxIDAuMzU4MDgsLTAuMTM4MTIgMC45OTgxNCwtMC4zMTI1OSAxLjk3MTgsLTAuNzMyOTEgMi45MDA2LC0xLjIxNiAwLjcyMTQxLC0wLjQ3NjU2IDEuNTc3MSwtMC42NjAwMyAyLjM1MTYsLTEuMDE3IDAuMzc0MDYsLTAuMTcyNDEgMC43MjY4OSwtMC4zODc4NiAxLjA5NjIsLTAuNTcwMTkgMS4zODA0LC0wLjcwMTc4IDIuNzM0NywtMS40NTM4IDQuMDk4NCwtMi4xODkyIDIuODI3NSwtMS42NTY2IC0wLjY4ODQyLDAuNDA2NzIgLTQuNTY3NSwyLjYwNzcgLTAuMjM0NjYsMC4xMzMxNCAwLjQ2MTgyLC0wLjI3OTExIDAuNjkwMzgsLTAuNDIyNDcgMC4zNzIwNCwtMC4yMzMzNyAwLjcyMDUxLC0wLjUwMzk3IDEuMDk5MSwtMC43MjY1IDIuMjA0OSwtMS4yOTU5IDQuNDIzNCwtMi41Njg2IDYuNjM1MiwtMy44NTMgLTEuOTE5MywxLjEwNDQgLTMuODM0NSwyLjIxNiAtNS43NTgsMy4zMTMxIC0wLjEyNzU1LDAuMDcyOCAwLjI0MjIzLC0wLjE2NjY1IDAuMzY5NiwtMC4yMzk3MiAyLjE4NjYsLTEuMjU0NCA0LjM1ODYsLTIuNTM1NiA2LjU3MTksLTMuNzQyMyAxLjk3OTYsLTEuMDc5NCAtNy43OTc4LDQuNTMwNCAtNS44NzA3LDMuMzYgNi4wNjg4LC0zLjY4NTggNC4xMTgyLC0zLjE2NDggNi45NTA1LC0zLjg1OTggMi40OTEyLC0xLjIzMzQgNi43Mjc1LC0zLjcyMjcgLTQuMDQ5NSwyLjQzMTEgMi4zMzUxLC0zLjc3OCA0Ljk3ODksLTIuODI0MiA3LjY1NDQsLTQuMjMxOCAwLjI0NDYsLTAuMTI4NjcgMC40NjQ0MiwtMC4zMDEwNCAwLjcwODU3LC0wLjQzMDU1IDAuODEzMDQsLTAuMzM4NjMgMS42MTQxLC0wLjY3OTE4IDIuNDE3OCwtMS4wMzUxIDAuNzM5OSwtMC4yNTQ3MiAxLjU1NTIsLTAuNDI2NTIgMi4yMjE1LC0wLjg0NzYzIDAuNjQzMzMsLTAuMzMwMDYgMS4zNzM4LC0wLjU0MTYxIDEuOTY0NSwtMC45NjEzMSAwLjEwNzc1LC0wLjA1MzggMC40Mjc0NywtMC4yMjE3NiAwLjMyMzI1LC0wLjE2MTQgLTEuOTY1MywxLjEzODEgLTMuOTMxOSwyLjI3NDEgLTUuOTA3LDMuMzk1MSAtMC4xMDIyMiwwLjA1OCAwLjE4NTE1LC0wLjE0NjA2IDAuMjg2NjYsLTAuMjA1MyAyLjE2NDIsLTEuMjYzIDQuMzYzMiwtMi40NjY3IDYuNTA5LC0zLjc2MDYgMS45NDMxLC0xLjE3MTggLTMuOTI5OSwyLjI2OTUgLTUuOTAwOCwzLjM5MzkgLTAuMTAzNTcsMC4wNTkxIDAuMTk4NzQsLTAuMTMxODQgMC4yOTgxMSwtMC4xOTc3NiAxNy42NzYsLTEwLjA4MSAwLjQzMDgzLC0wLjIxMzQ5IDAuNjM1MTksLTAuMzM5NDggMi4xMzE2LC0xLjMxNCA0LjMyODYsLTIuNTE5IDYuNTEwNCwtMy43NDc4IDAuMTEwMDQsLTAuMDYyIDAuMjQ2MjYsLTAuMDY0MiAwLjM1OTAxLC0wLjEyMTEzIDAuMTA1NCwtMC4wNTMyIDAuMzkwOTQsLTAuMjY0MjIgMC4yODgzNywtMC4yMDU3MyAtMS45NzYzLDEuMTI3MSAtMy45NDA3LDIuMjc0OSAtNS45MTExLDMuNDEyNCAwLjUxMTA5LC0wLjQ3ODA0IDEuMDE5NCwtMC45Mzg2NiAxLjU1OTksLTEuMzgyMiAwLjU5MTM3LC0wLjM1NzQ0IDAuOTQ2ODEsLTAuOTYxMDEgMS4zOTIsLTEuNDY5NCAwLjQ1NTA4LC0wLjY0MzIyIDAuODE4MTgsLTEuMzUzNiAxLjE5MTksLTIuMDQ3NiAwLjMxMDA0LC0wLjcxMTU1IDAuNTYzNzMsLTEuNDQ5IDAuOTA0MzEsLTIuMTQ2OCAwLjM4ODUsLTAuNjY4NjkgMC43OTIxNSwtMS4zMjE1IDEuMTAyOSwtMi4wMzM0IDAuMjgwNTUsLTAuNzQxNSAwLjY1NjQyLC0xLjQ0MTEgMS4xNTQsLTIuMDU4NSAwLjQzMjU2LC0wLjU1MDggMC45OTU2NCwtMC45NjA1MyAxLjQ5MDQsLTEuNDU1OSAtMC4xODgzNywwLjA3NzMgMC4xNzQ2MiwtMC4yNDY1MiAwLjIxNDQ1LC0wLjE2NTQ5IDAuMDYzOSwwLjEzMDA4IDAuMDA5LDAuNDcxMzMgMC4xNDA1OCwwLjQxMTQ3IDEwLjY3OSwtNC44NDI4IDcuNjY4NiwtNC40NTk0IDUuNTc2OSwtMi44NTM4IC0wLjgyMzg1LDAuNzA1MDMgLTEuNTUxMiwxLjUwNyAtMi4yODU2LDIuMzAyNiAtMC43NjMzNywwLjY4OTkzIC0xLjM3NjUsMS40OTY1IC0xLjk2MjMsMi4zMzY0IC0wLjQ3NTY5LDAuNzQ2MDkgLTEuMDQ0NCwxLjQyMzcgLTEuNTY4OSwyLjEzNDMgLTAuNDkzNTUsMC43NDA4OSAtMS4wNTc5LDEuNDA3OCAtMS40NTI4LDIuMjA5MyAtMC40Mjg4NywwLjgxODM1IC0wLjg2NzIyLDEuNjI5NSAtMS4zNDg1LDIuNDE4MiAtMC4zOTM4NywwLjc5NjUyIC0wLjg0MjczLDEuNTU1NSAtMS4zNDc4LDIuMjg1MyAtMC40ODY3NCwwLjUzOTQ1IC0xLjA4NTYsMC45NzY5OCAtMS42NjY4LDEuNDExOSAtMi4zNTk3LDEuNzM1MiAtNS4wMjE1LDIuOTY0IC03LjUzOCw0LjQ4MjEgLTEuOTMxMSwxLjE2NSAzLjkwNzQsLTIuMjUzNiA1Ljg2NTksLTMuMzcyIDAuMTEwNTMsLTAuMDYzMSAtMC4yMTQ0NSwwLjEzNzE3IC0wLjMyMTY3LDAuMjA1NzYgLTIuMzQ4NiwxLjM4NzIgLTMuNTQzMiwyLjA5NDUgLTYuOTE1LDMuOTk0IC0wLjEzMDA4LDAuMDczMyAtMC4yODc2NywwLjA4NDcgLTAuNDIyMywwLjE0OTI3IC0wLjM4NzYsMC4xODU4MyAtMC43MDE0OCwwLjM5Mjk1IC0xLjExNjEsMC41MzQxMyAtMC4xMjkwNSwwLjA2MzQgLTAuMjU1MTgsMC4xMzMyMSAtMC4zODcxNiwwLjE5MDMyIC0wLjk4MDc0LDAuNDI0MzcgMC4wOTgyLC0wLjEyMjgzIC0wLjc4MDQ0LDAuMzk3ODIgLTAuMTIwOTcsMC4wNzE3IC0wLjQ5NTU5LDAuMjY1NzYgLTAuMzczODQsMC4xOTU0MyA2LjEzNjksLTMuNTQ1MiA3LjY5MTYsLTQuNjUzNSA1LjU0MzYsLTMuMTQyMSAtMi43NTY4LDIuODUyNSAtNS4zOCwzLjExNjcgLTguMzEzNyw0LjUyMTcgMTIuMzgzLC03LjMyNzIgMi4yMzQsLTAuODM5MjggLTIuMTQ5MiwxLjE0ODQgMS45NjQyLC0xLjEyMyAzLjkyNDgsLTIuMjUyNCA1Ljg5MjcsLTMuMzY5MSAwLjEwNTgxLC0wLjA2IC0wLjIwMDU4LDAuMTM4MjEgLTAuMzA2MDEsMC4xOTg5MiAtMi4xNzM2LDEuMjUxNSAtNC4zNDQ0LDIuNTA3OSAtNi41MzA1LDMuNzM3NCAtMS45NzU3LDEuMTExMiAzLjkzMDEsLTIuMjU5OSA1Ljg5OTMsLTMuMzgyNCAwLjEwNDMyLC0wLjA1OTUgLTAuMTk5ODMsMC4xMzM2IC0wLjMwNDIsMC4xOTI5OSAtMi4xNzk1LDEuMjQwMSAtNC4zNjQ3LDIuNDcwMiAtNi41NDcxLDMuNzA1MiBsIDUuNjY3NiwtNC41MDM5IGMgLTEuOTU5NywxLjEzMjUgLTMuOTIxMywyLjI2MTYgLTUuODc5LDMuMzk3NSAtMC4xMDI2LDAuMDU5NSAwLjIxMDc0LC0wLjEwOTEyIDAuMzEzNDcsLTAuMTY4NDEgMi4xNjksLTEuMjUxOCA0LjMyNjIsLTIuNTIzOCA2LjUwMTQsLTMuNzY0NiAxLjk2NSwtMS4xMjA5IC0zLjkxMjgsMi4yNzE4IC01Ljg3MDgsMy40MDQ5IC0wLjEwNDgyLDAuMDYwNyAwLjIwNzQ5LC0wLjEyNDk1IDAuMzExMjMsLTAuMTg3NDIgbCA2LjUxMDEsLTMuNzcwNyBjIDYuNjQ1LC0zLjM0NSAtMTkuMDk5LDEwLjgyNyAyLjE2MjQsLTEuMTI0NiAyLjU2ODgsLTEuMDAzMiA2LjYwNTMsLTMuNjYxIC00LjA5NDYsMi42MDU5IDIuNjk5OSwtMS43NTkzIDUuNDM3NSwtMy41MTU4IDguNDE0OCwtNC43NjAzIDAuMzY3ODgsLTAuMTgxNTYgMC43MzUxOCwtMC4zNjE4MiAxLjEwMzQsLTAuNTQyMDQgMC4xMjk0OCwtMC4wNjM0IDAuNTA2ODcsLTAuMjc0NzMgMC4zODIzOCwtMC4yMDIwNCAtNi4xODEyLDMuNjA5NiAtNy42NTM3LDQuNjA1OSAtNS40NjcxLDMuMTQyMSAyLjYzODMsLTEuNDEyIC0xLjU4NTksMC44NTM4NCA2Ljg0NjEsLTMuOTY2NSAxLjk1MjcsLTEuMTE2MyAtMy44ODQ2LDIuMjY4NyAtNS44MywzLjM5NzggLTAuNjkzNDYsMC40MDI0OCAxLjYzMTQsLTEuMTM2MSAxLjAwOTYsLTAuNjY5NzYgMC41NzE4OSwtMC40MzQ0OSAxLjExNDYsLTAuODkyMDQgMS43MjU3LC0xLjI2MyAwLjYyODMxLC0wLjU5Njc4IDEuMDUzMiwtMS40MDI3IDEuNDIwNCwtMi4xNzg5IDAuNDQ2NTIsLTAuNzk5MDggMC45NjI2OCwtMS41NTcgMS4zMzgyLC0yLjM5NTIgMC4yMzY0NCwtMC4zODA5OCAwLjM1NzM1LC0wLjc5Nzc1IDAuNTk5NjEsLTEuMTc1NCAwLjQxNzQ0LC0wLjY1MDcxIDAuMTE0NDQsLTAuMDk2OSAwLjU4MTkzLC0wLjY5MjQxIDAuMDk2MSwtMC4xMjI0OCAwLjE2OTQ0LC0wLjI2MTMgMC4yNTQxNywtMC4zOTE5NiAwLjQ0Nzg0LC0wLjc3MjY4IDEuMDU5NiwtMS40MTcxIDEuNTgzMywtMi4xMzUzIDAuNTI5MjMsLTAuODkwMiAxLjEyMjYsLTEuNzg3MSAxLjkyNSwtMi40NTE2IDAuMzgzNDUsLTAuNDI1OTYgMC44MjU1MiwtMC44MjEyNiAxLjE5ODEsLTEuMjUwNSAwLjMzNDYyLC0wLjM4NTUxIDAuNTgxMjgsLTAuODE3ODUgMS4wNDQyLC0xLjA4NjkgMS43NzE0LC0yLjA4OTcgNC42NzE1LC0zLjAwMjEgNy4wODIzLC00LjA2MDYgMC4yMzMyMywtMC4xMDI0IDAuNDQyMjIsMC41OTUzNSAwLjQzMjI2LDAuNzU4MzUgLTAuMDA3LDAuMTEyMTggLTAuMDY0MywwLjIxNTM5IC0wLjA5NjQsMC4zMjMwOSAtMC40MDkwNCwwLjU5MDggLTAuODkzOSwxLjA1OCAtMS41MDQ0LDEuNDI4NiAtMC40Mzg5NCwwLjYxNDY2IC0wLjk3NTI4LDEuMTQ3OCAtMS4yNTIzLDEuODczIC0wLjIzNzM2LDAuNzM3ODkgLTAuNTUyNzMsMS40OTg2IC0xLjA2NTIsMi4wODYzIC0wLjMzMTMyLDAuNzAyNjIgLTAuNjg1MjcsMS4zOTcxIC0wLjkxNDI1LDIuMTQyMSAtMC4zMDgyMiwwLjc2NTU1IC0wLjgwNzY4LDEuNDIyMyAtMS4xMTY5LDIuMTkwMiAtMC4zOTk0MiwwLjU4MzMzIC0wLjg5MzE3LDEuMDk5OCAtMS4zMDk5LDEuNjY5OSAtMC42MDM4MSwwLjM1OTg3IC0xLjExNzksMC43OTM4NyAtMS41ODc0LDEuMzExNyAtMi4xNDM1LDEuMjg4OCAtNC4yNzk0LDIuNTkwNCAtNi40MzA1LDMuODY2NCAtMC4yMDgzNSwwLjEyMzYgLTAuODYxODUsMC40NDIwNCAtMC42NTIyOSwwLjMyMDQ4IDEuOTU5NCwtMS4xMzY2IDcuODgzMSwtNC40NjUgNS44ODI4LC0zLjQwMiAtMC45MDYzMSwwLjQ4MTYzIC0xNS41MzEsOC45NTY0IC0wLjYzNjYzLDAuMzM1NDggLTIuNDUzOCwxLjMzOTUgLTEuMzEwMywwLjcxMTU1IC02Ljc5NDUsMy45NTA3IC0xLjk1MTQsMS4xNTI1IDMuOTE0MywtMi4yODU0IDUuODc1MiwtMy40MjE1IDAuMTAwNDEsLTAuMDU4MiAtMC4xOTM0MiwwLjEyODQ2IC0wLjI5MzM5LDAuMTg3MzggLTYuMTY5NywzLjYzNjIgLTQuMzAzNiwyLjYwMDIgLTYuNzg3NSwzLjk3NDYgLTAuNjc1MTksMC4yODI3MSAtMS4zMTUzLDAuNjQwOTEgLTEuOTkwMywwLjkyNjA1IC0wLjc0ODI5LDAuMjU3NTggLTEuNDg5NSwwLjUzOTIxIC0yLjIyNDUsMC44MzAwNCAtMC43OTI0LDAuMzYzNzEgLTEuNjI2NSwwLjYzOTUyIC0yLjM4NDYsMS4wNzg2IC0yLjQyODQsMS4zNjEgLTcuMTkxNiwyLjkyODkgNC4wMjIxLC0yLjQ3NjYgLTIuNjcyLDEuNTMxNSAtNS40NTYyLDMuNDI4IC04LjM5Nyw0LjYyNjEgLTAuMTI0MTYsMC4wNjQ5IC0wLjQ5MzU2LDAuMjY1MjQgLTAuMzcyNDgsMC4xOTQ3NCAxLjk1MjMsLTEuMTM2NyA3Ljg1MjIsLTQuNDcwOCA1Ljg2NjUsLTMuMzkzNCAtMi4yMDc0LDEuMTk3NiAtNC4zMTU5LDIuNTcyOCAtNi41MzE5LDMuNzU0NCAtMS45Nzg2LDEuMDU1IDMuODgwMiwtMi4yNDg3IDUuODE5NCwtMy4zNzQ2IDAuMTI3ODYsLTAuMDc0MiAtMC4yNTc2OSwwLjE0NTAzIC0wLjM4NTMzLDAuMjE5NjQgLTIuMTkwOSwxLjI4MDUgLTQuMzgwMiwyLjU2MzggLTYuNTcwMiwzLjg0NTcgMS44ODk5LC0xLjEwMDQgMy43NzQyLC0yLjIxMDYgNS42Njk4LC0zLjMwMTEgMC4xODIyNywtMC4xMDQ4NyAtMC4zNTU4NiwwLjIyNDM3IC0wLjUyOTA5LDAuMzQzNTcgLTEuMDUxOSwwLjcyMzc4IC0wLjEwNTcxLDAuMTQ1ODIgLTEuMjk0MiwwLjg0MDU3IC0yLjI4NzUsMS4zMzcyIC00LjU3MzQsMi42NzcyIC02Ljg2MzcsNC4wMDk2IC0wLjI2NDkyLDAuMTU0MTMgLTAuNTM0NTcsMC4yOTk5OCAtMC44MDE4NiwwLjQ0OTk4IC0xLjM3NzUsMC43NTAxNSAtMi43NTE3LDEuNTA4NSAtNC4xNTk0LDIuMjAxIC0xLjE0LDAuNTU2NTggLTIuMzQxMSwwLjk3NTY0IC0zLjQ1NTcsMS41ODcxIC0wLjk3NjQzLDAuNDM1NjkgLTEuOTU5NSwwLjg2Njc3IC0yLjk5ODMsMS4xMzQyIC0wLjYzOTg1LDAuMTI2NjMgLTAuOTMxNTgsMC4yOTg4MiAtMS4yOTY2LC0wLjM4ODAzIC0wLjE5MDYyLC0wLjM1ODY2IC0wLjE0Mjg1LC0wLjMxOTA3IDAuMDIsLTAuNTc5IDIuNjk5NSwtMS41NTA5IDUuMzU0OSwtMy4zNjk4IDguMjY1OSwtNC41NTY5IDAuNzQ2MSwtMC4zMzA0MiAxLjUxMDUsLTAuNjE0NDMgMi4yMzU3LC0wLjk5MjE4IDAuNzIwMDgsLTAuMzAzNDggMS40NDYxLC0wLjU5MDkgMi4xNTc5LC0wLjkxMTYxIC0xLjk1OTgsMS4xMzIyIC0zLjkxOTUsMi4yNjQ0IC01Ljg3OTMsMy4zOTY1IC0wLjEwMzc4LDAuMDYgMC4yMDcwOSwtMC4xMjA3MyAwLjMxMTI0LC0wLjE4MDA0IDIuMTc4MSwtMS4yNDA0IDQuMzQ4OSwtMi40OTM1IDYuNTM1NCwtMy43MTkgMC4zNTAyMiwtMC4xOTYyOCAwLjc2NzY2LC0wLjIyNDAzIDEuMTI1NCwtMC40MDIzNCAwLjc4MzU3LC0wLjM1MjYzIDEuNTgxMSwtMC42NzM0IDIuMzMyMiwtMS4wOTQgLTEuOTQ1LDEuMTI4OCAtMy44ODg1LDIuMjYwMyAtNS44MzUyLDMuMzg2MyAtMC4xMTc2OSwwLjA2ODEgMC4yMzA2MywtMC4xNDQxMiAwLjM0ODE3LC0wLjIxMjQ0IDIuMTgwNiwtMS4yNjc0IDQuMzU5OSwtMi41MzcxIDYuNTQ2MiwtMy43OTQ1IDAuMzk4NjUsLTAuMjI5MjggMC44MzkzNywtMC4zNjUxMyAxLjI0NzEsLTAuNTc1NjMgMC40MDM1NCwtMC4xNTgzNyAwLjc4MjE1LC0wLjMzMDg2IDEuMTYzNCwtMC41MzczNSAwLjExODc2LC0wLjA2NDMgMC40NzI4NiwtMC4yNjExNiAwLjM1NjMsLTAuMTkyOTMgLTYuMjc1NCwzLjY3MzcgLTcuNzY5NCw0LjYzMjkgLTUuNTgxNCwzLjIzNjMgMi4xNTUyLC0xLjI3MSA0LjQyMTYsLTIuMzY5OSA2LjQ2NTYsLTMuODEyOSAxLjg1MDUsLTEuMzA2NCAtNy44ODQ2LDQuNDYyIC01Ljg4MywzLjQwMTYgMi4yMTI2LC0xLjE3MjEgNC4yOTk5LC0yLjU3MiA2LjUxNjIsLTMuNzM3MSAyLjAwNDIsLTEuMDUzNiAtMy45MjExLDIuMjY1MyAtNS44NzkyLDMuNDAyMiAtMC4xMDE0MywwLjA1ODkgMC4yMDYwOCwtMC4xMTIwNyAwLjMwOTEyLC0wLjE2ODEgbCA2LjQ4NjcsLTMuNzgwMyBjIC0xMi40NDYsNy4yNDc0IC0yLjM1NSwxLjI3ODMgMS44NTU2LC0xLjA2NTEgLTE1LjA3Niw4LjcyMDUgLTAuMDcwOCwwLjAzMjggMC42MzU5NSwtMC4zNDA5MiAxLjk5OTMsLTEuMDU3MyAtMy45MTUyLDIuMjY1MiAtNS44NzA5LDMuNDAxIC0wLjEwNDUsMC4wNjA3IDAuMjEyOSwtMC4xMTQ1MyAwLjMxNzI3LC0wLjE3NTQ1IDIuMTY0OSwtMS4yNjM2IDQuMzQyLC0yLjUwNjYgNi40OTA0LC0zLjc5OCAxLjkzNDYsLTEuMTYyOSAtMy44OTk0LDIuMjc1IC01Ljg0OTEsMy40MTI1IDIuMjA0OSwtMS40NTA4IDQuNjUxNSwtMi41MjI2IDYuODA0NCwtNC4wNDk1IDEuODMxNCwtMS4yOTg4IC03Ljc5OTEsNC40NTIyIC01LjgyOTUsMy4zNzQzIDIuMjEwNSwtMS4yMDk3IDQuMzY3MiwtMi41MTUzIDYuNTUyNSwtMy43NyAwLjIzODQ3LC0wLjEzNjkyIDAuNDgzOTUsLTAuMjYxNDEgMC43MjA0MSwtMC40MDE5MyAtMS45NTYzLDEuMTQ0IC0zLjkwOTEsMi4yOTM3IC01Ljg2ODgsMy40MzE5IC0wLjEwMTE5LDAuMDU4OCAwLjIwMjEsLTAuMTE5NjkgMC4yOTI5NCwtMC4xOTM0NSAwLjI5MjA0LC0wLjIzNzE0IDAuNTcyOSwtMC40ODU5OSAwLjg5NDM2LC0wLjY4ODk4IDAuMTEzMzQsLTAuMDcxNiAwLjI0MTMsLTAuMTE2NzkgMC4zNjE5NiwtMC4xNzUxOCAwLjc5NDQ3LC0wLjU3NDM2IDEuNTE4LC0xLjI0NTUgMi4zMzQ4LC0xLjc5NDMgMC42NDQ5MiwtMC40OTUxMyAxLjM1NTEsLTAuOTg2NjcgMS42NjQyLC0xLjc3MTIgMC40NDE3NSwtMC42Nzg3MiAwLjk0NTc3LC0xLjMwNzMgMS4yNzA1LC0yLjA2MiAwLjU2NTA0LC0wLjc2OTAxIDEuMDEyLC0xLjYyMDIgMS41MTU3LC0yLjQyNzIgMC41MTQzNiwtMC42NjU0IDAuODYwMiwtMS40MzMyIDEuMjI0NiwtMi4xODUyIDAuNDM2NTcsLTAuNTUxNTEgMC43MTAxMiwtMS4yMjUzIDEuMTIzMSwtMS43OTg4IDAuMjk5NDEsLTAuODY5MzUgMC43NTU5MSwtMS43MDA3IDEuMjQ5OSwtMi40NzE4IDAuMzgzMDksLTAuNDgxNzEgMC42MzM3MiwtMC45Nzk0MyAwLjk0MTYzLC0xLjUwOTEgMC4xMDc0OSwtMC4xODQ5IDAuMjI4MiwtMC4zNjE4IDAuMzQyMywtMC41NDI3IDAuMTE4MzMsLTAuMTY4MzcgMC4yNTEwNywtMC4zMjc0OCAwLjM1NDk4LC0wLjUwNTExIDAuMTAwMzUsLTAuMTcxNTYgMC4xNzA0LC0wLjM1OTEzIDAuMjU1NjEsLTAuNTM4NyAwLjQyMzczLC0wLjc1NTkgMC44MjY3OCwtMS41MzA0IDEuMzQ1MiwtMi4yMjQ2IDAuNDIxMTUsLTAuODU4NjggMS4xMzM3LC0xLjUxOTUgMS41NjEyLC0yLjM3OTIgMC43NDg2NywtMC44NzQ1MiAxLjE4MywtMS45OTk1IDIuMTEyOCwtMi43Mjk2IDMuMDQxMiwtMi40OTQxIDQuMzgwNCwtNC41OTYxIDkuMDMzNiwtNi4wMjUzIDAuNzM3MzIsLTAuMjY3ODEgMS40NjAxLC0wLjM2NzY4IDIuMDYwOSwwLjI1MTExIDAuNjMyODcsMC44OTAxNCAwLjQ5NjI5LDEuODYxIDAuMzU0MDYsMi44OTk0IC0wLjE0MDY2LDEuMDU3OCAtMC4zNzk0LDIuMTAyMyAtMC4zNzU2MSwzLjE3MzUgLTAuMDcxMSwwLjgzNDcyIC0wLjE4ODMzLDEuNjYyNyAtMC40NTgzLDIuNDU5OCAtMC4wNTY0LDAuODQwMjYgLTAuMTI1NTEsMS42OTggLTAuNTAwMDIsMi40NjcgLTAuMTk0MDEsMC4zNDMxNiAtMC4yNTMwMSwwLjY5ODAzIC0wLjQxNzYyLDEuMDU0IC0wLjA1MDMsMC4xMDg4MSAtMC4xMTQ3NiwwLjIxMDUxIC0wLjE3MjE0LDAuMzE1NzcgLTAuMDY0NywwLjA5MSAtMC4xNDQzLDAuMTczMTcgLTAuMTk0MDksMC4yNzMxNiAtMC4wNTgsMC4xMTYzOCAtMC4wODM5LDAuMjQ2MTMgLTAuMTI1ODMsMC4zNjkyIC0wLjMwOTc5LDAuNzcwMjMgLTAuMzAyOCwxLjY2MDIgLTAuODIyMzUsMi4zNTU3IC0wLjIzNTc4LDAuNzQ1NzMgLTAuNTUxNjcsMS40OTg5IC0xLjAyNzgsMi4xMjE5IC0wLjMxMjg3LDAuNzcxNzEgLTAuNTM1NTQsMS41ODEzIC0wLjk4OTk3LDIuMjg4NCAtMC4zODU3MiwwLjk3OTcgLTEuMDExOSwxLjgxODkgLTEuNDY1MiwyLjc2NDMgLTAuNDU3NTQsMC43OTUwNCAtMC45MTI5MiwxLjU3ODQgLTEuMzYwMSwyLjM2ODMgLTEuMjQxOSwyLjUwNjEgLTUuMTMzOCwzLjQxNSAtNi45ODU3LDQuNTEzIC0xLjkxMDksMS4xMzI5IDMuODM1MywtMi4yNDI5IDUuNzU5MSwtMy4zNTM5IDAuMzE0NjgsLTAuMTgxNzMgLTEuMzIwMywwLjgwOTUgLTAuODkyNTcsMC42MjU5IC0zLjI4ODEsMS44NzYzIC02LjM5NSw0LjA3MTkgLTkuNzg5Miw1Ljc3ODkgLTAuMTgzNjcsMC4xMDI0MSAtMC4zNjc1MiwwLjIwNDQ4IC0wLjU1MDk5LDAuMzA3MjMgLTAuMTczNzMsMC4wOTczIC0wLjY5Mjc5LDAuMzkyOTIgLTAuNTIwNjIsMC4yOTI5MSAxLjg5NCwtMS4xMDAxIDcuNTgxNCwtNC4zOTA4IDUuNjg2LC0zLjI5MzMgLTIyLjA0OCwxMi43NjYgMTQuMzUsLTguMzM0NCAtNy43MDAyLDQuNDYzMSAtMS4xMTE1LDAuNTU2MjQgLTIuMTc4MSwxLjIwMjggLTMuMzI1NywxLjY4NDMgLTEuMDg5NiwwLjQ2NjI3IC0yLjIwMDMsMC44OTQ3MyAtMy4yNDg1LDEuNDQ5OSAtMC42ODg1OSwwLjM4NzYzIC0xLjQ1ODYsMC41NDM5MiAtMi4xNTA4LDAuOTI3ODMgLTAuMjM4MjEsMC4wOTQxIC0wLjkyMjE4LDAuNDQzNzUgLTAuNzAxMDgsMC4zMTQ0NiAxMi41MzYsLTcuMzMwMyAyLjMwMjUsLTEuMTQ0MyAtMS40NDUsMC43NTQwNSAtMC44OTc5NywwLjI4NDQgLTEuODI0MSwwLjQ2NjI4IC0yLjcwNTEsMC44MDM2OCAtMC43Mjg0NywwLjIzNTI0IC0xLjM4OTYsMC42MDA1NCAtMi4wODI0LDAuOTIwODMgLTAuNzYzMTMsMC4zOTIwMyAtMS41NzE4LDAuNjk0MDMgLTIuMzQzOCwxLjA2OTQgLTEuMDExMywwLjUzMjY3IC0yLjAyODQsMS4wMiAtMy4xNjEyLDEuMjQyNiAtMS4zMjI5LDAuNDA4MzcgLTIuNjU0MSwwLjc4Mzg0IC00LjAxMzUsMS4wNTQ0IC0xLjM1MjksMC4zMDY4OSAtMi43MTE3LDAuNDQyMDkgLTQuMTAxMSwwLjM1OTI3IC0xLjc3OTUsLTAuMDA2IC0zLjU1OTMsLTAuMDE2NSAtNS4zMzg2LDAuMDE1NyBsIDUuODM1MywtNC4yMzk2IHoiIHN0eWxlPSJvcGFjaXR5OjAuNzk5MjYwMDQ7ZmlsbDojOWE4ZDgwIiBpZD0icGF0aDQwNzAiLz4mI3hhOyAgICAgICAgPGcgc3R5bGU9InN0cm9rZTojNWQyZTMxO3N0cm9rZS13aWR0aDo0LjQwMDAwMDEiIGlkPSJnNDAzMyI+JiN4YTsgICAgICAgICAgPHBhdGggZD0ibSAxOTYuODgsNzI2Ljk0IC0zNS43OTYsNDIuNjggMTAuMzI2LDI0Ljc4MiAtMzUuNzk2LC0xNy44OTggYyAtNDUuMjM5LDMwLjI4MSA2Ni41MTcsMTA4Ljc5IDExNy43MSw3Ny4wOTkgTCAyOTMuMjUsNzg2LjgzIGMgOS42MDMxLC00NS44NTggLTc4LjY0NCwtNzQuNDA2IC05Ni4zNzMsLTU5Ljg4OSB6IiBzdHlsZT0iZmlsbDpub25lO3N0cm9rZTojNWQyZTMxO3N0cm9rZS13aWR0aDo0LjQwMDAwMDEiIGlkPSJwYXRoNDAyNyIvPiYjeGE7ICAgICAgICAgIDxwYXRoIGQ9Im0gMTM2LjMsNzc2LjUxIDQ4Ljg3NSwtNDUuNDMzIDYuMTk1NCwyLjA2NTEiIHN0eWxlPSJmaWxsOm5vbmU7c3Ryb2tlOiM1ZDJlMzE7c3Ryb2tlLXdpZHRoOjQuNDAwMDAwMSIgaWQ9InBhdGg0MDI5Ii8+JiN4YTsgICAgICAgICAgPHBhdGggZD0ibSAyNTUuNzYsODQ4LjUzIGMgMTAuODgsLTMzLjc3IC00Ny4xLC03Ny4wNyAtOTMuOTksLTc4LjIyIiBzdHlsZT0iZmlsbDpub25lO3N0cm9rZTojNWQyZTMxO3N0cm9rZS13aWR0aDo0LjQwMDAwMDEiIGlkPSJwYXRoNDAzMSIvPiYjeGE7ICAgICAgICA8L2c+JiN4YTsgICAgICAgIDxwYXRoIHN0eWxlPSJvcGFjaXR5OjAuNTcyNDg5OTY7ZmlsbDojODI3MjYzIiBkPSJtIDEzOS4yMSw3NzYuMzggMjkuMjA2LDE0LjYwMyAtOS43MzUyLC0yMC45MzEgMzEuMTUzLC0zNi4wMiAtNC44Njc2LC0wLjQ4Njc2IHoiIGlkPSJwYXRoNDAzOCIvPiYjeGE7ICAgICAgICA8cGF0aCBkPSJtIDEzNC44MSw4MDEuMjMgYyAxLjM0OTksMC41MTQ0OSAyLjU3NjEsMS4zMjMgMy43MjM4LDIuMTkwNCAwLjc4MDcxLDAuNjAxMDUgMS4yNjcsMS40MzQzIDEuODY1NiwyLjE5MTYgMC4zNTIzLDAuNzM3MTIgMC45NDE2MiwxLjI4OCAxLjM5ODMsMS45NDkgMC41NjQ1OCwwLjQ5NDUxIDEuMDYyLDEuMDc1MiAxLjcyNjYsMS40Mzc1IDAuNTg4NTYsMC40MDM4NiAxLjIxOTQsMC43ODk5MSAxLjg5MTcsMS4wNDA2IDAuNjA3MywwLjQ5OTY0IDEuMzkyOCwwLjUxMjc5IDIuMDkwNSwwLjc4MjYxIDAuNzYxNjcsMC4zMDI3MiAxLjU3OTEsMC4zNjI5MiAyLjM4ODUsMC40MDgxMiAwLjk0OTIyLDAuMDM3OCAxLjg5OTUsMC4wMzI4IDIuODQ5MiwwLjAzMTkgMC45NzQ3NSwtMC4wMDIgMS45NDk1LC0wLjAwNCAyLjkyNDIsLTAuMDA1IDAuOTczOTYsLTcuNGUtNCAxLjk0NzksLTcuN2UtNCAyLjkyMTksLTguMWUtNCAwLjk3MzUzLC0yZS01IDEuOTQ3MSwxZS01IDIuOTIwNiwyZS01IDAuOTczNTEsMTBlLTYgMS45NDcsMTBlLTYgMi45MjA1LDEwZS02IGggMi45MjA2IDIuOTIwNiAyLjkyMDYgYyAwLjk0MTE4LC0wLjA2IDEuOTE2NywwLjEyODQ4IDIuODM3MSwtMC4xMDAyMSBsIC01Ljc4OTksNC4zMjczIGMgLTAuOTYyMDMsMC4wMzQ0IC0xLjkyNTEsMC4wMDggLTIuODg3NiwwLjAxNjIgaCAtMi45MjA2IC0yLjkyMDYgLTIuOTIwNiBjIC0wLjk3MzUxLDAgLTEuOTQ3LC0xMGUtNiAtMi45MjA1LC0yZS01IC0wLjk3MzUxLC0xZS01IC0xLjk0NywtNGUtNSAtMi45MjA1LDNlLTUgLTAuOTczNzksMS4xZS00IC0xLjk0NzYsMi43ZS00IC0yLjkyMTQsMC4wMDEgLTAuOTc1MDMsMTBlLTQgLTEuOTUwMSwwLjAwNCAtMi45MjUxLDAuMDA0IC0wLjk2MjMzLC0wLjAwMiAtMS45MjYxLC04LjVlLTQgLTIuODg2MiwtMC4wNzM2IC0wLjg1MzU0LC0wLjA4NDIgLTEuNjk0MiwtMC4yMzA1NSAtMi40OTczLC0wLjU0NDIyIC0wLjc0Njc0LC0wLjE5NzA0IC0xLjQ2NTYsLTAuNDI4MDMgLTIuMTI5MSwtMC44MzYwMiAtMC42NzU0MiwtMC4zMjkxNiAtMS4zMzYzLC0wLjY5Nzk1IC0xLjk0OTMsLTEuMTMzMiAtMC42OTE2MiwtMC40ODEzMSAtMS4yOTgyLC0xLjA3NjIgLTEuODgwOSwtMS42ODI4IC0wLjQ1NzEyLC0wLjY0MjA0IC0xLjAwOTgsLTEuMjA4NSAtMS4zNzEyLC0xLjkxODYgLTAuNTU0NjMsLTAuNzA5NSAtMC45OTgzNywtMS40OTU3IC0xLjczNCwtMi4wNTAyIC0xLjEwMjYsLTAuODE1MjEgLTIuMjY3NiwtMS42MDE2IC0zLjYxMDUsLTEuOTUxIGwgNS45NjUsLTQuMDg1MiB6IiBzdHlsZT0ib3BhY2l0eTowLjc5OTI2MDA0O2ZpbGw6IzlhOGQ4MCIgaWQ9InBhdGg0MDY2Ii8+JiN4YTsgICAgICAgIDxwYXRoIHN0eWxlPSJvcGFjaXR5OjAuODU1MDE5OTY7ZmlsbDojNzQ2NTVhIiBkPSJtIDIyMi45OSw4MzUuODYgYyA2Ljg5NzUsLTkuMzU0MiAtNS4wOTksLTE4LjE3OCAtMTUuMDcsLTIyLjY5MiAtOS42OTA3LC00LjQ5MzEgLTE1LjYwNSwtMTAuNjU1IC0xOC40NDIsLTEwLjg3NiAtMy4xODczLC0xLjM2NjkgLTEwLjQwOSwwLjM4OTY5IC0yMS42MDgsMS44MTcxIC0yLjg0NjQsMy4xOTk4IC0zLjQ3MjksNC4xODg1IC0wLjM3NDI5LDEyLjE2OSA4LjM2ODMsMTIuMjk4IDIwLjg5OCwyMS4wNCA0MC4yMjMsMjMuOTcyIDQuNDU5NiwwLjI3NzQ4IDguODYyNCwwLjcxMTQyIDE1LjI3MiwtNC4zOTAyIHoiIGlkPSJwYXRoMzk3Ni0yLTAiLz4mI3hhOyAgICAgICAgPHBhdGggdHJhbnNmb3JtPSJtYXRyaXgoMC44NzU4OCwwLjQxODk5LC0wLjQ0MjkyLDAuODA4MDEsNTA2LjMsNjQuOTcpIiBkPSJtIDExNS44NDg1Miw4ODcuMzYwNzIgYSAyMi44Nzc2NDcsOS4yNDg0MTEyIDAgMCAxIC0yMi43NjM2MDMsOS4yNDgyOSAyMi44Nzc2NDcsOS4yNDg0MTEyIDAgMCAxIC0yMi45OTA1NTYsLTkuMTU2MDkgMjIuODc3NjQ3LDkuMjQ4NDExMiAwIDAgMSAyMi41MzQzODQsLTkuMzM5NTggMjIuODc3NjQ3LDkuMjQ4NDExMiAwIDAgMSAyMy4yMTUyMjUsOS4wNjI5NyIgc3R5bGU9Im9wYWNpdHk6MC44NTUwMTk5NjtmaWxsOiM4YjUwNmI7c3Ryb2tlOiM1ZDJlMzE7c3Ryb2tlLXdpZHRoOjMuNTk5OTk5OSIgaWQ9InBhdGg0MDU4Ii8+JiN4YTsgICAgICAgIDxwYXRoIHN0eWxlPSJvcGFjaXR5OjAuNzk5MjYwMDQ7ZmlsbDojOWE4ZDgwIiBkPSJtIDIxMy42OSw3ODIuMjIgYyAxOC4wMzYsLTYuNjQ5MiAzMy4wNjQsLTE5LjgxOCA0My4zMjIsLTQzLjMyMiAxNy45NDgsMTEuODQ5IDM3LjkzMywyMi42MTkgMzQuNTYsNDUuNzU1IC03LjM4NTIsMTAuMzYzIC0yMC4yMjksMzMuNDYzIC0zMS4xNTMsNTIuMDgzIC01LjMwMjEsLTE0LjI0NCAwLjMyNjM5LC0yNC4zMDkgLTQ2LjcyOSwtNTQuNTE3IHoiIGlkPSJwYXRoNDA2MCIvPiYjeGE7ICAgICAgPC9nPiYjeGE7ICAgIDwvZz4mI3hhOyAgPC9nPiYjeGE7ICA8bWV0YWRhdGEgaWQ9Im1ldGFkYXRhNzUiPiYjeGE7ICAgICYjeGE7ICAgICAgJiN4YTsgICAgICAgIGltYWdlL3N2Zyt4bWwmI3hhOyAgICAgICAgJiN4YTsgICAgICAgICYjeGE7ICAgICAgICAmI3hhOyAgICAgICAgICAmI3hhOyAgICAgICAgICAgIE9wZW5DbGlwYXJ0JiN4YTsgICAgICAgICAgJiN4YTsgICAgICAgICYjeGE7ICAgICAgICBIYW0mI3hhOyAgICAgICAgaHR0cHM6Ly9vcGVuY2xpcGFydC5vcmcvZGV0YWlsLzIxMTQxOSYjeGE7ICAgICAgICAmI3hhOyAgICAgICAgICAmI3hhOyAgICAgICAgICAgIG1hcmF1ZGVyJiN4YTsgICAgICAgICAgJiN4YTsgICAgICAgICYjeGE7ICAgICAgJiN4YTsgICAgICAmI3hhOyAgICAgICAgJiN4YTsgICAgICAgICYjeGE7ICAgICAgICAmI3hhOyAgICAgICYjeGE7ICAgICYjeGE7ICA8L21ldGFkYXRhPiYjeGE7PC9zdmc+;" parent="1" vertex="1">
          <mxGeometry x="160" y="380" width="60" height="60" as="geometry" />
        </mxCell>
        <mxCell id="3iR2tvqCmlfJgyPU4IL4-6" value="" style="shape=image;verticalLabelPosition=bottom;labelBackgroundColor=default;verticalAlign=top;aspect=fixed;imageAspect=0;image=data:image/svg+xml,PHN2ZyB4bWxucz0iaHR0cDovL3d3dy53My5vcmcvMjAwMC9zdmciIGhlaWdodD0iMjU2IiB3aWR0aD0iMjU2IiB2ZXJzaW9uPSIxLjEiIHZpZXdCb3g9IjAgMCAyNTUuOTk5OTkgMjU2IiBpZD0ic3ZnMiI+JiN4YTsgIDx0aXRsZSBpZD0idGl0bGU0NTc3Ij5IYW08L3RpdGxlPiYjeGE7ICA8ZGVmcyBpZD0iZGVmczYiPiYjeGE7ICAgIDxsaW5lYXJHcmFkaWVudCB4MT0iMTA4MS42IiB5MT0iMzM0Ljg5MDAxIiB4Mj0iMTAwNy4yIiBncmFkaWVudFVuaXRzPSJ1c2VyU3BhY2VPblVzZSIgeTI9IjI2Ni43Mzk5OSIgaWQ9ImxpbmVhckdyYWRpZW50NDE2NSI+JiN4YTsgICAgICA8c3RvcCBvZmZzZXQ9IjAiIHN0eWxlPSJzdG9wLWNvbG9yOiM5ODcyNmQiIGlkPSJzdG9wMzg3MiIvPiYjeGE7ICAgICAgPHN0b3Agb2Zmc2V0PSIxIiBzdHlsZT0ic3RvcC1jb2xvcjojZDVhMjhjIiBpZD0ic3RvcDM4NzQiLz4mI3hhOyAgICA8L2xpbmVhckdyYWRpZW50PiYjeGE7ICAgIDxsaW5lYXJHcmFkaWVudCB4MT0iMzg2LjcwOTk5IiB5MT0iNjA0LjUiIGdyYWRpZW50VHJhbnNmb3JtPSJ0cmFuc2xhdGUoMzkxLjM1LDE0LjYwMykiIHgyPSIyOTEuODI5OTkiIGdyYWRpZW50VW5pdHM9InVzZXJTcGFjZU9uVXNlIiB5Mj0iNDc4LjkyMDAxIiBpZD0ibGluZWFyR3JhZGllbnQ0MTY3Ij4mI3hhOyAgICAgIDxzdG9wIG9mZnNldD0iMCIgc3R5bGU9InN0b3AtY29sb3I6I2NjNDkzMCIgaWQ9InN0b3AzODExIi8+JiN4YTsgICAgICA8c3RvcCBvZmZzZXQ9IjEiIHN0eWxlPSJzdG9wLWNvbG9yOiNmNTczMGIiIGlkPSJzdG9wMzgxMyIvPiYjeGE7ICAgIDwvbGluZWFyR3JhZGllbnQ+JiN4YTsgIDwvZGVmcz4mI3hhOyAgJiN4YTsgIDxnIHRyYW5zZm9ybT0ibWF0cml4KDAuMjM3MTY1ODQsMC4wNTEyMjIzNiwtMC4wNTEyMjIzNiwwLjIzNzE2NTg0LC01Ny43NTA0NjcsLTMxLjc4MjkyMykiIGlkPSJnNDExMCI+JiN4YTsgICAgPGcgdHJhbnNmb3JtPSJ0cmFuc2xhdGUoNDAwKSIgaWQ9ImczNzY4Ij4mI3hhOyAgICAgIDxwYXRoIGQ9Im0gNzczLjA5LDYuMTg3NSBjIC0yNC41MTMsMC43OTU2NiAtNjEuNTExLDMyLjIwMiAtNjIuNDM4LDc0LjYyNSBsIDcuODEyNSwxOC41IGMgNi40MjksNy40NjM2IDExLjIzNCwxNC45MTEgMzAuMTU2LDIyLjM3NSBsIC0zNi45NjksNDIuODQ0IGMgLTQuODIwOCw4LjY5MzIgLTYuODY4OCwyNC43OCAtNy44MTI1LDQzLjgxMiAtMy41NjI1LC0xOC4zMzMgLTcuMTI1LC0yNC40OTkgLTEwLjY4OCwtMTkuNDY5IC0yMDAuNzQsMTk4LjcxIC00MDUuODcsNDQ3LjIzIC01NDYuMDIsNTc2IC00Ljg2MTcsMS44MjYyIC0xMS45MzUsMTAuMjc3IC0xNS4xMDgsMTMuNzE2IC0xNS41NzMsMTYuODc3IC0xLjg3MjUsNDcgMzAuNTk0LDY3LjI4MSAzMi40NjY1LDIwLjI4MSA3MS4zOTYsMjMuMDMzIDg2Ljk2OSw2LjE1NjIgMC45MzEzNSwtMS4wMDkzIDEuNzc1OCwtMi4wNTcxIDIuNSwtMy4xNTYyIGwgMC4wNjI1LDAuMDMxMiBjIDEyNC40NiwtMTc2LjM2IDE4Ni4wNiwtMjY1LjY5IDM1NS4zMywtMzk3LjU5IDkyLjYzLC0xNDIuNDEgMTc3LjUxLC0yNjAuMTkgMjI1Ljg2LC0zMTAuMTYgMzcuNzIsMTYuNzkgNzguNzcsMi4wMyA4OC41OCwtNy43NyAzMS41NSwtMzcuMDIzIDIxLjUsLTkxLjMxMyAtNDguNjYsLTExMCAtMzIuNDcsLTEuNjIgLTE0LjE1LDY3Ljk5NyAtNTUuNSw1OS4zNyAtMjguODQsLTIzLjUyNiAtMTAuNCwtNzIuMTcyIC0zNS4wMywtNzQuOTY5IC0yLjg1MDUsLTEuMTkxOCAtNi4xMjMyLC0xLjcwNzQgLTkuNjI1LC0xLjU5MzggeiIgc3R5bGU9ImZpbGw6I2ZlZjFlMztzdHJva2U6IzVkMmUzMTtzdHJva2Utd2lkdGg6NC4xOTk5OTk4MSIgaWQ9InBhdGgyOTg3Ii8+JiN4YTsgICAgICA8cGF0aCBkPSJtIDEzNS4zMiw3NzUuODkgYyAxNS4zMjgsNC40NjY5IDI4Ljc3NiwxMy43MzQgMzguOTQxLDIzLjM2NCBsIC0xMS42ODIsLTI4LjIzMiBjIDg2LjkwMiw4Ljg5MTcgMTA0LjI2LDYzLjAzMiA4Ny42MTcsODEuNzc1IiBzdHlsZT0iZmlsbDpub25lO3N0cm9rZTojMDAwMDAwO3N0cm9rZS13aWR0aDo0LjQwMDAwMDE7c3Ryb2tlLWxpbmVjYXA6cm91bmQ7c3Ryb2tlLWxpbmVqb2luOnJvdW5kIiBpZD0icGF0aDM3NjIiLz4mI3hhOyAgICAgIDxwYXRoIGQ9Im0gMTYwLjYzLDc2OS4wOCAzNC4wNzMsLTQyLjgzNSBjIDczLjUzOSwtMTAuMjkyIDEwNS45Niw0OS45MyAxMDAuMjcsNTkuMzg1IiBzdHlsZT0iZmlsbDpub25lO3N0cm9rZTojMDAwMDAwO3N0cm9rZS13aWR0aDozLjIwMDAwMDA1O3N0cm9rZS1saW5lY2FwOnJvdW5kO3N0cm9rZS1saW5lam9pbjpyb3VuZCIgaWQ9InBhdGgzNzY0Ii8+JiN4YTsgICAgPC9nPiYjeGE7ICAgIDxwYXRoIGQ9Im0gNTM4LjMzLDgwMS42NyBjIDIuMDg3NywxLjM4OTEgNC4yMTU3LDIuNzAyOCA2LjM5LDMuOTUyNiAwLjI4Nzg1LDAuMTMwNjUgMC41ODQyNCwwLjI0MzkyIDAuODYzNTUsMC4zOTE5NSAxLjEyNzQsMC41OTc1IDAuNDQ0NDEsMC4zNzQ5MiAxLjUyNTIsMC44NzQzNSAwLjgxOTE1LDAuMzc4NTMgMS41MjE3LDAuNTE5MjIgMi4zMTQyLDAuOTkwOTcgMS43MjMsMS4wODMzIDMuNjUxMiwxLjcyODYgNS40NjQxLDIuNjE0NiAxLjIzOCwwLjg1OTg3IDIuNDEyOSwxLjg3NjggMy43OTY2LDIuNDkyMiAxLjM4MDMsMC41OTU1MiAyLjcwODIsMS4xMDg2IDQuMjExOSwxLjMyNDQgMS43MDE5LDAuMDA4IDMuMjkwMywwLjYwMjYxIDQuOTU1NSwwLjg3NjQ5IDEuNzIzNiwwLjEzNDc0IDMuNTI3MiwwLjQ4ODI5IDUuMjI2MiwwLjA3NTggMC44MDExNSwtMC4xNjI1NSAxLjUwNTgsLTAuMzE3NTQgMi4yMjE3LC0wLjcwOTg2IGwgLTExLjQwNCw4LjkxNDYgYyAtMC43OTk0MiwwLjE3MjY3IC0xLjU5ODgsMC4zNTY1MyAtMi40MTUyLDAuNDMxNDMgLTEuODM1MywwLjAxNjQgLTMuNjc2OSwtMC4wOTQzIC01LjQ4NCwtMC40Mjk4NyAtMS42NDczLC0wLjM0NTU5IC0zLjI3NjksLTAuNzI1MjQgLTQuOTU3OCwtMC44Nzg3NCAtMS41NjE5LC0wLjM2MzIzIC0zLjAwOTksLTAuOTg5ODYgLTQuNDYxNywtMS42NjMxIC0xLjI4ODQsLTAuNzUwMjUgLTIuNDY0OCwtMS42NzM1IC0zLjczNTYsLTIuNDUxNyAtMS44NzgzLC0wLjgwNzUxIC0zLjY3ODEsLTEuNzM1NyAtNS40OTYyLC0yLjY2ODYgLTEuNjMwMiwtMC42ODcyNCAtMy4yMTY3LC0xLjQxOTEgLTQuNzMwNCwtMi4zNDY3IC0yLjE1NTcsLTEuMzI5NyAtNC4yOTcyLC0yLjY4MDQgLTYuNDYyMSwtMy45OTMxIGwgMTIuMTc4LC03Ljc5NzcgeiIgc3R5bGU9Im9wYWNpdHk6MC42MTMzODAwNDtmaWxsOiM5MTgwNzA7c3Ryb2tlOiM1NjNjMTU7c3Ryb2tlLXdpZHRoOjIuMjAwMDAwMDU7c3Ryb2tlLWxpbmVjYXA6cm91bmQ7c3Ryb2tlLWxpbmVqb2luOnJvdW5kIiBpZD0icGF0aDM5NzQiLz4mI3hhOyAgICA8cGF0aCBkPSJtIDYxOS44Niw4NDguMTYgYyAyLjY2NDgsLTAuNTIyNjQgNS4xNzgsLTEuNTAwMSA3Ljg0MzgsLTIuMDIxNCAxLjgxODYsLTAuNTcxNjQgMy41NTUsLTEuMzcxNiA1LjIzOTIsLTIuMjYyIDMuMzQ5LC0xLjM2MjUgLTEuNzQ4MiwwLjY4MTQ1IDEuNzEyLC0wLjYwNDgyIDAuMjk0MzgsLTAuMTA5NDMgMS4xMzM2LC0wLjUzODE1IDAuODYxNjgsLTAuMzgxMDcgLTMuODU3NiwyLjIyODIgLTcuNzQ2OSw0LjQwMTEgLTExLjYyMyw2LjU5NjkgLTAuMjU4NzEsMC4xNDY1NiAwLjUxMjYyLC0wLjMwMTQ5IDAuNzcwOCwtMC40NDg5NyA0LjM4NzcsLTIuNTA2NSA4Ljc3OCwtNS4wMDg3IDEzLjE2NywtNy41MTMgMS42MjQsLTEuMDUxOCAzLjUzNzYsLTEuNTQxIDUuMjAxOSwtMi40ODcgNC44NTk2LC0yLjIzOTYgMS40Njk2LC0wLjcwNTUgLTEwLjkwOSw2LjMxODIgLTAuMjI1NTMsMC4xMjc5NyAwLjQzNzk5LC0wLjI3Nzc2IDAuNjU3NDgsLTAuNDE1ODQgMC42MjMzNiwtMC4zOTIxMyAxLjE3NzEsLTAuODQyMjcgMS43NjUxLC0xLjI4NTEgMS40OTc2LC0wLjk1NTc1IDIuOTcyNywtMS45NDk2IDQuNDY0MiwtMi45MTczIDEuNDgxMywtMC44NTkyMiAyLjgzNTEsLTEuODk1OCA0LjIxMTgsLTIuOTA1MyAxLjMwMzMsLTAuNjQ3ODIgMi4yOTY2LC0xLjU3NjEgMy4yNjUzLC0yLjYyODQgMS4wMjksLTAuOTEyIDIuMTE0NSwtMS43NjEyIDMuMDkxOCwtMi43Mjk2IDAuOTg4MDksLTAuOTE5NDcgMS45OTY4LC0xLjgzMDYgMi45MDY1LC0yLjgyOTggMC43NjU2MiwtMS4xNzU0IDEuNzAyMywtMi4yMjI4IDIuNDA3MywtMy40MzYgMC44NTc5NywtMS4xNzIgMS4zMTI4LC0yLjU2NjIgMS44NTI5LC0zLjkwMDggMC42NTY1OSwtMS4zNTQ3IDEuMTA1NCwtMi43OTA3IDEuNjc4MSwtNC4xNzkzIDAuNDc0NjQsLTEuNDQ1NSAxLjAzNiwtMi44NjY4IDEuNDczNCwtNC4zMjQ5IDAuMjQ1NzgsLTAuOTk3MzggMC42NDcwNywtMS45MzcxIDEuMTU4NCwtMi44MjM2IGwgMTMuMjMsLTUuODkwMyBjIC0wLjQ3NTY0LDAuODIyNSAtMS4wMzcsMS41NDc4IC0xLjM0MDIsMi40NjU5IC0wLjMyNjUsMS41NjIzIC0xLjAxNjksMi45NTc5IC0xLjM3NzgsNC41MDYyIC0wLjE4MTA2LDAuNDQ2MzkgLTAuNDM5MDcsMC44NjA1IC0wLjYwMTY2LDEuMzE0IC0wLjMzOTQ1LDAuOTQ2NyAtMC40MjYzMywxLjk5MTUgLTEuMTExLDIuNzk4MiAtMC40Mzc3MywxLjQ1NyAtMS4wNzQ1LDIuODU3NSAtMS42ODcyLDQuMjQxNCAtMC44NzE4LDEuMDg4MiAtMS40MDU5LDIuNDI0MSAtMi40MTExLDMuNDI3OCAtMC42NjA4MiwxLjMwOTcgLTEuODE0MywyLjA5NzcgLTIuNzU0LDMuMTg2NCAtMS4xMDYyLDAuODIyIC0yLjAwNTYsMS44OTUyIC0zLjA4MTgsMi43NTUzIC0wLjczNzUsMC40NDg1NSAtMC45MjgwMywwLjgzODc4IC0xLjQ0NiwxLjQ5NzcgLTAuNTM3NCwwLjY4MzY2IC0wLjQ2NzE2LDAuNDAyNjYgLTEuMTU4NSwwLjg3MzIxIC0wLjIwOTA0LDAuMTQyMjggLTAuMzkyOTEsMC4zMTg0IC0wLjU4OTM2LDAuNDc3NTkgLTEuNTc0NywwLjcyMzMzIC0yLjY4NTksMi4xMTI1IC00LjI3MDIsMi44Mzg3IC0xLjQ2MjEsMS4wMTMgLTMuMDA2MSwxLjg3OCAtNC4zOTk5LDIuOTc2NSAtMC43NzE3OSwwLjM0NzY2IC0xLjEzNjksMC43NTQ0IC0xLjc4MjMsMS4yNjUgLTQuMzQ0NSwzLjQzNzIgLTkuNTI4NSw1Ljg4NzggLTE0LjUzNCw4LjMzNzQgLTEuNzgsMC43MzM5OSAtMy40OTE2LDEuNjA5MSAtNS4xOTIyLDIuNTEwNyAzLjg2NjksLTIuMjM4OCA3LjczMTQsLTQuNDgxOCAxMS42MDEsLTYuNzE2NCAwLjI1OTE1LC0wLjE0OTY2IC0wLjUxMDE1LDAuMzEzMiAtMC43NzAwNywwLjQ2MTUzIC00LjQwMDQsMi41MTEzIC04Ljc4MzUsNS4wNTM0IC0xMy4yMTEsNy41MTc0IC0wLjc4ODAzLDAuNDM4NTggLTEuNzcxMSwwLjU0NzAzIC0yLjUyOTQsMS4wNjQ0IC0xLjc1NzEsMC43Njc0OCAtMy40NzA1LDEuNjMzIC01LjM4NzcsMS45NTAzIC0yLjYzNjUsMC42MzY4NSAtNS4yMTI0LDEuNTA1NiAtNy44NTAzLDIuMTQxNiBsIDExLjQ1NywtOC44MjEzIHoiIHN0eWxlPSJvcGFjaXR5OjAuNjEzMzgwMDQ7ZmlsbDojOTE4MDcwO3N0cm9rZTojNTYzYzE1O3N0cm9rZS13aWR0aDoyLjIwMDAwMDA1O3N0cm9rZS1saW5lY2FwOnJvdW5kO3N0cm9rZS1saW5lam9pbjpyb3VuZCIgaWQ9InBhdGgzOTcyIi8+JiN4YTsgICAgPHBhdGggdHJhbnNmb3JtPSJtYXRyaXgoMS4xOTYsMC40ODk3NSwtMC40ODk3NSwxLjE5Niw5ODMuNDksLTIxOS45KSIgZD0iTSA1My41NDM0MzIsODU5LjYxNTQ4IEEgMjguMjMxOTkxLDEzLjYyOTIzNyAwIDAgMSAyNS40NTIxNzksODczLjI0NDU1IDI4LjIzMTk5MSwxMy42MjkyMzcgMCAwIDEgLTIuOTE5MTQ2Miw4NTkuNzUxMzYgMjguMjMxOTkxLDEzLjYyOTIzNyAwIDAgMSAyNC44ODkyNDMsODQ1Ljk4Nzc3IDI4LjIzMTk5MSwxMy42MjkyMzcgMCAwIDEgNTMuNTM3ODIsODU5LjM0MzczIiBzdHlsZT0iZmlsbDojYjc4ZDc3IiBpZD0icGF0aDM3NjYtMSIvPiYjeGE7ICAgIDxwYXRoIHRyYW5zZm9ybT0ibWF0cml4KDAuOTI1NDIsMC4zNzg5NSwtMC4zNzg5NSwwLjkyNTQyLDg5NS4yLDE1LjU4MSkiIGQ9Ik0gNTMuNTQzNDMyLDg1OS42MTU0OCBBIDI4LjIzMTk5MSwxMy42MjkyMzcgMCAwIDEgMjUuNDUyMTc5LDg3My4yNDQ1NSAyOC4yMzE5OTEsMTMuNjI5MjM3IDAgMCAxIC0yLjkxOTE0NjIsODU5Ljc1MTM2IDI4LjIzMTk5MSwxMy42MjkyMzcgMCAwIDEgMjQuODg5MjQzLDg0NS45ODc3NyAyOC4yMzE5OTEsMTMuNjI5MjM3IDAgMCAxIDUzLjUzNzgyLDg1OS4zNDM3MyIgc3R5bGU9ImZpbGw6I2ZlZjFlMztzdHJva2U6IzAwMDAwMDtzdHJva2Utd2lkdGg6My4yMDAwMDAwNTtzdHJva2UtbGluZWNhcDpyb3VuZDtzdHJva2UtbGluZWpvaW46cm91bmQiIGlkPSJwYXRoMzc2NiIvPiYjeGE7ICAgIDxwYXRoIHN0eWxlPSJmaWxsOiM2ZDRkMWE7c3Ryb2tlOiM1NjNjMTU7c3Ryb2tlLXdpZHRoOjIuMTI1NDAwMDciIGQ9Im0gMTE5Ny43LDE2Mi43IC0yMTMuNTEsMjU0IDIxOC45MSwtMjcyLjE0IGMgMS4xNDQzLDMuNTY5MiAxMS4zMzQsMC40NDU2IC01LjQ1MDIsMTguMTMzIHoiIGlkPSJwYXRoMzg3OCIvPiYjeGE7ICAgIDxwYXRoIHN0eWxlPSJvcGFjaXR5OjAuODQzODY5OTg7ZmlsbDp1cmwoI2xpbmVhckdyYWRpZW50NDE2NSkiIGQ9Im0gMTMzNS43LDc0Ljk2MSBjIC0yMy4yMzksMzMuMjY4IC0xMjMuNDQsMjUuNDM3IC0xMzkuMjEsNDcuNzAyIC0zNy4zNTMsMjIuMTAzIC0yNTIuNSw0MDEuNTQgLTMzNi44NCwzNzQuOCBsIDE5LjQ3LDYwLjM1OCAxMjYuNTYsLTEwNS4xNCBjIDgxLjYwMSwtMTIzLjY2IDE1OC4xOSwtMjMxLjMgMjI2LjgzLC0zMTMuNDcgOTMuMDI2LDMxLjkyMyAxMTMuNjYsLTM1LjM1MSAxMDMuMTksLTY0LjI1MiB6IiBpZD0icGF0aDM4NjAiLz4mI3hhOyAgICA8cGF0aCBkPSJtIDEyNjUuNSwxMjAuMiBjIDIuMTY2MiwxLjQxNTYgNC42NDc4LDIuMjA2MiA3LjAzMzksMy4xNjE3IDAuNzg4OCwwLjQ5MTU0IDEuNjA5MiwwLjkwNjc1IDIuNDYyOCwxLjI2OTIgbCAtMTIuMDU2LDcuOTgxOCBjIC0wLjgwMywtMC40MDM2IC0xLjU4NDcsLTAuODQzMTUgLTIuMzkwMSwtMS4yNDIgLTIuNDQ4NiwtMS4wNDExIC00Ljk3NjQsLTEuOTI2MyAtNy4yMjkyLC0zLjM3MyBsIDEyLjE3OCwtNy43OTc3IHoiIHN0eWxlPSJvcGFjaXR5OjAuNjI4MjU7ZmlsbDojOTE4MDcwO3N0cm9rZTojNTYzYzE1O3N0cm9rZS13aWR0aDowLjg5OTk5OTk4O3N0cm9rZS1saW5lY2FwOnJvdW5kO3N0cm9rZS1saW5lam9pbjpyb3VuZCIgaWQ9InBhdGgzOTU4Ii8+JiN4YTsgICAgPHBhdGggc3R5bGU9ImZpbGw6IzZkNGQxYTtzdHJva2U6IzU2M2MxNTtzdHJva2Utd2lkdGg6MS44NjAyMDAwNSIgZD0iTSAxMDcyLjUsMjM3LjU2IDg5MS40Nyw0NjYuMzIgMTA4Ny4zLDIyOS4zOSBjIC01LjM1NDgsLTQuMzYxIC0xMC4zNzgsLTMuMjAxMSAtMTQuNzksOC4xNjgxIHoiIGlkPSJwYXRoMzg3OC0yIi8+JiN4YTsgICAgPHBhdGggc3R5bGU9ImZpbGw6IzZkNGQxYTtzdHJva2U6IzU2M2MxNTtzdHJva2Utd2lkdGg6MS44NjAyMDAwNSIgZD0iTSA2MzguMTIsNzY5LjQ1IDgyNy42Nyw1NDcuNzMgNjMyLjk2LDc4NS41MyBjIC0xLjg2MTQsLTUuMTAzMiAzLjg0MDYsLTExLjM2MyA1LjE2MjIsLTE2LjA4OCB6IiBpZD0icGF0aDM4NzgtMi03Ii8+JiN4YTsgICAgPHBhdGggc3R5bGU9ImZpbGw6IzZkNGQxYTtzdHJva2U6IzU2M2MxNTtzdHJva2Utd2lkdGg6MS4wNjIxOTk5NSIgZD0ibSAxMTg5LjksMTA1LjM2IC05Ni4xODUsMTM4LjQgMTA0LjE3LC0xNDMuNDMgYyAtMi45Nzg0LC0yLjU0MjEgLTUuNzEsLTEuNzk1NCAtNy45ODUyLDUuMDMyOCB6IiBpZD0icGF0aDM4NzgtMi03MSIvPiYjeGE7ICAgIDxwYXRoIGQ9Im0gMTE2Ni40LDgzLjI2NiBjIC0wLjczNzYsMi43MjIgNC42Nzc5LC0yLjEzODUgMy44ODgsMC41Njg4NCAtMC42MTc2LDEuODEzMSAtMS4xNTYzLDMuNjUyNCAtMS42OTAzLDUuNDkxNyAtMC41MTkzLDEuNjgyOSAtMS4yMzQzLDMuMjk3NSAtMS44MzMsNC45NTI4IC0wLjQ2NTgsMS42MDU2IC0wLjk1MDYsMy4yMTg4IC0xLjY0MjYsNC43NDM0IC0wLjU0MjEsMS40ODQgLTEuMzk5NCwyLjgxMzEgLTIuMDkyMiw0LjIyNDUgLTAuNTQ4OCwxLjUxOSAtMS40NTQ5LDIuNzE2NSAtMi41NjgzLDMuODQ3NSAtMS4wNzcyLDEuMjMzNCAtMS43MDE0LDIuNzU0NSAtMi40NzA0LDQuMTgxNCAtMC45ODY3LDEuMjAwMyAtMS4zMDM4LDIuNjg5IC0xLjgyMSw0LjEwODggLTAuMDgyLDAuMjM3OTkgLTAuMTYzNywwLjQ3NTk5IC0wLjI0NTUsMC43MTM5OCAtOC43MjcyLDkuNDk2MiAtOS4zODI3LC0yLjU2MzQgLTcuMjc1LC00Ljg0MjYgMC41NDI5LC0wLjQ4MzM1IDAuNDc4LC0wLjY1NTgyIDAuODI5NiwtMS4yOTM5IDAuMTI3NSwtMC4yMzEzMiAwLjI3ODEsLTAuNDQ5MDcgMC40MTcyLC0wLjY3MzYxIDAuNTQ5LC0xLjUwMjYgMS40ODc3LC0yLjc3NjMgMi4wNTg3LC00LjI1MyAwLjY4NTMsLTEuNDkwNiAxLjM4NzUsLTIuOTkwOCAxLjczNywtNC42MDYxIDAuNDkwMSwtMS42NzQ0IDEuMTcxOCwtMy4yOTAyIDEuODcwMSwtNC44ODYxIDAuNDY3NSwtMS44ODgyIDEuMDc5MywtMy43NDEzIDEuNjgzMSwtNS41ODgyIDAuOTk1OCwtMi41ODM5IDEuNTk1NywtNS4zNTkgMi4zMjY2LC04LjAyMjcgeiIgc3R5bGU9Im9wYWNpdHk6MC42MjgyNTtmaWxsOiM5MTgwNzA7c3Ryb2tlOiM1NjNjMTU7c3Ryb2tlLXdpZHRoOjAuODk5OTk5OTg7c3Ryb2tlLWxpbmVjYXA6cm91bmQ7c3Ryb2tlLWxpbmVqb2luOnJvdW5kIiBpZD0icGF0aDM5MzYiLz4mI3hhOyAgICA8cGF0aCBkPSJtIDEyNzguMSw1My41MDcgYyAxLjIyODMsMi4wMDg3IDIuMTEwNiw0LjE3NjYgMi43OTYxLDYuNDIwNCBsIC0xMi42MjQsNi44OTA2IDguOTQ4OSwtMC42ODgzOCBjIC0wLjU4ODksLTIuMTIyMyAtMTAuMzE1LC0zLjQ5ODcgLTExLjU5OCwtNS4zMTE2IHoiIHN0eWxlPSJvcGFjaXR5OjAuNjI4MjU7ZmlsbDojOTE4MDcwO3N0cm9rZTojNTYzYzE1O3N0cm9rZS13aWR0aDowLjg5OTk5OTk4O3N0cm9rZS1saW5lY2FwOnJvdW5kO3N0cm9rZS1saW5lam9pbjpyb3VuZCIgaWQ9InBhdGgzOTM4Ii8+JiN4YTsgICAgPHBhdGggZD0ibSAxMTY0LjMsMzguOTgyIGMgMi40NjU2LDAuNzY4MTUgNC44NTg1LDEuNjg1MiA3LjQwMzEsMi4xNzk5IGwgLTExLjgzNSw4LjIxMTcgYyAtMi41MzgyLC0wLjYyNDcxIC0wLjgyNzEsLTcuMTE5IC0zLjM2ODIsLTcuNzI4MyB6IiBzdHlsZT0ib3BhY2l0eTowLjYyODI1O2ZpbGw6IzkxODA3MDtzdHJva2U6IzU2M2MxNTtzdHJva2Utd2lkdGg6MC44OTk5OTk5ODtzdHJva2UtbGluZWNhcDpyb3VuZDtzdHJva2UtbGluZWpvaW46cm91bmQiIGlkPSJwYXRoMzk0MCIvPiYjeGE7ICAgIDxwYXRoIGQ9Im0gMTIzMy40LDkzLjQ5OSBjIDEuMzI0OCwwLjQwODIyIDIuNjg3LDAuNjYzNjMgNC4wNDYzLDAuOTIyMzkgbCAtMTEuNzc0LDguMjA1NCBjIC0xLjQwNjcsLTAuMjkzMDMgLTIuODExNiwtMC41OTM0IC00LjIwMjEsLTAuOTU3NDQgbCAxMS45MywtOC4xNzAzIHoiIHN0eWxlPSJvcGFjaXR5OjAuNjEzMzgwMDQ7ZmlsbDojOTE4MDcwO3N0cm9rZTojNTYzYzE1O3N0cm9rZS13aWR0aDoyLjIwMDAwMDA1O3N0cm9rZS1saW5lY2FwOnJvdW5kO3N0cm9rZS1saW5lam9pbjpyb3VuZCIgaWQ9InBhdGgzOTQyIi8+JiN4YTsgICAgPHBhdGggZD0ibSAxMzExLjksNjguNzE5IGMgLTAuMDQ5LDEuOTUxNSAtMC4wMzEsMC45NDY4NCAtMC4wNDksMy4wMTQgbCAtOC42NDIxLDMuNzU0MyB2IDIuMDY1MSBjIDcuNTU0MiwtMS4zNTI3IC0wLjY4ODgsLTMuMTE4MyAtMC43Mzc0LC01LjAyOSBsIDkuNDI5LC0zLjgwNDYgeiIgc3R5bGU9Im9wYWNpdHk6MC42MjgyNTtmaWxsOiM5MTgwNzA7c3Ryb2tlOiM1NjNjMTU7c3Ryb2tlLXdpZHRoOjAuODk5OTk5OTg7c3Ryb2tlLWxpbmVjYXA6cm91bmQ7c3Ryb2tlLWxpbmVqb2luOnJvdW5kIiBpZD0icGF0aDM5NDQiLz4mI3hhOyAgICA8cGF0aCBkPSJtIDExNDIuNyw1MC44MiBjIDAuNzMzOCwxLjQ3ODUgMC4zMTU3LDAuNzUxNDYgMS4yNjQyLDIuMTc1NSBsIC00LjgyNCw3LjI2ODIgYyA5LjI2NDQsLTAuMTk2NTUgNC4yNDQ1LC03LjY2NjcgLTEuNDY5NSwtMi4zNjYzIHoiIHN0eWxlPSJvcGFjaXR5OjAuNjI4MjU7ZmlsbDojOTE4MDcwO3N0cm9rZTojNTYzYzE1O3N0cm9rZS13aWR0aDowLjg5OTk5OTk4O3N0cm9rZS1saW5lY2FwOnJvdW5kO3N0cm9rZS1saW5lam9pbjpyb3VuZCIgaWQ9InBhdGgzOTQ2Ii8+JiN4YTsgICAgPHBhdGggZD0ibSAxMTgwLjgsMTMuNTkzIGMgMC44MzYxLDEuMiAxLjU3NjksMi40NTY1IDIuMjk3NiwzLjcyNzQgbCAtNi40MzA2LDcuMTY0NiBjIC0wLjcwNiwtMS4yNDMgLTEuNDI3NSwtMi40NzYgLTIuMzQzNywtMy41ODExIHoiIHN0eWxlPSJvcGFjaXR5OjAuNjI4MjU7ZmlsbDojOTE4MDcwO3N0cm9rZTojNTYzYzE1O3N0cm9rZS13aWR0aDowLjg5OTk5OTk4O3N0cm9rZS1saW5lY2FwOnJvdW5kO3N0cm9rZS1saW5lam9pbjpyb3VuZCIgaWQ9InBhdGgzOTQ4Ii8+JiN4YTsgICAgPHBhdGggZD0ibSAxMTk1LjIsNjguNjQgYyAwLjA0MywwLjQ3NTgzIDAuMDg2LDAuOTUxNjUgMC4xMjg4LDEuNDI3NSBsIC0xMi43MjMsNi42NjY5IGMgLTAuMDY0LC0wLjQ1OTExIC0wLjEyODUsLTAuOTE4MjIgLTAuMTkyNywtMS4zNzczIGwgMTIuNzg3LC02LjcxNzEgeiIgc3R5bGU9Im9wYWNpdHk6MC42MjgyNTtmaWxsOiM5MTgwNzA7c3Ryb2tlOiM1NjNjMTU7c3Ryb2tlLXdpZHRoOjAuODk5OTk5OTg7c3Ryb2tlLWxpbmVjYXA6cm91bmQ7c3Ryb2tlLWxpbmVqb2luOnJvdW5kIiBpZD0icGF0aDM5NTAiLz4mI3hhOyAgICA8cGF0aCBkPSJtIDEyNzguMSwzMi4zMjMgYyAwLjYyNzYsMS41ODczIC0zLjExMDEsMTEuMDU0IC0xLjgyMDEsMTIuMTI1IGwgLTcuNDA0MSwtMC42NjU5OSA3LjU3MjIsMi43NTM1IGMgLTEuMzY5NywtMS4yNzU4IC0xMC4xMzQsLTUuNDI5MyAtMTAuOTUsLTcuMTM1NCB6IiBzdHlsZT0ib3BhY2l0eTowLjYyODI1O2ZpbGw6IzkxODA3MDtzdHJva2U6IzU2M2MxNTtzdHJva2Utd2lkdGg6MC44OTk5OTk5ODtzdHJva2UtbGluZWNhcDpyb3VuZDtzdHJva2UtbGluZWpvaW46cm91bmQiIGlkPSJwYXRoMzk1MiIvPiYjeGE7ICAgIDxwYXRoIGQ9Im0gMTI3NC42LDg3LjM2MSBjIDAuODQ2NSwyLjM4NTcgNS4zODI0LDEuMjcyNSA2Ljg2MjgsMy4zMzI5IDAuNzgzNCwwLjc0MTQ3IDAuMzYyOCwwLjQzMDczIDEuMjUxLDAuOTQ2NTIgbCAtMTIuMTg4LDcuNzcxNSBjIC0xLjA2NSwtMC44Mzg5MiAtMC41NjQ2LC0wLjM3MzE4IC0xLjQ5NTYsLTEuNDAzMyAtMS40NjYxLC0yLjE4NzQgLTIuNTcxOCwtNC41ODkyIC0zLjU4OTksLTcuMDEyMSB6IiBzdHlsZT0ib3BhY2l0eTowLjYyODI1O2ZpbGw6IzkxODA3MDtzdHJva2U6IzU2M2MxNTtzdHJva2Utd2lkdGg6MC44OTk5OTk5ODtzdHJva2UtbGluZWNhcDpyb3VuZDtzdHJva2UtbGluZWpvaW46cm91bmQiIGlkPSJwYXRoMzk1NCIvPiYjeGE7ICAgIDxwYXRoIGQ9Im0gMTI5OC43LDExMy41NyBjIDEuMjMxNCwxLjQxODMgMi43Nzk4LDIuNDc5OSA0LjIxOTEsMy42NjQ3IGwgLTEyLjE4NSw3LjYyNzcgYyAtMS40NDMyLC0xLjE5NDMgLTIuOTIwNywtMi4zNDQ3IC00LjI4NTQsLTMuNjMxMyBsIDEyLjI1MSwtNy42NjEgeiIgc3R5bGU9Im9wYWNpdHk6MC42MjgyNTtmaWxsOiM5MTgwNzA7c3Ryb2tlOiM1NjNjMTU7c3Ryb2tlLXdpZHRoOjAuODk5OTk5OTg7c3Ryb2tlLWxpbmVjYXA6cm91bmQ7c3Ryb2tlLWxpbmVqb2luOnJvdW5kIiBpZD0icGF0aDM5NTYiLz4mI3hhOyAgICA8cGF0aCBkPSJtIDEyMTIsMTI2Ljc5IGMgMi4xNjA0LDAuOTYzMDIgNC40NTcyLDEuNTIwNSA2Ljc3NDIsMS45NDM4IGwgLTExLjc5NCw4LjIxMTEgYyAtMi4zODc1LC0wLjUzNzI0IC00LjczNjEsLTEuMjE5OSAtNy4wMDc1LC0yLjE0IGwgMTIuMDI3LC04LjAxNSB6IiBzdHlsZT0ib3BhY2l0eTowLjYyODI1O2ZpbGw6IzkxODA3MDtzdHJva2U6IzU2M2MxNTtzdHJva2Utd2lkdGg6MC44OTk5OTk5ODtzdHJva2UtbGluZWNhcDpyb3VuZDtzdHJva2UtbGluZWpvaW46cm91bmQiIGlkPSJwYXRoMzk2MCIvPiYjeGE7ICAgIDxwYXRoIGQ9Im0gMTIwNS4zLDcxLjM0MiBjIDAuNjkyOCwyLjQ4MDMgNy41NTc5LDQuNjkxOSA4LjkzNjcsNi44NDIxIC0xLjc0MjYsMS40MzEyIDIuMjc0NywyLjUzMjUgMy43NDM1LDMuNDYzMyAxLjAzODUsMC45OTQ1MSAyLjI1OTIsMS43MjI4IDMuMzkxNiwyLjU4MzQgMS4yMjM3LDAuNjc3MDcgMi4zODU3LDEuNDAxOCAzLjc1NjcsMS43NDQ1IDEuNjU0NCwwLjIxODc5IDMuNDA2NSwwLjUzMjU4IDUuMDQ1OSwwLjEzMDgzIDEuNDQ2NiwtMC4zNjM4MiAyLjk5NjIsLTAuODAyNTkgNC4yMzYxLC0xLjY1NjIgbCAtMTEuMjk5LDkuMDU1OCBjIC0xLjQ4NCwwLjUzOTc2IC0yLjkyOTYsMS4xNiAtNC41MzYzLDEuMjM1MyAtMS44MTgzLDAuMDA5NSAtMy42NjA0LC0wLjA5MTgyIC01LjQxMDgsLTAuNjIyODggLTEuNDIwNCwtMC41MzUwNSAtMi43NDU5LC0xLjI5OTUgLTQuMDE5NywtMi4xMjAxIC0xLjE3MywtMC43OTA5IC0yLjI1MTYsLTEuNjg1IC0zLjM2MiwtMi41NjA5IC0xLjU0NzgsLTEuMTI4NCAtMi45Mjk1LC0yLjM4MDYgLTMuOTkxNiwtMy45OTcxIC0xLjQzNTksLTIuMjc4MiAtMi43NDM0LC00LjY0NjIgLTMuNjgwMywtNy4xNzc3IHoiIHN0eWxlPSJvcGFjaXR5OjAuNjI4MjU7ZmlsbDojOTE4MDcwO3N0cm9rZTojNTYzYzE1O3N0cm9rZS13aWR0aDowLjg5OTk5OTk4O3N0cm9rZS1saW5lY2FwOnJvdW5kO3N0cm9rZS1saW5lam9pbjpyb3VuZCIgaWQ9InBhdGgzOTYyIi8+JiN4YTsgICAgPHBhdGggZD0ibSA2MzQuNCw4MDMuMTkgYyAyLjkzNzEsLTAuOTQ4OTkgNS44OTcyLC0xLjgzNjIgOC44MDYsLTIuODcwNiAyLjAwMjQsLTAuNzEyMDYgNC4xOTM4LC0xLjE3NTUgNi4wMzAzLC0yLjI3MTggMS40MzI4LC0wLjYwODY2IDIuNjgyNywtMS40MDkgNC4yMjAxLC0xLjc1MjUgNC4wNDM3LC0yLjI0MSAxMS40OTMsLTYuMzcyNiAtMTEuMjE4LDYuMzk1NSAtMC4yMDA0MywwLjExMjY4IDAuMzc1NjgsLTAuMjY1MiAwLjU2MjA3LC0wLjM5OTgzIDAuNTcyMSwtMC40MTMyIDEuMTY0NCwtMC43NzU5OSAxLjcyOTgsLTEuMTk4NCAyOS43MzksLTE3LjEyNCA1LjgxNDgsLTMuMzQxMSAxLjIyOCwtMC43MjY3IC0wLjIyMjMxLDAuMTI2NzIgMC40MzY4NCwtMC4yNjc1MSAwLjY0NDY3LC0wLjQxNjggMC43ODM0LC0wLjU2MjczIDEuNDY5MiwtMS4yMzA3IDIuMTUxLC0xLjkwODQgMS4xMDgzLC0xLjMgMi40MDc5LC0yLjQ1NTQgMy4yODc5LC0zLjkyOTMgMC40Nzk1MiwtMS40NDU1IDEuMDkxMSwtMi44MTE2IDEuODAzNSwtNC4xNTM5IDAuMDkyOCwtMC4yMjAyNyAwLjE4NTUzLC0wLjQ0MDUzIDAuMjc4MjksLTAuNjYwOCAwLDAgMTMuMTA0LC02LjE0NjEgMTMuMTA0LC02LjE0NjEgLTAuMDcxLDAuMjYzMSAtMC4xNDIwMiwwLjUyNjE5IC0wLjIxMzAyLDAuNzg5MjggLTAuNTUyNjMsMS40MjQzIC0xLjU4OTQsMi42MDkyIC0xLjgxMSw0LjE2NjggLTAuNjI1ODMsMS43NTQ4IC0xLjg0ODksMy4wMyAtMy4xNTIzLDQuMzI5MSAtNS45MDM0LDcuNTc3NyAtMzAuNjMzLDE3LjIzNiAtMy44MzQsMy4zNzM2IC0wLjc5ODA4LDAuNDc5NzQgLTAuNDIyNjUsMC4yMDE0MiAtMS4xMjM1LDAuODM4NzcgLTAuMTkyMTYsMC4xMzA0MiAtMC40MjkxNCwwLjE4MjEgLTAuNjI3MiwwLjMwMzM3IC00LjY1MTMsMi44NDc5IC04Ljk3Myw2LjY0OCAtMTQuMjU2LDguMjAwNyAtMS4zOTA0LDAuNTcxODYgLTIuNjk3MiwxLjMyNzggLTQuMDg3NSwxLjkwNiAtMi4wMDU4LDAuNzMwNCAtNC4wMDA5LDEuNDc3MyAtNi4wNTMxLDIuMDczMyAtMi45NTgsMC45Mzk1OCAtNS45MTc0LDEuODk1IC04LjgwOTYsMy4wMjA0IGwgMTEuMzM5LC04Ljk2MTYgeiIgc3R5bGU9Im9wYWNpdHk6MC42MTMzODAwNDtmaWxsOiM5MTgwNzA7c3Ryb2tlOiM1NjNjMTU7c3Ryb2tlLXdpZHRoOjIuMjAwMDAwMDU7c3Ryb2tlLWxpbmVjYXA6cm91bmQ7c3Ryb2tlLWxpbmVqb2luOnJvdW5kIiBpZD0icGF0aDM5NjQiLz4mI3hhOyAgICA8cGF0aCBkPSJtIDY2MC41LDczNC42NyBjIC0wLjk5OTI0LDIuNjk0MiAtMi4wNzY2LDUuMzY5MiAtMy4yNTcsNy45OTA3IC0wLjgwOTI0LDEuODQ4NiAtMS44NTU3LDMuNTY1MyAtMi45MjE4LDUuMjcyMSAtMC44MjYzLDEuNDQ1NyAtMS45MDQ3LDIuNzE1IC0yLjg5MzYsNC4wNDcgLTAuODM3NjEsMS4zMiAtMS45MTc4LDIuNDU3IC0yLjczODMsMy43ODU1IC0wLjk1MTg4LDEuMjgwOCAtMS41MDI0LDIuNzkyNSAtMi4yNzg4LDQuMTc2NCAtMC45OTg0OSwxLjc0NjUgLTIuMTksMy40MDMyIC0zLjUyNjgsNC45MDY4IC0xLjE5MDksMS4wMTc0IC0yLjEwMiwyLjI5NzcgLTMuMTU4OCwzLjQ0MTMgLTAuODE0NjgsMS4xNDQyIC0xLjYxMTYsMi4yOTgzIC0yLjQ0ODMsMy40MjkgLTAuOTY5MjMsMC45OTQ1NSAtMS42MDU0LDIuMjM5NiAtMi40NzM5LDMuMzE1MyAtMC44NjI2NCwxLjExMjggLTEuODA3NCwyLjE3NTQgLTIuODM2OSwzLjEzNzYgLTEuMjY3OCwwLjY3ODc5IC0xLjkzNTIsMS44Njg4IC0yLjY1NjYsMy4wNTMxIC0wLjI2NjA3LDAuNTQ1NTQgLTEuNzI0MSwxLjcxMjcgLTAuNTc5OCwxLjkwNjYgMS41ODksMC4yMzU0OSAzLjIwMSwwLjIyNzA3IDQuODAzNSwwLjIzNDY4IDEuNzgwNSwwLjAxNjkgMy42MDY4LDAuMTc2NiA1LjE2NSwtMC44MTExMiAtMy45NTI3LDIuMjQ0NiAtNy44OTEzLDQuNTE0MiAtMTEuODU4LDYuNzMzNyAtMC4xODA3MiwwLjEwMTEyIDAuMzUyNTMsLTAuMjI1MjEgMC40OTQ3NCwtMC4zNzU3NSAwLjc1MzA1LC0wLjc5NzE5IDEuMTEyNywtMS45MzM1IDEuNDkyMSwtMi45MzIzIDAuNTYwOSwtMS41NTc5IDEuNTUzNCwtMi44ODk4IDIuMzI2MSwtNC4zMzg5IDAuNjQ4NTEsLTEuMzk4OCAxLjY1MDEsLTIuNjA0IDIuNTkzLC0zLjgxNiAwLjg0ODU4LC0xLjE2MDIgMS43ODg2LC0yLjI2NCAyLjgyOTQsLTMuMjU2NCAxLjA4MywtMS4xMzU4IDIuMjgwMiwtMi4xMjIgMy41NTg2LC0zLjAyOTggMS4wNTgxLC0wLjk4MDY4IDIuMzcxMywtMS41OTc5IDMuNDk4MiwtMi40ODY5IDEuMjcxOSwtMC45NDQzIDIuNjI3LC0xLjc2NjkgMy44NDI0LC0yLjc4NTIgMS4xNTI3LC0wLjg0ODY1IDIuMDU2NiwtMS45NzQyIDMuMjUzMiwtMi43NjIgMC45NzE4NCwtMC45NDE5OSAyLjExOTksLTEuNzM1MyAyLjk5NTksLTIuNzczOSAxLjAwOTIsLTEuMDA2IDEuNzY5LC0yLjE5NTIgMi42MDU0LC0zLjMzNTQgMS4wMjEsLTEuMTg4MSAxLjg5NTIsLTIuNDcxOCAyLjc4NTEsLTMuNzU1MyAwLjU0MSwtMC44MDMxMSAxLjEzMDMsLTEuNTUyNiAxLjYxNjcsLTIuMzkyMiAwLDAgMTMuMjczLC01Ljc5NDQgMTMuMjczLC01Ljc5NDQgLTAuNjA1OTYsMC43NTg0MSAtMC44NTk5OCwxLjcyMzggLTEuNjQyNiwyLjM1MjMgLTAuODAxOTQsMS4zODc2IC0xLjczMzMsMi42NjI5IC0yLjcxODMsMy45MTgyIC0wLjk3OTEzLDEuMDY2OSAtMS41OTE3LDIuMzQwOCAtMi41NTc2LDMuNDExIC0xLjI1MjQsMS4yMjk4IDAuMjk4MDEsLTAuMzY2MjYgLTAuODc5NjYsMS4xMDk5IC0wLjU5Mjk3LDAuNzQzMjkgLTEuNjU5MSwwLjkyNTE4IC0yLjAyMjQsMS44OTgyIC0xLjE4OTEsMS4wMzI2IDAuMTM4OTEsLTAuMDMzOCAtMS4xNzA3LDAuNzYyNjYgLTAuODE2NjMsMC40OTY2MSAtMS4zNzA3LDEuMzg2OSAtMi4wOTQ5LDEuOTk1NSAtMS4yOTU4LDAuOTExNTUgLTIuNDMxNCwyLjAzIC0zLjgxNjIsMi44MjQgLTEuMTk2LDAuNzgyMTIgLTIuMjM2NywxLjc2NzMgLTMuNTQ4NCwyLjM3ODkgLTEuMTA5NiwxLjExODQgLTIuNjM5LDEuNzA0MyAtMy41NzY3LDMuMDAwMiAtMS4wODUxLDAuOTA3NTUgLTIuMDEyNSwxLjg5OCAtMi45NTA4LDIuOTQ1OSAtMC44MDk1NSwxLjI4MTMgLTEuODA1NCwyLjM5NzkgLTIuNzIzNSwzLjU4NjMgLTAuNjA4NjMsMS41NTEzIC0xLjYzNDksMi44MjQ1IC0yLjMzMjMsNC4zMTYzIC0wLjQwOTQxLDAuODExMjYgLTAuNTg0NzksMS42NTY2IC0wLjk1NTQsMi40ODM2IC0yLjQ4MDEsNS41MzQ0IC00LjUxNjQsNC40Mjk5IC0xMy42OTEsOS4wNzAzIC0xLjgxMDQsMC40MDIwOSAtMy42MzY0LDAuMzgzNTIgLTUuNDg0OCwwLjMzMDA0IC0xLjc4MDcsLTAuMDQwNCAtMy42NTU4LC0wLjAwMiAtNS4yODQ1LC0wLjgxOTI5IC0xLjQyNTYsLTEuMTYxNSAtMS42NzQ5LC0yLjU0MjIgLTAuNTQ2NDcsLTQuMDU4NyAwLjk5MDg3LC0xLjA3IDEuMzI3MywtMi41Njk4IDIuNDc0MywtMy40OTg0IDEuMjg3MiwtMC41OTEzMiAxLjk5OTMsLTEuNzU1OSAzLjAyMzYsLTIuNjgyMSAwLjc4NDg4LC0xLjE2OTggMS43NTA2LC0yLjE5ODQgMi40MTE3LC0zLjQ1NzUgMS4wNDQ4LC0wLjkwNzI5IDEuODMwMiwtMi4xNTExIDIuNDg0MiwtMy4zNTcyIDAuOTM3MDEsLTEuMjg3IDIuMDk4NywtMi40MTU4IDMuMTIwMiwtMy42Mzc0IDEuNTUzMSwtMS4xNzkgMi41NjY0LC0yLjg5OTMgMy42ODk1LC00LjQ3MTggMC43NjE5NSwtMS40MzEzIDEuNTE4OSwtMi44NDc4IDIuMTk2NSwtNC4zMjM4IDAuOTc4OTEsLTEuMjAwOSAxLjY1MTgsLTIuNjM5NyAyLjc3OSwtMy43NDM3IDAuODMxNTIsLTEuNDQzOCAxLjk2OTYsLTIuNjM3NyAyLjkzNTgsLTMuOTgzMiAwLjk1MTM1LC0xLjc1ODYgMi4xOTk4LC0zLjMzMjMgMy4wMjM3LC01LjE2MzkgMS4xODQ4LC0yLjU1MTMgMi4zMTU4LC01LjEyNzUgMy4yOTI2LC03Ljc2NzUgbCAxMy4wNjEsLTYuMjAzNSB6IiBzdHlsZT0ib3BhY2l0eTowLjYxMzM4MDA0O2ZpbGw6IzkxODA3MDtzdHJva2U6IzU2M2MxNTtzdHJva2Utd2lkdGg6Mi4yMDAwMDAwNTtzdHJva2UtbGluZWNhcDpyb3VuZDtzdHJva2UtbGluZWpvaW46cm91bmQiIGlkPSJwYXRoMzk2NiIvPiYjeGE7ICAgIDxwYXRoIGQ9Im0gNzMxLjQ2LDYxNy4wNCBjIC0xLjY4ODMsMy40NTQ5IC0zLjYwNzcsNi43OTE2IC01LjQzOTQsMTAuMTczIC0xLjc3NTQsMy4xNjEyIC0zLjcwODQsNi4yMzc2IC01LjcxMTEsOS4yNTk3IC0xLjY5NzEsMi42NDcxIC0zLjM3NzksNS4yOTU3IC01LjI5MDgsNy43OTMzIC0zLjE1NzMsMy41OTY0IC02LjA0MDQsNy4zOTEgLTguODA5LDExLjI5MiAtMi43NzI0LDMuNDU1OCAtNS4xODk2LDcuMTQgLTcuNTkzOSwxMC44NTIgLTIuMjM1OCwzLjEwODIgLTQuMzE0OSw2LjMyNiAtNi41NjA4LDkuNDI2NyAtMS44NDA0LDIuNDUwOCAtMy43NzI4LDQuODI4OSAtNS42NzE4LDcuMjMzNSAtMS40MTQzLDIuMDQ3IC0zLjE5NzQsMy43ODcgLTQuODAyMSw1LjY3NDMgLTEuNTAzMiwxLjg1NyAtMy4zMjY3LDMuMzkzNiAtNS4xMzI5LDQuOTM5NyAtMS41NTcsMS40MDEgLTMuMjE5MSwyLjY3OTcgLTQuNzcwNiw0LjA4NjQgLTEuNTQ2LDEuMzA4NyAtMy4xNywyLjUzMTggLTQuNTk1MywzLjk3MzggLTEuNDc0NSwxLjQxMDYgLTIuOTQ2LDIuODM2NiAtNC41MDYsNC4xNTM1IC0xLjU4ODgsMS4yNjQzIC0zLjIwMjgsMi40NTc3IC00LjU3MTUsMy45NjU1IC0xLjMxMjgsMS40MTY1IC0yLjc2NzIsMi42ODk3IC00LjI0NDIsMy45MzAzIC0wLjcxODczLDAuNzY5OTYgLTEuNjIyNCwxLjMwMjMgLTIuNDY0NywxLjkxNjUgbCAtMTMuNDksNS4yNTUgYyAwLjg5NzkyLC0wLjUwNzc0IDEuNzE2OCwtMS4xMjE4IDIuNTgxMiwtMS42ODE1IDEuMzM0MiwtMS4zODk5IDIuOTg5OSwtMi40MjE0IDQuMjg3LC0zLjg2MDggMi4xNzAyLC0yLjE2ODIgLTAuOTI2MTQsMC45ODA0NSAxLjI5NDgsLTEuNDc2MyAwLjcxODEzLC0wLjc5NDM3IDEuNTU1NiwtMS4zNCAyLjQwMTksLTEuOTY5NyAwLjI4NTkzLC0wLjIxMjczIDAuNTQ2MjEsLTAuNDU3OTIgMC44MTkzMSwtMC42ODY4OCAxLjU5MjEsLTEuMjcxMyAzLjA1ODgsLTIuNjYxOCA0LjU2NiwtNC4wMjY1IDAuNTE3NDQsLTAuNTEwMTMgMC45NDAyNywtMS4xMTI2IDEuNDcyMywtMS42MDc1IDAuOTQzNjIsLTAuODc3ODcgMi4xMTI4LC0xLjU2NDcgMy4wNDMsLTIuNDc0IDEuNjcxLC0xLjI3NjggMy4xNjk5LC0yLjc4MyA0LjgzMDUsLTQuMDgwMyAxLjc2OTUsLTEuNTUzMiAzLjYyMzUsLTIuOTk4OSA1LjI1NjcsLTQuNjk4MyAxLjQ3NzYsLTIuMDA4OSAzLjM2MiwtMy42Mzk0IDQuODI2MywtNS42NTk2IDEuODI4NCwtMi40Njg3IDMuODgyNiwtNC43NzE0IDUuNzIxMywtNy4yMzQ2IDIuMzI5NiwtMy4wNDY5IDQuMzYyOCwtNi4yOTczIDYuNjQ5OCwtOS4zNzU3IDIuNDc5MiwtMy43MDQzIDQuNzM1MiwtNy41NDE2IDcuNjU4NSwtMTAuOTM1IDEuOTE0NCwtMi42OTA1IDMuNzIyNCwtNS40OTM4IDUuODU4NSwtOC4wMTgyIDAuNDgzOTQsLTAuNTcxODggMS4wMjQ5LC0xLjA5MzggMS41MSwtMS42NjQ2IDAuNDQzNTgsLTAuNTIyMDEgMC44NDk2NCwtMS4wNzQ4IDEuMjc0NSwtMS42MTIyIDEuOTY4OCwtMi40Mzk5IDMuNjgzNCwtNS4wNDE1IDUuMzM1MiwtNy43MDUxIDIuMDY3NiwtMi45NjIyIDMuOTMzMiwtNi4wNjM5IDUuODEyNCwtOS4xNDY5IDEuNzkxNywtMy4zMDg2IDMuNjA2MiwtNi41OTkyIDUuMzY3MSwtOS45MjI1IDAsMCAxMy4wODgsLTYuMDg3NyAxMy4wODgsLTYuMDg3NyB6IiBzdHlsZT0ib3BhY2l0eTowLjYxMzM4MDA0O2ZpbGw6IzkxODA3MDtzdHJva2U6IzU2M2MxNTtzdHJva2Utd2lkdGg6Mi4yMDAwMDAwNTtzdHJva2UtbGluZWNhcDpyb3VuZDtzdHJva2UtbGluZWpvaW46cm91bmQiIGlkPSJwYXRoMzk2OCIvPiYjeGE7ICAgIDxwYXRoIGQ9Im0gOTYwLjA5LDQzMi4xMyBjIC0yLjYxNDksMy41ODg4IC01LjUzMzYsNi45MzE0IC04LjQwMzQsMTAuMzE0IC0zLjIyMzQsNC4xMDEgLTYuNDkyMSw4LjE3MzggLTkuNTExNCwxMi40MjkgLTMuNDQ5Nyw0Ljg4NDMgLTcuMDkzNCw5LjYyNjggLTEwLjcxLDE0LjM4NyAtMi45MjI4LDMuOTY5MiAtNS43MzMsNy45OTg2IC04Ljg4NDIsMTEuNzk0IC00LjEyNTksNS4zNTk4IC04Ljk3NDMsMTAuMDc4IC0xMy42NDgsMTQuOTQ2IC00LjE3MDYsNC4xODUgLTguMjY1Miw4LjQ0NDggLTEyLjQ5NSwxMi41NyAtMi4zODU4LDIuMzk0MyAtNC41MzUyLDQuOTk5OSAtNi45ODY1LDcuMzI5MSAtMi41MDcsMi4zNjc5IC00LjY5NjEsNS4wNDA0IC03LjAyNjksNy41NzY1IC0yLjIyMjgsMi41NDI3IC00Ljc0MTEsNC43OTU3IC03LjAzNSw3LjI3MDQgLTIuMjI3OCwyLjQxMzEgLTQuNTIzNCw0Ljc2MjggLTYuNzczOSw3LjE1NTYgLTIuMTgzNCwyLjM2NTQgLTQuMTQ5Myw0LjkxNTIgLTYuMTI3Myw3LjQ1MDggLTEuOTgyLDIuNDY2MiAtNC4wMzgsNC44NzY4IC02LjIyNDIsNy4xNjQzIC0yLjU3NzIsMi41NjQ1IC01LjI4NzEsNC45OTk2IC03Ljc3NjMsNy42NTExIC0xLjg4MTQsMS44ODggLTMuNDM2Miw0LjA1OTQgLTUuMjQ4Niw2LjAwNjIgLTEuNjU2MSwxLjQ2NjIgLTIuOTgxMSwzLjIyNDIgLTQuNDE0Nyw0Ljg5NDYgLTEuMTY2OCwxLjQwNTkgLTIuNDUzNCwyLjcwNTEgLTMuNjU2NCw0LjA3NzMgLTEuMTA0LDEuNjgzMiAtMi4yNzQyLDMuMzE4NyAtMy40ODE4LDQuOTI5OSAtMS40MjYxLDIuMDM4NCAtMi44NjYsNC4wNjQyIC00LjUyOSw1LjkxNyAtMS44Njk0LDEuOTM5OCAtMy42MTg3LDMuOTg2NyAtNS40Mzg3LDUuOTcyNCAtMi4zMjQ0LDIuNjM0NyAtNC44MTU3LDUuMTAzOCAtNi45OTQ2LDcuODY0OSAtMS45NDE4LDIuNzc0NiAtMy45MTE3LDUuNTEzNiAtNi4wMDk0LDguMTczMyAtMS42MDAyLDIuMjQ3IC0zLjQ1MjcsNC4yOTA5IC01LjIzOTIsNi4zODY2IC0xLjIyNTgsMS42NjAyIC0yLjU3ODYsMy4yMjgxIC0zLjczMDIsNC45NDE3IC0xLjA4MjYsMS42MjIxIC0yLjI2MDIsMy4xNjg5IC0zLjM2Niw0Ljc3NjUgLTEuMTI3LDEuNTQ2MiAtMi4xMTE2LDMuMTc0NCAtMy4xMTExLDQuODAxOCAtMS42NzIxLDIuMTQwMiAtMy4xNDk3LDQuNDIgLTQuNTc0OSw2LjcyOTUgLTEuNDA5NCwyLjYyMTcgLTMuMDkxOSw1LjA3MzIgLTQuODI5Niw3LjQ4NCAtMS4zNjQxLDIuMDA1NSAtMi43OTg0LDMuOTU5OSAtNC4yMjgsNS45MTg4IC0xLjQyMiwxLjgzMzQgLTIuNjEyLDMuODI3MSAtMy44NTQyLDUuNzgyNyAtMS4wODk1LDEuODM3OSAtMi4yNzYyLDMuNjExNiAtMy40MjgsNS40MTA5IC0xLjE0NywxLjY3NjYgLTIuNDU1OSwzLjIzMjMgLTMuNzA0OCw0LjgzMjMgLTEuNTIwNiwxLjk2NDggLTIuNjQzOCw0LjE4NDMgLTQuMDAxNCw2LjI1NjkgLTEuNDQ1OSwyLjA0NzkgLTIuODQzLDQuMTI1MyAtNC4zMjMxLDYuMTQ5NSAtMS4wNzg5LDEuNjI5NyAtMi4zMTg3LDMuMDkwMyAtMy42MTcxLDQuNTQzNyAtMS4zNjcxLDEuODEwMSAtMi44OTc3LDMuNDg3IC00LjM1MjIsNS4yMjY0IC0yLjkwMTcsMy43NDY0IC01Ljc1MTQsNy41MzE4IC04LjU5NjMsMTEuMzIxIC0yLjY2MjgsMy40NTcgLTUuMjY0OSw2Ljk1ODcgLTcuOTM0NiwxMC40MSAtMS40NzM2LDEuODI3MiAtMy4wNTU3LDMuNTU0NiAtNC42OTQ1LDUuMjMyNSAtMS4yODgxLDEuMDgzNiAtMi40MzE0LDIuMzE5NSAtMy42NDg0LDMuNDc3NyAtMS4zNzMsMS41Njc0IC0yLjc5OTQsMy4wODc0IC00LjE4MDIsNC42NDc2IC0xLjI5MDksMS41NjI0IC0yLjY2MTQsMy4wNTY3IC0zLjk2MzgsNC42MDc4IC0xLjU4MjIsMS45MjA0IC0zLjEzODcsMy44NjA0IC00LjY1MTEsNS44MzYzIC0xLjM2MTUsMS4zNzA2IC0yLjI3NSwzLjA5MzEgLTMuNjAxNCw0LjQ4NSAtMS4xMTgsMC45MTYyMyAtMS44Nzc1LDIuMTY4NSAtMi45NTQ3LDMuMTE1MSAtMS41NTYxLDEuMjg2NiAtMi45MDQ2LDIuNzc3MiAtNC4yMjI0LDQuMzAyNyAtMS42NDU0LDEuODQ2IC0zLjA0NywzLjg5MDIgLTQuNTg2LDUuODIyNCAtMS4yNjA3LDEuNDE0IC0yLjM5MzYsMi45MzI4IC0zLjUzOTUsNC40MzkxIC0wLjg4MjA1LDEuMTQzIC0xLjkyNiwyLjE0MTIgLTIuODcyNiwzLjIyNTQgLTAuOTI3NDgsMS4yMzU4IC0xLjcwMDgsMi41NzU2IC0yLjU3MzgsMy44NDc5IC0wLjExMTE2LDAuMTc3MzMgLTAuMjIyMzIsMC4zNTQ2NiAtMC4zMzM0OCwwLjUzMTk5IGwgLTEzLjMyLDUuNzI2OSBjIDAuMTM2MzcsLTAuMTQ2OTQgMC4yNzI3NSwtMC4yOTM4OCAwLjQwOTEyLC0wLjQ0MDgyIDAuNzk5MDYsLTEuMzEzNCAxLjY0MTYsLTIuNjE3MiAyLjU1MjksLTMuODUzMyAwLjY4ODMzLC0xLjM2MjggMS45MjI5LC0yLjE5NjcgMi44MTI2LC0zLjQxNDYgMS4zNjExLC0xLjM0MzkgMi4yODEyLC0zLjA1NzMgMy41ODMyLC00LjQ2MzcgMS43MzgxLC0xLjc3MzcgMy4wMDkyLC0zLjk0NTMgNC41OTc2LC01Ljg0NzggMS4zNjgyLC0xLjQzNzIgMi40ODExLC0zLjE5MSA0LjA5ODcsLTQuMzU3NiAxLjM5NTksLTEuNDY4MSAtMC40MzY0NywwLjM3MzM4IDEuMDUwMSwtMC44NjAyNiAwLjc2NDQxLC0wLjYzNDM0IDAuOTUyNjMsLTEuNzc2OSAxLjk1MzksLTIuMTg0NiAwLjcyMzI1LC0wLjgwNTM0IDAuMzMyMDMsLTAuNDMwNjkgMS4xNzQ5LC0xLjEyMjYgMC45NjIyMiwtMC45OTY5OSAxLjM1NTUsLTIuNDU4OCAyLjUxNDksLTMuMzA0NiAxLjYyNiwtMS44NTk1IDIuOTYyNiwtMy45Njg1IDQuNjU5NCwtNS43NzMxIDEuMTM5MiwtMS43MDE4IDIuNjU1OCwtMy4xMDIyIDMuOTU3LC00LjY3OTUgMS4yNjk4LC0xLjY0MjggMi43OTk3LC0zLjA1OCA0LjA4NTcsLTQuNjkwOCAxLjA2OTUsLTEuMzE4NyAyLjQwNDgsLTIuNDI2OSAzLjYyNjIsLTMuNjAxMyAxLjgyNTUsLTEuNDk1MyAzLjI3LC0zLjM2OTYgNC45MDQyLC01LjA2NDMgMi43NDA2LC0zLjQ1ODcgNS40Mjc4LC02Ljk1NDUgOC4xMDU2LC0xMC40NjIgMi44NTYyLC0zLjcwMzcgNS41OTcxLC03LjQ5ODQgOC4zNzQ2LC0xMS4yNjIgMS4zNTk4LC0xLjc4ODUgMi45MDc0LC0zLjQyMzggNC4yODY1LC01LjE4NTkgMC43ODczNiwtMS4xMzU3IDEuODY2NSwtMS44MjgyIDIuNTg2LC0yLjg5NTUgMC4xODA1MSwtMC4yNjc3NyAwLjI4NjYzLC0wLjU4MDAyIDAuNDU4MywtMC44NTM1NCAwLjE3ODYxLC0wLjI4NDU3IDAuMzkzNSwtMC41NDQ3IDAuNTkwMjUsLTAuODE3MDUgMS42NTIxLC0xLjg4NTcgMi45MTAyLC00LjA2NSA0LjQwMTYsLTYuMDY2NCAxLjQ0NTQsLTIuMDIwMiAyLjUyNiwtNC4yMzc2IDMuOTQzOSwtNi4yNzE2IDEuMTMyMSwtMS42OTE0IDIuNTUwNSwtMy4xNjQ0IDMuNzA5OSwtNC44Mjk4IDEuMzE0NCwtMS42MjUzIDIuMzk5NCwtMy41ODAxIDMuNDQxOCwtNS4zOTMgMS40MDkxLC0xLjg1MzMgMi4zNzI4LC00LjAyMDUgMy44Nzc0LC01Ljc5ODQgMS4zNTksLTIuMDIxOCAyLjk2NjgsLTMuODc2OCA0LjE5NzYsLTUuOTg0MSAxLjg5NSwtMi4yNTk3IDMuNTEyMywtNC43NzIzIDQuOTY4LC03LjMzNDMgMS4yOTg2LC0yLjM2OTYgMi43OTYzLC00LjY0NjEgNC40MDM2LC02LjgxMTkgMC42MzcxMSwtMC43NDEyMiAwLjk1OTc0LC0xLjQ4MTcgMS40NDIxLC0yLjMxOTUgMC43NDk1MywtMS4zMDE4IDAuMjg2NzYsLTAuMzE2NTggMS4xNDc5LC0xLjU1MzggMC4yMDQ4NSwtMC4yOTQzMSAwLjM2Njk4LC0wLjYxNjE2IDAuNTUwNDcsLTAuOTI0MjQgMC41OTM5NSwtMC44MTQzOSAxLjA5MjksLTEuNjc4NyAxLjY2NjgsLTIuNTAyNyAwLjM1ODM2LC0wLjUxNDUxIDAuODg4MTUsLTAuODk0NTcgMS4yNDQ2LC0xLjQxMDQgMC4xODQsLTAuMjY2MjIgMC4yNzYwMiwtMC41ODU0MyAwLjQxNDAzLC0wLjg3ODE0IDEuMjYsLTEuNTQ4MiAtMC4xOTk2NywwLjMxNjUzIDEuMDMyNiwtMS41MTYyIDAuODMwMTcsLTEuMjM0NiAyLjAyNzIsLTIuMTk5NiAyLjcyMDksLTMuNTQyNCAxLjc4NjQsLTIuMTA1NSAzLjcxNTksLTQuMDk1MSA1LjI5NjcsLTYuMzYzNCAyLjE0MiwtMi42NDUyIDQuMjIxMywtNS4zMTIgNi4wODA2LC04LjE2NyAyLjA4MzEsLTIuODM1MiA0LjUwNTgsLTUuMzUxNCA2Ljg4NiwtNy45MjkyIDEuNzQyOCwtMi4wNjIzIDMuNjI4OCwtMy45OTQzIDUuMzk4OCwtNi4wMzM4IDEuNzc4MiwtMS42Nzg1IDMuMTE1LC0zLjY4ODkgNC41ODI0LC01LjYzIDAuOTkzMTYsLTEuNzc0OSAyLjU1NjgsLTMuMTc3MyAzLjQzNTgsLTUuMDM0NyAxLjAyNTMsLTEuNTMxNiAyLjQxMjQsLTIuNzYxIDMuNjQxOSwtNC4xMjU5IDIuNTUxLC0zLjIzMzUgLTEuMzI1MSwxLjYyMzMgMS40MDMyLC0xLjYwNDIgMC45NzUyMiwtMS4xNTM3IDEuNjg3NywtMi41Mzk0IDMuMDAwMywtMy4zODE0IDAuNTUxMzMsLTAuNTkyOTMgMS4xODQ2LC0xLjEwODUgMS43MTMyLC0xLjcyMTggMS4yMTQ2LC0xLjQwOSAyLjE3MDYsLTMuMDczMiAzLjYxMywtNC4yOTMxIDIuMzk3NSwtMi43NjE3IDUuMTcxMiwtNS4xNjQ3IDcuNzgyOSwtNy43MDk3IDIuMjAwMywtMi4yMzU2IDQuMjM0MywtNC42MTE0IDYuMjQ5MSwtNy4wMTU2IDIuMDE2OSwtMi41MzIyIDMuOTQ0NSwtNS4xMzIyIDYuMDc5NCwtNy41Njk1IDIuMjU5NiwtMi4zODI5IDQuNTEyOSwtNC43NzEzIDYuNzg4MSwtNy4xMzQ2IDIuMjY5NiwtMi41Mjg3IDQuNzgzMywtNC43OTQ3IDcuMDY1LC03LjMwOTQgMi4zOTkyLC0yLjQ3NDIgNC41MjIyLC01LjE4ODQgNi45NDA1LC03LjY0NSAyLjUzNDQsLTIuMjg2MiA0Ljc4MTcsLTQuODIyNiA3LjA4NDYsLTcuMzM5OSA0LjM0MDUsLTQuMTIwOSA4LjUzMjgsLTguMzg1NyAxMi43NjQsLTEyLjYxOCA0LjYwMzksLTQuODM0NSA5LjQ3NDQsLTkuNDQzIDEzLjUxMywtMTQuNzgyIDMuMTUwNiwtMy43OTExIDYuMDc2NiwtNy43MjE5IDguOTEyMywtMTEuNzUyIDMuNzA2LC00LjcwNzQgNy4yOTc4LC05LjUwOTIgMTAuODI0LC0xNC4zNTQgMi45MTAyLC00LjMxNTkgNi4xNywtOC4zNjg3IDkuMzI3MSwtMTIuNTA0IDIuODIzOCwtMy4zMDg5IDUuNzM4LC02LjU0NzkgOC4yNDAzLC0xMC4xMTIgMCwwIDEzLjI0MiwtNS43NDMgMTMuMjQyLC01Ljc0MyB6IiBzdHlsZT0ib3BhY2l0eTowLjYxMzM4MDA0O2ZpbGw6IzkxODA3MDtzdHJva2U6IzU2M2MxNTtzdHJva2Utd2lkdGg6Mi4yMDAwMDAwNTtzdHJva2UtbGluZWNhcDpyb3VuZDtzdHJva2UtbGluZWpvaW46cm91bmQiIGlkPSJwYXRoMzk3MCIvPiYjeGE7ICAgIDxwYXRoIHN0eWxlPSJmaWxsOnVybCgjbGluZWFyR3JhZGllbnQ0MTY3KTtzdHJva2U6Izg2MWMwMDtzdHJva2Utd2lkdGg6NS41OTk5OTk5O3N0cm9rZS1saW5lY2FwOnJvdW5kO3N0cm9rZS1saW5lam9pbjpyb3VuZCIgZD0ibSA0MjIuNTEsNTkyLjg3IGMgNDkuOTI1LC05MC4wNyAxMDUuODksLTE3MS45NCAxOTEuNzgsLTIxMy4yIDEyMi43OCwtNTQuMjE0IDI1Ni4zNiwtMzcuNjQzIDM0My42NSwtODguNTkgMTkuMTc1LDMuODk0MSAyNi4yMDYsNy43ODgxIDI3LjI1OCwxMS42ODIgMTMuODMyLC0yLjAyOSAyNi43MjYsLTIuMTgwNCAzNy45NjcsMC45NzM1MSAwLDAgMTMuNjI5LDcuNzg4MSAxNy41MjMsOS43MzUyIDMuODk0MSwxLjk0NyAxOS40NywxMy42MjkgMjEuNDE3LDE3LjUyMyAxLjk0NywzLjg5NDEgMTIuNjU2LDI5LjIwNiAxMC43MDksMzMuMSAtMS45NDcxLDMuODk0MSAwLjk3MzUsMjIuMzkxIDAuOTczNSwyMi4zOTEgLTAuNDI3OCwxNC45MTMgLTMuMzI5NiwzNy4yNDcgMC45NzM1LDM3Ljk2NyBsIC05LjczNTIsMTEuNjgyIGMgMCwwIC0xNC4xMjIsOC40NzYzIC0yNC4zMzgsMjUuMzExIC03LjYwMzksMTIuNTMxIC0xOC40OTcsMTEyLjkxIC00NS43NTUsMTc0LjI2IC04LjQ4NTIsMTcuODk2IC03NS4wNjksOTEuOTQ0IC04OC41OSwxMTYuODIgLTEuMTA4MSwyMS43MzQgLTIwLjY3Nyw1NS42OTQgLTM3Ljk2Nyw3Ny44ODEgLTkuODQ0MSw2LjU5NzkgLTE3LjczMiwxNC4xNzQgLTIyLjM5MSwyMy4zNjQgLTUuMzc2Miw2Ljk5ODggLTExLjg2MiwxNS4xMDggLTIyLjM5MSwyNy4yNTggbCAtMTcuNTIzLDIwLjQ0NCBjIC0yMi4wMTMsMTguOTgxIC00OC44MjYsMjMuNTYyIC03NS45MzQsMjcuMjU4IC0xMDguMDYsMjIuNDQgLTMzMS40NSwtOTEuNjIgLTMzNCwtMjUxLjE1IDUuNzQ5NiwtMjIuODEgLTIuODMyOSwtMTkuODIzIDI2LjI4NSwtODQuNjk2IHoiIGlkPSJwYXRoMzc5MSIvPiYjeGE7ICAgIDxwYXRoIHN0eWxlPSJvcGFjaXR5OjAuNTcyNDg5OTY7ZmlsbDojNGYxYTAwIiBkPSJtIDc4MC43Niw3MTQuNTYgMzQuMDczLDE3OS4xMyA0Ny43MDIsLTU4LjQxMSBjIDI2Ljc3OSwtMzIuMzkgNTIuNSwtNjIuOTYzIDQ1Ljc1NSwtODcuNjE3IDIzLjE2NCwtMzYuMjY5IDUyLjU3LC03Mi4zNjUgODMuNzIyLC0xMTAuMDEgMjcuNDM3LC01OC43NiAzNC43MjksLTEyMC44OCA0Ny43MDIsLTE4Mi4wNSAxMi4zMDQsLTExLjY4MiAzMi40MDEsLTIzLjM2NCAzMy4xLC0zNS4wNDcgLTEuMDQzNywtMzUuODk3IC0yLjI0ODgsLTcwLjAxOSAtNS44NDExLC03Ny44ODEgLTE3LjM1MiwyMC45MzkgLTIwLjIxOSw1Ni4zNjQgLTU4LjQxMSw1Ni40NjQgLTEwLjc5Myw3Ljk3OCAtMjUuODQ0LDU4LjU0NiAtMzguOTQxLDg5LjU2NCAtMTQuMTY4LDM0Ljg0IC0zNC43OTEsMzkuOTQgLTQ4LjY3Niw5My40NTggbCAtMTMuNjI5LDgxLjc3NSBjIC0xMS40MDksMTEuMzk4IC0yMS45NjksMjMuOTI3IC00MC44ODgsMjUuMzExIC02Mi45OTksLTMuNzE4OSAtNjIuNDkxLDE0Ljk3NiAtODUuNjcsMjUuMzExIHoiIGlkPSJwYXRoNDEwOCIvPiYjeGE7ICAgIDxwYXRoIHN0eWxlPSJmaWxsOiNmZmZmZmYiIGQ9Im0gNDIwLjU2LDYwNC41NSBjIDc3LjE3NywtODcuMDUzIDE4My4yMiwtMzQuNDEyIDI0NC4zNSwyMC40NDQgNjAuNDMsNTIuODk0IDEzMC4wNiw3MS43MTYgMTM3LjI3LDkxLjUxMSAxOC44MTQsMTcuODMzIDE0Ljk2Nyw3Ny4zNDQgMjEuNDE3LDE2NC41MiAtMjUuNTI1LDMzLjMyNCAtMzMuODY3LDQxLjc3OSAtMTE1Ljg1LDUwLjYyMyAtMTMyLjc5LC0xMi41NDIgLTIzOSwtNjkuMzkxIC0zMDEuNzksLTE5OC42IC04LjcyMTIsLTQwLjE0OSAtMTQuOTQ0LC03Mi40NTUgMTQuNjAzLC0xMjguNSB6IiBpZD0icGF0aDM5NzYiLz4mI3hhOyAgICA8cGF0aCBzdHlsZT0iZmlsbDojYmIyYTAwIiBkPSJtIDQ0OS43LDYzMC42OCBjIDY1LjEwNCwtNzIuNTI3IDE1NC41NiwtMjguNjcgMjA2LjEzLDE3LjAzMiA1MC45NzYsNDQuMDY4IDEwOS43MSw1OS43NDkgMTE1Ljc5LDc2LjI0IDE1Ljg3LDE0Ljg1NyAxMi42MjYsNjQuNDM4IDE4LjA2NywxMzcuMDcgLTIxLjUzMiwyNy43NjQgLTI4LjU2OSwzNC44MDggLTk3LjcyNSw0Mi4xNzUgLTExMi4wMiwtMTAuNDUgLTIwMS42MSwtNTcuODIgLTI1NC41OCwtMTY1LjQ2IC05LC0yNi4xNSAtMTkuMTcsLTUxLjQ0IDEyLjMyLC0xMDcuMDYgeiIgaWQ9InBhdGgzOTc2LTIiLz4mI3hhOyAgICA8cGF0aCBzdHlsZT0iZmlsbDojOGIyYTAwIiBkPSJtIDc3NS4zNCw3MjkuMDEgYyAtMzcuMDk3LDQ4Ljg5OCAtODkuMjY5LDkzLjYxNSAtMTg0LjkxLDkzLjYxNSAtMjguMjUxLDAgLTg1LjUwNywtMTMuNjczIC0xMTAuNjIsLTE5LjExNSA1My4xOTMsNjIuNjE0IDEyNi4yMiw5Mi42MDMgMjEyLjU2LDEwMC42NiA2OS4xNTYsLTcuMzY3OSA3Ni4xODcsLTE0LjQyNCA5Ny43MTksLTQyLjE4OCAtNS4wMjA4LC02Ny4wMjMgLTIuNjc2OCwtMTE0LjM3IC0xNC43NSwtMTMyLjk3IHoiIGlkPSJwYXRoMzk3Ni0yLTYiLz4mI3hhOyAgICA8cGF0aCB0cmFuc2Zvcm09Im1hdHJpeCgwLjc1MDU1LDAuNDIyMzksLTAuMzU0MzUsMC44OTQ2Nyw3MTkuMDEsLTM0MC43MikiIGQ9Im0gNjE3LjIwOTc2LDEwNjguOTIxNiBhIDE1NC43ODkyLDcwLjA5MzIyNCAwIDAgMSAtMTU0LjAxNzU3LDcwLjA5MjQgMTU0Ljc4OTIsNzAuMDkzMjI0IDAgMCAxIC0xNTUuNTUzMTMsLTY5LjM5MzUgMTU0Ljc4OTIsNzAuMDkzMjI0IDAgMCAxIDE1Mi40NjY2OSwtNzAuNzg0MjUgMTU0Ljc4OTIsNzAuMDkzMjI0IDAgMCAxIDE1Ny4wNzMyNCw2OC42ODc4NSIgc3R5bGU9Im9wYWNpdHk6MC42NDY4Mzk5OTtmaWxsOiM0ZjFhMDAiIGlkPSJwYXRoNDEwNiIvPiYjeGE7ICAgIDxnIHRyYW5zZm9ybT0idHJhbnNsYXRlKDI5Mi4zMSwtMjcuNzcxKSIgaWQ9Imc0MDg5Ij4mI3hhOyAgICAgIDxwYXRoIGQ9Im0gMzE1LjQyLDc1MS4wNyAtMzUuMDQ3LDQyLjM0OCAxMC43MDksMjUuNzk4IC0zOC45NDEsLTE3LjUyMyAtOS43MzUyLDE0LjYwMyAxMC43MDksMjYuNzcyIDI0LjMzOCwxOC45ODQgMzEuMTUzLDE2LjU1IDM2Ljk5NCw2LjMyNzkgMjQuMzM4LC02LjgxNDYgNDAuNDAxLC03NC40NzQgYyAyLjkzOTEsLTIwLjUzNSAtNDUuOTA2LC02Ni43MjYgLTk0LjkxOCwtNTIuNTcgeiIgc3R5bGU9ImZpbGw6I2ZmZmZmZiIgaWQ9InBhdGg0MDg3Ii8+JiN4YTsgICAgICA8ZyB0cmFuc2Zvcm09InRyYW5zbGF0ZSgxMTcuMzEsMjMuODUxKSIgaWQ9Imc0MDcyIj4mI3hhOyAgICAgICAgPHBhdGggZD0ibSAyMTcuNDgsNzg2LjcxIGMgMS4xMDE0LC0wLjcxNjk3IDIuMDU0OCwtMS42MTUzIDIuOTI1OSwtMi41OTI2IDAuNzc3NjUsLTAuODg0ODggMS41Mjk1LC0xLjc5MSAyLjI4NjEsLTIuNjkzNyAwLjUxMjY0LC0wLjYzMTk4IDAuODg2OSwtMS4zNTA2IDEuMjk4NywtMi4wNDY0IDAuMjg3NjUsLTAuNjU4NDkgMC42Njc3OSwtMS4yNTc3IDEuMDU4MSwtMS44NTcyIDAuMzM2OTYsLTAuNjIyMTQgMC43MzUzNiwtMS4yMTMzIDEuMjExNiwtMS43MzcxIDAuNTM3NjUsLTAuNDgyMzcgMC44NDg4OCwtMS4wNzIxIDEuMTgyMSwtMS42OTc3IDAuMjkyMzksLTAuNzc4MzggMC43OTA1MywtMS40NDE4IDEuMTYzMywtMi4xNzk2IDAuMzg4NDUsLTAuOTA2ODYgMC42NjAxMywtMS44NTI5IDEuMTM1NywtMi43MjE0IDAuMzU5NTIsLTAuNjU2NDEgMC42ODMyNiwtMS4zMzMzIDEuMDU2NywtMS45ODE2IDAuMzc5OTMsLTAuNjAxMDMgMC43NjA3OSwtMS4yMDA5IDEuMTM4NiwtMS44MDQ3IDAuNDc5MjksLTAuNTQwOTYgMC43MTk5NSwtMS4yMjU1IDEuMDM4LC0xLjg2MzQgMC4zNjM3NywtMC42MDMyNiAwLjc1NDQ1LC0xLjE5OTkgMS4wMjg2LC0xLjg1MDMgMC4yMDUxOSwtMC43NTgxMyAwLjQ4MjgzLC0xLjQ4OTggMC42MzczMiwtMi4yNjEgMC4xNDIyNywtMC43NzI2MSAwLjQxODg3LC0xLjUwNTggMC43MjE1MiwtMi4yMjY3IDAuMzA3NDksLTAuODEzMTggMC4zMzkxNiwtMS42ODk2IDAuNTA5MTQsLTIuNTM1NSAwLjE1Njk1LC0wLjg1NDkzIDAuNDE4MjMsLTEuNjk1MSAwLjc4MTc3LC0yLjQ4NDggMC4yNDg3NiwtMC40Nzg1OCAwLjM2MzM4LC0xLjAwNDUgMC40OTQ4NiwtMS41MjI4IGwgNi41Mjc2LC0zLjEwMDQgYyAtMC4xNzIwOSwwLjUzNjI3IC0wLjIyMzQzLDEuMDk3OCAtMC40Mzc0NiwxLjYyMjQgLTAuMzU1MjcsMC43NTE3NyAtMC43MjY1NCwxLjUxMiAtMC44NjczMiwyLjM0MDYgLTAuMTg5MDIsMC44NzM1OSAtMC4yNTgzOCwxLjc1MzEgLTAuNDQ3MTQsMi42MjY1IC0wLjIzNTE4LDAuNzE1NzMgLTAuNTk4NTMsMS4zNjk5IC0wLjc4ODAxLDIuMTA0OSAtMC4xMTAwMiwwLjgxODUgLTAuMzY1NTgsMS41NzQyIC0wLjU4MjQ5LDIuMzYwNCAtMC4xOTI1MSwwLjc0MjI3IC0wLjU3NTAyLDEuMzU0NiAtMC45NDgwNSwyLjAxNDEgLTAuNDgyOCwwLjU3MjA5IC0wLjU5MjEzLDEuMzEzNiAtMS4wMTA0LDEuOTI0NSAtMC41MDExNywwLjUwMDk3IC0wLjY5NjksMS4xODkyIC0xLjE4OTEsMS42OTUzIC0wLjM0NjI5LDAuNjcwMTQgLTAuNzM5NTEsMS4zMDk3IC0xLjA2MywxLjk4OTggLTAuNDgyNTMsMC44NjAxMyAtMC45Mjg2OCwxLjcxMzEgLTEuMTcwNSwyLjY4MjggLTAuMTc5OTksMC40MTY1NyAtMC4zMzU3NCwwLjg1NDgxIC0wLjU5NjcxLDEuMjMwMiAtMC4xNjU5MiwwLjIzODY4IC0wLjI5NDg2LDAuMzA4MDggLTAuNDE2NDEsMC41NzMzNyAtMC4wNTUzLDAuMTIwNjUgLTAuMDgxMywwLjI1MjY2IC0wLjEyMTk1LDAuMzc5IC0wLjA1MTUsMC4xMTMwMiAtMC4xMDI5LDAuMjI2MDUgLTAuMTU0MzYsMC4zMzkwOCAtMC4wNjA5LDAuMDk3MyAtMC4xMzQ5OCwwLjE4NzQ5IC0wLjE4Mjc3LDAuMjkxODUgLTAuMjA5MzUsMC40NTcxMyAtMC4yOTUwOCwwLjk0MTg1IC0wLjc3NTc1LDEuMjE2NiAtMC40MDY3OCwwLjU1MDk1IC0wLjkyNjg5LDEuMDA0NCAtMS4yNzEsMS42MDY2IC0wLjI4OTMsMC42Njg2NCAtMC44Mzk1MywxLjE2MzcgLTEuMDU0NywxLjg2OTYgLTAuMzg2MzMsMC43NDc1IC0wLjgxODQzLDEuNDU4MyAtMS4yNzI1LDIuMTY3MiAtMC43MTcxLDAuOTQ1NDkgLTEuNTMwOSwxLjgxMzEgLTIuMjkwNCwyLjcyNjMgLTAuODUwODQsMS4wMTc0IC0xLjc1OSwxLjk2NiAtMi44MjIxLDIuNzYxMiBsIC02LjczMzQsMi42MzQ2IHoiIHN0eWxlPSJvcGFjaXR5OjAuNzk5MjYwMDQ7ZmlsbDojOWE4ZDgwIiBpZD0icGF0aDQwNjIiLz4mI3hhOyAgICAgICAgPHBhdGggZD0ibSAxNTAuMzksODIwLjcgYyAxLjUwNDYsMC40OTEwNiAyLjk0MzQsMS4xNTMzIDQuNDI2OSwxLjcwMTcgMC45NjE3MywwLjQwNjA2IDIuMDA4LDAuNjI5MTEgMi45NjM5LDEuMDM4NiAwLjcwOTE2LDAuMjY5MTEgMS4zMzkxLDAuNzQxNjkgMS44NjksMS4yNzk3IDAuNDczNDMsMC42NTE3MiAwLjkwNzE5LDEuMzI2OCAxLjM3MTksMS45ODM3IDAuNDQxODMsMC42ODI2NCAwLjk3MDEzLDEuMzA2MSAxLjQzMDgsMS45NzczIDAuNDE5MDMsMC41MDI5NSAwLjkwMjQ1LDAuOTY5NDMgMS40ODcsMS4yNzIzIGwgLTYuMDc1MywzLjkyODEgYyAtMC42MjE1OCwtMC40MjEzMyAtMS4xODE0LC0wLjkzNjIxIC0xLjYzNTMsLTEuNTM2NyAtMC40Njk5OCwtMC42NjQ5NCAtMS4wMTIzLC0xLjI3OTMgLTEuNDQyOSwtMS45NzE3IC0wLjQyNjQ5LC0wLjYyNTgzIC0wLjg0MjE1LC0xLjI1NSAtMS4zMDUsLTEuODU1OSAtMC41MDIzOCwtMC40NDk4IC0xLjA1NTYsLTAuODMyNzUgLTEuNzAyOCwtMS4wNDM4IC0wLjk4MzkyLC0wLjMyOTkyIC0xLjk0NTgsLTAuNzA3ODcgLTIuOTE4MiwtMS4wNzA0IC0xLjQ2MTEsLTAuNTg4MjIgLTIuOTAzNCwtMS4yMjUxIC00LjQzNDksLTEuNjE3OCBsIDUuOTY1LC00LjA4NTIgeiIgc3R5bGU9Im9wYWNpdHk6MC43OTkyNjAwNDtmaWxsOiM5YThkODAiIGlkPSJwYXRoNDA2OCIvPiYjeGE7ICAgICAgICA8cGF0aCBkPSJtIDIzMS4wNyw4MjcuNiBjIDEuMzQ5MSwtMC40NjAyMyAyLjY4ODgsLTAuOTYwMjYgNC4wNTc4LC0xLjM1OTkgMC45MTczNywtMC40NDE4MiAxLjkzMywtMC43MjYzOCAyLjc5NjgsLTEuMjY5OSAwLjgxMjM2LC0wLjM2NTM1IDEuNjM1NiwtMC42Nzc0NyAyLjM4ODIsLTEuMTYyOSAwLjE1NDIsLTAuMDgxMiAwLjYxMzMzLC0wLjMzMDg5IDAuNDYyNTgsLTAuMjQzNTEgLTEwLjE0Niw1Ljg4MTQgLTYuOTEzMiwzLjkyOTcgLTQuNzQ0LDIuNjc4OCAyLjIxNCwtMS4yNzY4IDQuNDI3OCwtMi41NTQyIDYuNjU1NywtMy44MDY3IDEuOTI2MiwtMS4wODMgLTMuODMzOSwyLjE5ODcgLTUuNzUwOCwzLjI5OCAyLjY0OTksLTIuMjI1OCA1LjU1ODIsLTMuMjMwOSA4LjQ1MjIsLTQuNjkxNSAtMC4yNzQwNCwwLjA4NTQgMS4wODY2LC0wLjYyMTI1IDAuODE1NzcsLTAuNDY0NDYgLTEuNzk3MSwxLjA0MDUgLTcuMjE0OCw0LjExNTggLTUuNDE3OCwzLjA3NTMgMC43NzAzMSwtMC40NDYgMTUuNjUxLC04Ljk4NzQgMC43Mjg2LC0wLjQyMTE5IDAuNjg3MDgsLTAuNDAwNzIgMS4zMTIyLC0wLjg5MjE3IDEuOTY5MywtMS4zMzkxIDAuNTg3NzYsLTAuNTg5MjYgMS4xODc4LC0xLjE1MjQgMS44MDk3LC0xLjcwMzkgMC42MTIyNCwtMC42MjkyMiAxLjE3NzQsLTEuMjkzIDEuNzE0MiwtMS45ODc4IDAuNjA2NDcsLTAuNzQxODUgMS4xODQ0LC0xLjQ5MDYgMS43MTA5LC0yLjI5MTkgMC41NTU3MywtMC45Mjc0MyAxLjA0NzQsLTEuODgzNCAxLjQ5NzQsLTIuODY1OCAwLjMxMTEsLTAuODA2MyAwLjg2OTg0LC0xLjQ3NDggMS4yNTMxLC0yLjI0MDIgMC4yOTg4NCwtMC42Nzk2IDAuNjA5MywtMS4zNTI4IDAuOTI0NDksLTIuMDI0OSAwLjI0NzM1LC0wLjc4ODAxIDAuNTg5MTYsLTEuNTM3MSAwLjkyMDQzLC0yLjI5MTYgMC4zNzMyOSwtMC44ODI1MSAwLjg4Mzc3LC0xLjY5ODQgMS4zNDk3LC0yLjUzMzkgMC40Mjg2OSwtMC44MjcwMSAwLjk0MTU4LC0xLjU5NyAxLjQzMzYsLTIuMzg1NCAwLjQzMzE2LC0wLjcxMjYzIDAuODA2NTUsLTEuNDUzNSAxLjI3NDMsLTIuMTQ0NCAwLjQ1NjY5LC0wLjc2ODAzIDAuOTMxMzYsLTEuNTI4OCAxLjUyNDksLTIuMTk4OCAwLjU5MjIzLC0wLjU5NDA1IDEuMDIyMiwtMS4zMjIyIDEuNTEzLC0xLjk5NzYgMC40NzE3NywtMC42MTEyNSAxLjA0NDQsLTEuMTMxMSAxLjU1NjMsLTEuNzA1MyAwLjM2NzA2LC0wLjYyMjUgMC45NTMyMiwtMS4wNDcxIDEuNDY0NiwtMS41Mzg3IDAuNTczNzIsLTAuNDg3NDcgMS4xMjAyLC0xLjAwNDIgMS42NjcyLC0xLjUyMTYgMC40MTI5MywtMC40NTc2OSAwLjcyOTMsLTAuOTkwMzIgMS4xMTY2LC0xLjQ2OSBsIDYuNjQ3MSwtMi44NzEzIGMgLTAuMzUyNTEsMC41MjQzMyAtMC44MTE1MiwwLjk2OTI0IC0xLjA5MTIsMS41NDQ0IC0wLjQ4Mzk1LDAuNTk4NjggLTEuMDg5NSwxLjA2MjkgLTEuNjIyMiwxLjYwODggLTAuNTU4NDUsMC4zOTI5IC0xLjA0MDgsMC45MDA3NiAtMS41NDYyLDEuMzUzNiAtMC4zODA3MywwLjcxMzQ2IC0xLjA0NTcsMS4xNTEyIC0xLjUzMjksMS43ODUzIC0wLjYxNTc2LDAuNTg3OTkgLTAuOTY3MjYsMS4zNzggLTEuNDk2MSwyLjAzNzIgLTAuNjQ2NjQsMC41OTYzOCAtMS4xNDE2LDEuMjg2IC0xLjYwNDYsMi4wMzI1IC0wLjE5MDM5LDAuMzk1MjYgLTAuNDcwNjcsMC42NTk4MiAtMC42NzA3NiwxLjAzODQgLTAuMTk0NjUsMC4zNjgyOSAtMC4yOTM1MywwLjc4ODIgLTAuNjA2MTgsMS4wOTE2IC0wLjQwODI1LDAuODU0MzUgLTEuMDY4NSwxLjU0MjIgLTEuNDMxOCwyLjQyNDYgLTAuNTE4MjMsMC43Njg0NCAtMC44ODc0NiwxLjYyOTYgLTEuMzg1OSwyLjQxMiAtMC4yNzU4MiwwLjc3OTk5IC0wLjcyNTE5LDEuNDgzMSAtMC45MTAwMywyLjI5MDkgLTAuMjM5OTEsMC43MDQ2MiAtMC42MDkwMSwxLjM1NzggLTAuOTI3OTEsMi4wMjc3IC0wLjI3MzYsMC44NTEwNyAtMC44MjgyLDEuNSAtMS4yNjYxLDIuMjY5IC0wLjQxODUzLDEuMDA5MyAtMC44OTMxMywxLjk4ODUgLTEuNDU5NywyLjkyMyAtMC40MTAzMywwLjg4MjQ3IC0xLjAxMzcsMS42NjExIC0xLjY4MzgsMi4zNjY2IC0wLjQ3NjUzLDAuNzM4MTQgLTEuMDIxOCwxLjQ0OCAtMS42NjQ3LDIuMDQ3NSAtMC4yNjc2NCwwLjM4NzI4IC0wLjUwMzEzLDAuNTM5MzIgLTAuODY3MTIsMC44MTgwNiAtMC40MDY4OCwwLjMxMTU5IC0wLjIzNzgyLDAuMjY1NTMgLTAuNTkxNzYsMC42NTIyMiAtMC4xMDE5NCwwLjExMTM3IC0wLjIyMTQ2LDAuMjA1MjcgLTAuMzMyMTksMC4zMDc5IC0wLjUwMDQ5LDAuNjEyNDQgLTEuMjg1MSwwLjk4NTY3IC0xLjkxNDQsMS40NTk2IC0yMS43NjcsMTIuNjM1IDQuMDI4MiwtMi4zNTQ5IC0xLjExNjIsMC42NTcxOCAtMi4xODYyLDEuMjggLTQuMzczOCwyLjU1NzUgLTYuNTYzLDMuODMyMyAtMC4zOTQ1OCwwLjIyOTc1IC0wLjQzODE3LDAuMjQyOTUgLTAuODQ0NzksMC40NDQ1NiAtMi41MDYzLDEuMTA0MyAtNi42MDMyLDMuOTY2IDMuOTM3NSwtMi40MDk4IC03LjI3NTgsNC4xOTc3IC05Ljg2NDYsNS43MDA0IC0wLjkxNzg0LDAuNTA1NzcgMC4zMjY2OCwtMC4xODk2OCAtMC42MjYxOCwwLjQyMzcxIC0wLjk1MjE0LDAuNjE0NjUgLTMuODkxNiwyLjI3OTYgLTQuNjEzNSwyLjY4NjMgLTcuMDk0Nyw0LjA5MDIgLTAuNzk1NjQsMC40MDYwNCAtMS42MzEzLDAuNzI0OTEgLTIuNDE4NSwxLjE0ODEgLTAuOTQyNjgsMC4zOTY2MyAtMS44NjI2LDAuODUwOTIgLTIuODQ2NSwxLjE0MyAtMS4zNzA4LDAuNDQzNSAtMi43MzA1LDAuOTIxMDUgLTQuMDk4NCwxLjM3MzEgbCA1LjcyODUsLTQuNDEwNyB6IiBzdHlsZT0ib3BhY2l0eTowLjc5OTI2MDA0O2ZpbGw6IzlhOGQ4MCIgaWQ9InBhdGg0MDY0Ii8+JiN4YTsgICAgICAgIDxwYXRoIGQ9Im0gMjE5LjA4LDg1NC4wOSBjIDEuNzY0OSwwLjAzMjYgMy41MzAzLDAuMDIxNSA1LjI5NTUsMC4wMTU3IDEuMzgyNywwLjEyMDcxIDIuNjk0OSwtMC4xOTY1MiA0LjAyNTYsLTAuNTA0MzQgMS4zNzA1LC0wLjIyODAyIDIuNjY2OCwtMC43MTUzMiAzLjk5NTMsLTEuMDk5NSAxLjE1NDIsLTAuMTU2MTcgMi4wNjkzLC0wLjg3Mzg1IDMuMDk3MiwtMS4zNDUgMC44MTcxLC0wLjI5OTgxIDEuNTgwOSwtMC43MTE0OSAyLjM2MTYsLTEuMDg4NCAwLjEyMzU1LC0wLjA0MSAwLjI1Mzg3LC0wLjA2NTQgMC4zNzA2NiwtMC4xMjI4OSAwLjkxNzE5LC0wLjQ1MTQgLTAuMzM5ODUsMC4wMjc1IDAuNjIxMTEsLTAuMzY2MTEgMC4zNzI4OSwtMC4xNTI3NSAwLjc2MDYsLTAuMjEwMTkgMS4xMzU2LC0wLjM2Mjk3IDAuODk4NTMsLTAuMjg0MDUgMS44NDAyLC0wLjM3NzQ4IDIuNjc4MywtMC44MjgwMiAwLjEzMzk1LC0wLjA2MTIgMC41MjkzOSwtMC4yNTczNyAwLjQwMTg1LC0wLjE4MzcxIC0xLjgzMjYsMS4wNTg0IC03LjM1ODksNC4xODM2IC01LjUyNDgsMy4xMjc5IDIuMTc4MywtMS4yNTM5IDQuMzQ1OCwtMi41MjcgNi41NDE1LC0zLjc1MDIgMC41MTIxMSwtMC4xNDcyOCAwLjI3NjQ3LC0wLjA0MjIgMC43MTA4NSwtMC4zMDYxOCAwLjMzMjk0LC0wLjIzMDgxIDAuNzUxMjksLTAuMjIwODcgMS4xMTY1LC0wLjM0NzQ3IDAuMzU5NzUsLTAuMTI0NzEgMC42NzQ3MiwtMC40MjAyNCAxLjAwODcsLTAuNjAxMjUgMS4wOTgyLC0wLjQzMzMzIDIuMTczLC0wLjkxOTgyIDMuMjY2OCwtMS4zNjI4IDEuMDc3NywtMC42MTUzNSAyLjIxNzEsLTEuMTI1NyAzLjI4ODQsLTEuNzQ2NiAtMTMuMTk2LDcuNTY3IC0xLjI3OTUsMC43MzU4MSAxLjAzNzgsLTAuNjAyNyAxLjg4NTQsLTEuMDg5MSAtNy41MjgxLDQuMzc4OCAtNS42NjUxLDMuMjUxOCAyLjYwNiwtMS41NzY1IDUuMTQ1LC0yLjkxMTIgNy42OTY1LC00LjQzMTYgMy4wNTksLTEuNzU5NCAtNC45MDgzLDIuODIzIC00LjkxNzksMi44Mjg0IC0wLjIxMzcyLDAuMTIxMDIgMC40MTE1OSwtMC4yNjgxMyAwLjYxOTEsLTAuMzk5NTIgMC41ODkyOSwtMC4zNzMxMyAxLjE4OSwtMC43Mjk2MyAxLjc4MzIsLTEuMDk0NyAyLjQwMzIsLTEuNjEyMyA0Ljk2MTMsLTIuODczNyA3LjQ2NjUsLTQuMzkyMyAxLjkxNDgsLTEuMTYwNyAtMy44NzcxLDIuMjQxMSAtNS44MjI2LDMuMzQ5NSAtMC4yMDQzMywwLjExNjQxIDAuMzgwNDQsLTAuMjc4OTggMC41NDk1LC0wLjQ0MjQ0IDAuNTQ1NzcsLTAuNzMxODkgMC45Mzc1OCwtMS41NTYgMS40MTUzLC0yLjMzMjggMC40NjY1NywtMC45MDg0MyAxLjAyOCwtMS43NjUgMS40ODQxLC0yLjY3ODMgMC40MTYwOSwtMC43MTc1MSAwLjY2NzM0LC0xLjUwMjIgMC45ODMyNywtMi4yNjMxIDAuMzQ3LC0wLjcwMjM3IDAuNzQyNSwtMS4zNzY3IDEuMDQ4NCwtMi4xMDA5IDAuMzY3MDUsLTAuNzQ4OCAwLjYyNjYzLC0xLjUxODcgMC44Mjg1LC0yLjMyNTUgMC4yMTEzOCwtMC43MzA0MSAwLjYwNDcyLC0xLjM3NzUgMC44NjgxNiwtMi4wODg3IDAuMzgwNDksLTAuNzAyNTUgMC41MzI0OSwtMS40NjQ4IDAuNjE5LC0yLjI0OTggMC4xMzE5NiwtMC44Mjg1NyAwLjM0ODgsLTEuNjM1NCAwLjQ1MjMyLC0yLjQ2OTcgMC4wNDI3LC0xLjA3NzUgMC4yMjg1NCwtMi4xMzc4IDAuMzgwOTcsLTMuMjAzIDAuMDEyLC0wLjcyOTIgMC40NDk3MiwtMS43NjkzIC0wLjEwOTcsLTIuMzc3IC0wLjU0NDQ5LC0wLjA2NDYgLTEuMDUyLDAuMjczMTUgLTEuNDkwOCwwLjU2MDU2IDEwLjcxNSwtNS44Njk4IDYuODMxNywtNC4yNjc1IDQuODk1NSwtMi42NTI2IC0wLjU1ODYzLDAuNDY1OTEgLTEuMDgxOSwwLjk3NTM4IC0xLjYyMjMsMS40NjIgLTAuOTA1NTgsMC42OTYzNiAtMS41MDc2LDEuNjQ4IC0yLjEzODksMi41NzcgLTAuNTA5OTEsMC43NzQ2NCAtMS4wNjE3LDEuNTIxIC0xLjU4MjgsMi4yODc1IC0wLjQ3MTI2LDAuNzM1NjQgLTAuOTIwMjcsMS40ODQyIC0xLjM2NjksMi4yMzUyIC0wLjYwNzI0LDEuMDYwMiAtMS4yMTg4LDIuMTIxOCAtMS44Njk0LDMuMTU2NCAtMC41MzY5MywwLjcwNTY3IC0wLjkyMTgxLDEuNTA2MyAtMS4yOTQzLDIuMzA2NCAtMC4yNDk5LDAuNjk3MTUgLTAuNzA2ODgsMS4yODE0IC0xLjA1NjIsMS45MjU2IC0wLjQ0MDk5LDAuNzE3NDYgLTAuODEyMjMsMS40NzMzIC0xLjIzODIsMi4yMDEyIC0wLjUwMTM3LDAuODExMzggLTEuMDI5MiwxLjYwNTcgLTEuNTE5MywyLjQyNDIgLTAuNDQ3MDIsMC42NzE2NiAtMC43NzU0LDEuNDEwMyAtMS4yNDg4LDIuMDY0OSAtMC40MTI1LDAuNzYzODkgLTAuOTQ4MjIsMS40MDU3IC0xLjYwNDgsMS45NzA4IC0wLjc1MiwwLjYyNzgxIC0xLjU2ODcsMS4xNzE2IC0yLjMxNzYsMS44MDI4IC0yLjUyMjksMS44NTE1IC01LjMyNjksMy4yODgyIC04LjAyNjQsNC44NjA1IDAuMjMwMTIsLTAuMDYwNSAtMC45NzczLDAuNDk4MSAtMC43NDAyOCwwLjM1OTg4IDEuOTM5MSwtMS4xMzA5IDcuNzQ0NiwtNC41NDA3IDUuODQ2MSwtMy4zNDI4IC0yLjEyOTMsMS4zNDM0IC00LjM3MzcsMi40OTU1IC02LjUzOTEsMy43ODAxIC0xLjkzOTIsMS4xNTA0IDMuODk5NywtMi4yNjQ5IDUuODYwOCwtMy4zNzc3IDAuMTExMTQsLTAuMDYzMSAtMC4yMDU4LDAuMTUxNTQgLTAuMzA4NywwLjIyNzMxIC0yMS43NywxMi41MjMgNC4wNTIyLC0yLjI2MjUgLTAuOTQwMTksMC42MDAyMSAtMi4xNzY1LDEuMjQ4IC00LjMzNTksMi41MjczIC02LjU0MjUsMy43MjE0IC0xLjk5MjYsMS4wNzgzIDcuODMsLTQuNTYxNiA1LjkwMDUsLTMuMzc0IC0yLjEzMjksMS4zMTI4IC00LjM0MDcsMi40OTk5IC02LjUxMSwzLjc0OTggLTAuMTE5OTUsMC4wNDA1IC0wLjI0NjgyLDAuMDY0NSAtMC4zNTk4NSwwLjEyMTU0IC0wLjIxMjQzLDAuMTA3MTYgLTAuODE4MywwLjQ4NTg3IC0wLjYxMjQ1LDAuMzY2NTcgMS44NjM3LC0xLjA4MDEgNy40ODAzLC00LjI3NiA1LjYxOTYsLTMuMTkwNyAtMi4xNjQ0LDEuMjYyNiAtNC4zNCwyLjUwNjEgLTYuNTA5OSwzLjc1OTIgMS45NjcsLTEuMTMxMSAzLjkzMDIsLTIuMjY4OSA1LjkwMTEsLTMuMzkzMyAwLjEwMzU3LC0wLjA1OTEgLTAuMTk0OTUsMC4xMzc5OCAtMC4yOTg0NywwLjE5NzE2IC0yLjE3NjcsMS4yNDQzIC00LjMyODMsMi41MzQ3IC02LjU0MTUsMy43MTI5IC0yLjAwMTQsMS4wNjU0IDcuODM2NiwtNC41NjI4IDUuOTA1NywtMy4zNzQ0IC0yLjEzMjUsMS4zMTI1IC00LjMzNTEsMi41MDc2IC02LjUxMSwzLjc0NjkgLTEuOTczNSwxLjEyNDEgMy45MzYsLTIuMjY3NSA1LjkwNCwtMy40MDEyIC0wLjA5NDksMC4wNjk2IC0wLjE4MzE2LDAuMTQ5MyAtMC4yODQ3NSwwLjIwODcxIC0yLjI3NzIsMS4zMzE4IC00LjQ3OTUsMi44MDcxIC02Ljg1MjcsMy45NTkyIC0wLjM5OTg1LDAuMTk0MTEgLTAuNzk5ODcsMC4yNzkzNyAtMS4xODc0LDAuNTAyNDIgLTAuMTQ3OTcsMC4wNTA0IC0wLjMwMTg3LDAuMDg2IC0wLjQ0MzkxLDAuMTUxMjQgLTAuMjczMjYsMC4xMjU2MSAtMS4wNTU5LDAuNTc2MjcgLTAuNzk1NTgsMC40MjU1OCAxLjgyMjUsLTEuMDU1MSA3LjMxODksLTQuMTY5NyA1LjQ5NDcsLTMuMTE3NiAtMi4xODAzLDEuMjU3NCAtNC4zNjcxLDIuNTAzNCAtNi41NTA3LDMuNzU1MSAtMC43NzM2MiwwLjM1MTM3IC0xLjU3MSwwLjc2OTQ0IC0yLjM3OTYsMS4wMzEgLTAuMTQwMzEsMC4wMzEzIC0wLjI4NTQxLDAuMDQ2IC0wLjQyMDk0LDAuMDkzOSAtMC4xMjExOSwwLjA0MjkgLTAuMjI4NjMsMC4xMTc2IC0wLjM0Mjk1LDAuMTc2NCAtMC4xMTk2NCwwLjA0NzcgLTAuNDcwNDIsMC4yMDc1MSAtMC4zNTg5MiwwLjE0MzA0IDEuODU3MSwtMS4wNzM5IDcuNDY1MiwtNC4yMzE2IDUuNjAwMSwtMy4xNzE1IC0yLjE3OTYsMS4yMzg5IC00LjM2MDYsMi40NzUxIC02LjU0MDksMy43MTI3IC0wLjczNDY4LDAuMjUzNzYgLTEuNDQyNCwwLjU5NDY1IC0yLjE4MDksMC44NjM0MyAtMC40MzI1OCwwLjQwMzkyIC0xLjAwNTgsMC40NzM4NCAtMS41MjcyLDAuNjc3NDYgLTAuMjQxNDcsMC4wOTQzIC0wLjQ2MSwwLjIzODQ0IC0wLjY5OTkyLDAuMzM5MDQgLTIuNDczNywxLjAzMzIgLTYuOTY5OSwzLjg2MDIgNC4xNzI4LC0yLjUzMTIgLTAuMjQxNTYsMC4yMzc0OSAtMC42NDQ2OSwtMC41NTI4MyAtMC40MDU4NiwtMC42NzI2MSAwLjA4NzksLTAuMDQ0MSAwLjE5Nzk2LC0wLjAwOSAwLjI5MzAyLC0wLjAzNCAwLjEyMzY4LC0wLjAzMjcgMC4yMzg3MiwtMC4wOTIxIDAuMzU4MDgsLTAuMTM4MTIgMC45OTgxNCwtMC4zMTI1OSAxLjk3MTgsLTAuNzMyOTEgMi45MDA2LC0xLjIxNiAwLjcyMTQxLC0wLjQ3NjU2IDEuNTc3MSwtMC42NjAwMyAyLjM1MTYsLTEuMDE3IDAuMzc0MDYsLTAuMTcyNDEgMC43MjY4OSwtMC4zODc4NiAxLjA5NjIsLTAuNTcwMTkgMS4zODA0LC0wLjcwMTc4IDIuNzM0NywtMS40NTM4IDQuMDk4NCwtMi4xODkyIDIuODI3NSwtMS42NTY2IC0wLjY4ODQyLDAuNDA2NzIgLTQuNTY3NSwyLjYwNzcgLTAuMjM0NjYsMC4xMzMxNCAwLjQ2MTgyLC0wLjI3OTExIDAuNjkwMzgsLTAuNDIyNDcgMC4zNzIwNCwtMC4yMzMzNyAwLjcyMDUxLC0wLjUwMzk3IDEuMDk5MSwtMC43MjY1IDIuMjA0OSwtMS4yOTU5IDQuNDIzNCwtMi41Njg2IDYuNjM1MiwtMy44NTMgLTEuOTE5MywxLjEwNDQgLTMuODM0NSwyLjIxNiAtNS43NTgsMy4zMTMxIC0wLjEyNzU1LDAuMDcyOCAwLjI0MjIzLC0wLjE2NjY1IDAuMzY5NiwtMC4yMzk3MiAyLjE4NjYsLTEuMjU0NCA0LjM1ODYsLTIuNTM1NiA2LjU3MTksLTMuNzQyMyAxLjk3OTYsLTEuMDc5NCAtNy43OTc4LDQuNTMwNCAtNS44NzA3LDMuMzYgNi4wNjg4LC0zLjY4NTggNC4xMTgyLC0zLjE2NDggNi45NTA1LC0zLjg1OTggMi40OTEyLC0xLjIzMzQgNi43Mjc1LC0zLjcyMjcgLTQuMDQ5NSwyLjQzMTEgMi4zMzUxLC0zLjc3OCA0Ljk3ODksLTIuODI0MiA3LjY1NDQsLTQuMjMxOCAwLjI0NDYsLTAuMTI4NjcgMC40NjQ0MiwtMC4zMDEwNCAwLjcwODU3LC0wLjQzMDU1IDAuODEzMDQsLTAuMzM4NjMgMS42MTQxLC0wLjY3OTE4IDIuNDE3OCwtMS4wMzUxIDAuNzM5OSwtMC4yNTQ3MiAxLjU1NTIsLTAuNDI2NTIgMi4yMjE1LC0wLjg0NzYzIDAuNjQzMzMsLTAuMzMwMDYgMS4zNzM4LC0wLjU0MTYxIDEuOTY0NSwtMC45NjEzMSAwLjEwNzc1LC0wLjA1MzggMC40Mjc0NywtMC4yMjE3NiAwLjMyMzI1LC0wLjE2MTQgLTEuOTY1MywxLjEzODEgLTMuOTMxOSwyLjI3NDEgLTUuOTA3LDMuMzk1MSAtMC4xMDIyMiwwLjA1OCAwLjE4NTE1LC0wLjE0NjA2IDAuMjg2NjYsLTAuMjA1MyAyLjE2NDIsLTEuMjYzIDQuMzYzMiwtMi40NjY3IDYuNTA5LC0zLjc2MDYgMS45NDMxLC0xLjE3MTggLTMuOTI5OSwyLjI2OTUgLTUuOTAwOCwzLjM5MzkgLTAuMTAzNTcsMC4wNTkxIDAuMTk4NzQsLTAuMTMxODQgMC4yOTgxMSwtMC4xOTc3NiAxNy42NzYsLTEwLjA4MSAwLjQzMDgzLC0wLjIxMzQ5IDAuNjM1MTksLTAuMzM5NDggMi4xMzE2LC0xLjMxNCA0LjMyODYsLTIuNTE5IDYuNTEwNCwtMy43NDc4IDAuMTEwMDQsLTAuMDYyIDAuMjQ2MjYsLTAuMDY0MiAwLjM1OTAxLC0wLjEyMTEzIDAuMTA1NCwtMC4wNTMyIDAuMzkwOTQsLTAuMjY0MjIgMC4yODgzNywtMC4yMDU3MyAtMS45NzYzLDEuMTI3MSAtMy45NDA3LDIuMjc0OSAtNS45MTExLDMuNDEyNCAwLjUxMTA5LC0wLjQ3ODA0IDEuMDE5NCwtMC45Mzg2NiAxLjU1OTksLTEuMzgyMiAwLjU5MTM3LC0wLjM1NzQ0IDAuOTQ2ODEsLTAuOTYxMDEgMS4zOTIsLTEuNDY5NCAwLjQ1NTA4LC0wLjY0MzIyIDAuODE4MTgsLTEuMzUzNiAxLjE5MTksLTIuMDQ3NiAwLjMxMDA0LC0wLjcxMTU1IDAuNTYzNzMsLTEuNDQ5IDAuOTA0MzEsLTIuMTQ2OCAwLjM4ODUsLTAuNjY4NjkgMC43OTIxNSwtMS4zMjE1IDEuMTAyOSwtMi4wMzM0IDAuMjgwNTUsLTAuNzQxNSAwLjY1NjQyLC0xLjQ0MTEgMS4xNTQsLTIuMDU4NSAwLjQzMjU2LC0wLjU1MDggMC45OTU2NCwtMC45NjA1MyAxLjQ5MDQsLTEuNDU1OSAtMC4xODgzNywwLjA3NzMgMC4xNzQ2MiwtMC4yNDY1MiAwLjIxNDQ1LC0wLjE2NTQ5IDAuMDYzOSwwLjEzMDA4IDAuMDA5LDAuNDcxMzMgMC4xNDA1OCwwLjQxMTQ3IDEwLjY3OSwtNC44NDI4IDcuNjY4NiwtNC40NTk0IDUuNTc2OSwtMi44NTM4IC0wLjgyMzg1LDAuNzA1MDMgLTEuNTUxMiwxLjUwNyAtMi4yODU2LDIuMzAyNiAtMC43NjMzNywwLjY4OTkzIC0xLjM3NjUsMS40OTY1IC0xLjk2MjMsMi4zMzY0IC0wLjQ3NTY5LDAuNzQ2MDkgLTEuMDQ0NCwxLjQyMzcgLTEuNTY4OSwyLjEzNDMgLTAuNDkzNTUsMC43NDA4OSAtMS4wNTc5LDEuNDA3OCAtMS40NTI4LDIuMjA5MyAtMC40Mjg4NywwLjgxODM1IC0wLjg2NzIyLDEuNjI5NSAtMS4zNDg1LDIuNDE4MiAtMC4zOTM4NywwLjc5NjUyIC0wLjg0MjczLDEuNTU1NSAtMS4zNDc4LDIuMjg1MyAtMC40ODY3NCwwLjUzOTQ1IC0xLjA4NTYsMC45NzY5OCAtMS42NjY4LDEuNDExOSAtMi4zNTk3LDEuNzM1MiAtNS4wMjE1LDIuOTY0IC03LjUzOCw0LjQ4MjEgLTEuOTMxMSwxLjE2NSAzLjkwNzQsLTIuMjUzNiA1Ljg2NTksLTMuMzcyIDAuMTEwNTMsLTAuMDYzMSAtMC4yMTQ0NSwwLjEzNzE3IC0wLjMyMTY3LDAuMjA1NzYgLTIuMzQ4NiwxLjM4NzIgLTMuNTQzMiwyLjA5NDUgLTYuOTE1LDMuOTk0IC0wLjEzMDA4LDAuMDczMyAtMC4yODc2NywwLjA4NDcgLTAuNDIyMywwLjE0OTI3IC0wLjM4NzYsMC4xODU4MyAtMC43MDE0OCwwLjM5Mjk1IC0xLjExNjEsMC41MzQxMyAtMC4xMjkwNSwwLjA2MzQgLTAuMjU1MTgsMC4xMzMyMSAtMC4zODcxNiwwLjE5MDMyIC0wLjk4MDc0LDAuNDI0MzcgMC4wOTgyLC0wLjEyMjgzIC0wLjc4MDQ0LDAuMzk3ODIgLTAuMTIwOTcsMC4wNzE3IC0wLjQ5NTU5LDAuMjY1NzYgLTAuMzczODQsMC4xOTU0MyA2LjEzNjksLTMuNTQ1MiA3LjY5MTYsLTQuNjUzNSA1LjU0MzYsLTMuMTQyMSAtMi43NTY4LDIuODUyNSAtNS4zOCwzLjExNjcgLTguMzEzNyw0LjUyMTcgMTIuMzgzLC03LjMyNzIgMi4yMzQsLTAuODM5MjggLTIuMTQ5MiwxLjE0ODQgMS45NjQyLC0xLjEyMyAzLjkyNDgsLTIuMjUyNCA1Ljg5MjcsLTMuMzY5MSAwLjEwNTgxLC0wLjA2IC0wLjIwMDU4LDAuMTM4MjEgLTAuMzA2MDEsMC4xOTg5MiAtMi4xNzM2LDEuMjUxNSAtNC4zNDQ0LDIuNTA3OSAtNi41MzA1LDMuNzM3NCAtMS45NzU3LDEuMTExMiAzLjkzMDEsLTIuMjU5OSA1Ljg5OTMsLTMuMzgyNCAwLjEwNDMyLC0wLjA1OTUgLTAuMTk5ODMsMC4xMzM2IC0wLjMwNDIsMC4xOTI5OSAtMi4xNzk1LDEuMjQwMSAtNC4zNjQ3LDIuNDcwMiAtNi41NDcxLDMuNzA1MiBsIDUuNjY3NiwtNC41MDM5IGMgLTEuOTU5NywxLjEzMjUgLTMuOTIxMywyLjI2MTYgLTUuODc5LDMuMzk3NSAtMC4xMDI2LDAuMDU5NSAwLjIxMDc0LC0wLjEwOTEyIDAuMzEzNDcsLTAuMTY4NDEgMi4xNjksLTEuMjUxOCA0LjMyNjIsLTIuNTIzOCA2LjUwMTQsLTMuNzY0NiAxLjk2NSwtMS4xMjA5IC0zLjkxMjgsMi4yNzE4IC01Ljg3MDgsMy40MDQ5IC0wLjEwNDgyLDAuMDYwNyAwLjIwNzQ5LC0wLjEyNDk1IDAuMzExMjMsLTAuMTg3NDIgbCA2LjUxMDEsLTMuNzcwNyBjIDYuNjQ1LC0zLjM0NSAtMTkuMDk5LDEwLjgyNyAyLjE2MjQsLTEuMTI0NiAyLjU2ODgsLTEuMDAzMiA2LjYwNTMsLTMuNjYxIC00LjA5NDYsMi42MDU5IDIuNjk5OSwtMS43NTkzIDUuNDM3NSwtMy41MTU4IDguNDE0OCwtNC43NjAzIDAuMzY3ODgsLTAuMTgxNTYgMC43MzUxOCwtMC4zNjE4MiAxLjEwMzQsLTAuNTQyMDQgMC4xMjk0OCwtMC4wNjM0IDAuNTA2ODcsLTAuMjc0NzMgMC4zODIzOCwtMC4yMDIwNCAtNi4xODEyLDMuNjA5NiAtNy42NTM3LDQuNjA1OSAtNS40NjcxLDMuMTQyMSAyLjYzODMsLTEuNDEyIC0xLjU4NTksMC44NTM4NCA2Ljg0NjEsLTMuOTY2NSAxLjk1MjcsLTEuMTE2MyAtMy44ODQ2LDIuMjY4NyAtNS44MywzLjM5NzggLTAuNjkzNDYsMC40MDI0OCAxLjYzMTQsLTEuMTM2MSAxLjAwOTYsLTAuNjY5NzYgMC41NzE4OSwtMC40MzQ0OSAxLjExNDYsLTAuODkyMDQgMS43MjU3LC0xLjI2MyAwLjYyODMxLC0wLjU5Njc4IDEuMDUzMiwtMS40MDI3IDEuNDIwNCwtMi4xNzg5IDAuNDQ2NTIsLTAuNzk5MDggMC45NjI2OCwtMS41NTcgMS4zMzgyLC0yLjM5NTIgMC4yMzY0NCwtMC4zODA5OCAwLjM1NzM1LC0wLjc5Nzc1IDAuNTk5NjEsLTEuMTc1NCAwLjQxNzQ0LC0wLjY1MDcxIDAuMTE0NDQsLTAuMDk2OSAwLjU4MTkzLC0wLjY5MjQxIDAuMDk2MSwtMC4xMjI0OCAwLjE2OTQ0LC0wLjI2MTMgMC4yNTQxNywtMC4zOTE5NiAwLjQ0Nzg0LC0wLjc3MjY4IDEuMDU5NiwtMS40MTcxIDEuNTgzMywtMi4xMzUzIDAuNTI5MjMsLTAuODkwMiAxLjEyMjYsLTEuNzg3MSAxLjkyNSwtMi40NTE2IDAuMzgzNDUsLTAuNDI1OTYgMC44MjU1MiwtMC44MjEyNiAxLjE5ODEsLTEuMjUwNSAwLjMzNDYyLC0wLjM4NTUxIDAuNTgxMjgsLTAuODE3ODUgMS4wNDQyLC0xLjA4NjkgMS43NzE0LC0yLjA4OTcgNC42NzE1LC0zLjAwMjEgNy4wODIzLC00LjA2MDYgMC4yMzMyMywtMC4xMDI0IDAuNDQyMjIsMC41OTUzNSAwLjQzMjI2LDAuNzU4MzUgLTAuMDA3LDAuMTEyMTggLTAuMDY0MywwLjIxNTM5IC0wLjA5NjQsMC4zMjMwOSAtMC40MDkwNCwwLjU5MDggLTAuODkzOSwxLjA1OCAtMS41MDQ0LDEuNDI4NiAtMC40Mzg5NCwwLjYxNDY2IC0wLjk3NTI4LDEuMTQ3OCAtMS4yNTIzLDEuODczIC0wLjIzNzM2LDAuNzM3ODkgLTAuNTUyNzMsMS40OTg2IC0xLjA2NTIsMi4wODYzIC0wLjMzMTMyLDAuNzAyNjIgLTAuNjg1MjcsMS4zOTcxIC0wLjkxNDI1LDIuMTQyMSAtMC4zMDgyMiwwLjc2NTU1IC0wLjgwNzY4LDEuNDIyMyAtMS4xMTY5LDIuMTkwMiAtMC4zOTk0MiwwLjU4MzMzIC0wLjg5MzE3LDEuMDk5OCAtMS4zMDk5LDEuNjY5OSAtMC42MDM4MSwwLjM1OTg3IC0xLjExNzksMC43OTM4NyAtMS41ODc0LDEuMzExNyAtMi4xNDM1LDEuMjg4OCAtNC4yNzk0LDIuNTkwNCAtNi40MzA1LDMuODY2NCAtMC4yMDgzNSwwLjEyMzYgLTAuODYxODUsMC40NDIwNCAtMC42NTIyOSwwLjMyMDQ4IDEuOTU5NCwtMS4xMzY2IDcuODgzMSwtNC40NjUgNS44ODI4LC0zLjQwMiAtMC45MDYzMSwwLjQ4MTYzIC0xNS41MzEsOC45NTY0IC0wLjYzNjYzLDAuMzM1NDggLTIuNDUzOCwxLjMzOTUgLTEuMzEwMywwLjcxMTU1IC02Ljc5NDUsMy45NTA3IC0xLjk1MTQsMS4xNTI1IDMuOTE0MywtMi4yODU0IDUuODc1MiwtMy40MjE1IDAuMTAwNDEsLTAuMDU4MiAtMC4xOTM0MiwwLjEyODQ2IC0wLjI5MzM5LDAuMTg3MzggLTYuMTY5NywzLjYzNjIgLTQuMzAzNiwyLjYwMDIgLTYuNzg3NSwzLjk3NDYgLTAuNjc1MTksMC4yODI3MSAtMS4zMTUzLDAuNjQwOTEgLTEuOTkwMywwLjkyNjA1IC0wLjc0ODI5LDAuMjU3NTggLTEuNDg5NSwwLjUzOTIxIC0yLjIyNDUsMC44MzAwNCAtMC43OTI0LDAuMzYzNzEgLTEuNjI2NSwwLjYzOTUyIC0yLjM4NDYsMS4wNzg2IC0yLjQyODQsMS4zNjEgLTcuMTkxNiwyLjkyODkgNC4wMjIxLC0yLjQ3NjYgLTIuNjcyLDEuNTMxNSAtNS40NTYyLDMuNDI4IC04LjM5Nyw0LjYyNjEgLTAuMTI0MTYsMC4wNjQ5IC0wLjQ5MzU2LDAuMjY1MjQgLTAuMzcyNDgsMC4xOTQ3NCAxLjk1MjMsLTEuMTM2NyA3Ljg1MjIsLTQuNDcwOCA1Ljg2NjUsLTMuMzkzNCAtMi4yMDc0LDEuMTk3NiAtNC4zMTU5LDIuNTcyOCAtNi41MzE5LDMuNzU0NCAtMS45Nzg2LDEuMDU1IDMuODgwMiwtMi4yNDg3IDUuODE5NCwtMy4zNzQ2IDAuMTI3ODYsLTAuMDc0MiAtMC4yNTc2OSwwLjE0NTAzIC0wLjM4NTMzLDAuMjE5NjQgLTIuMTkwOSwxLjI4MDUgLTQuMzgwMiwyLjU2MzggLTYuNTcwMiwzLjg0NTcgMS44ODk5LC0xLjEwMDQgMy43NzQyLC0yLjIxMDYgNS42Njk4LC0zLjMwMTEgMC4xODIyNywtMC4xMDQ4NyAtMC4zNTU4NiwwLjIyNDM3IC0wLjUyOTA5LDAuMzQzNTcgLTEuMDUxOSwwLjcyMzc4IC0wLjEwNTcxLDAuMTQ1ODIgLTEuMjk0MiwwLjg0MDU3IC0yLjI4NzUsMS4zMzcyIC00LjU3MzQsMi42NzcyIC02Ljg2MzcsNC4wMDk2IC0wLjI2NDkyLDAuMTU0MTMgLTAuNTM0NTcsMC4yOTk5OCAtMC44MDE4NiwwLjQ0OTk4IC0xLjM3NzUsMC43NTAxNSAtMi43NTE3LDEuNTA4NSAtNC4xNTk0LDIuMjAxIC0xLjE0LDAuNTU2NTggLTIuMzQxMSwwLjk3NTY0IC0zLjQ1NTcsMS41ODcxIC0wLjk3NjQzLDAuNDM1NjkgLTEuOTU5NSwwLjg2Njc3IC0yLjk5ODMsMS4xMzQyIC0wLjYzOTg1LDAuMTI2NjMgLTAuOTMxNTgsMC4yOTg4MiAtMS4yOTY2LC0wLjM4ODAzIC0wLjE5MDYyLC0wLjM1ODY2IC0wLjE0Mjg1LC0wLjMxOTA3IDAuMDIsLTAuNTc5IDIuNjk5NSwtMS41NTA5IDUuMzU0OSwtMy4zNjk4IDguMjY1OSwtNC41NTY5IDAuNzQ2MSwtMC4zMzA0MiAxLjUxMDUsLTAuNjE0NDMgMi4yMzU3LC0wLjk5MjE4IDAuNzIwMDgsLTAuMzAzNDggMS40NDYxLC0wLjU5MDkgMi4xNTc5LC0wLjkxMTYxIC0xLjk1OTgsMS4xMzIyIC0zLjkxOTUsMi4yNjQ0IC01Ljg3OTMsMy4zOTY1IC0wLjEwMzc4LDAuMDYgMC4yMDcwOSwtMC4xMjA3MyAwLjMxMTI0LC0wLjE4MDA0IDIuMTc4MSwtMS4yNDA0IDQuMzQ4OSwtMi40OTM1IDYuNTM1NCwtMy43MTkgMC4zNTAyMiwtMC4xOTYyOCAwLjc2NzY2LC0wLjIyNDAzIDEuMTI1NCwtMC40MDIzNCAwLjc4MzU3LC0wLjM1MjYzIDEuNTgxMSwtMC42NzM0IDIuMzMyMiwtMS4wOTQgLTEuOTQ1LDEuMTI4OCAtMy44ODg1LDIuMjYwMyAtNS44MzUyLDMuMzg2MyAtMC4xMTc2OSwwLjA2ODEgMC4yMzA2MywtMC4xNDQxMiAwLjM0ODE3LC0wLjIxMjQ0IDIuMTgwNiwtMS4yNjc0IDQuMzU5OSwtMi41MzcxIDYuNTQ2MiwtMy43OTQ1IDAuMzk4NjUsLTAuMjI5MjggMC44MzkzNywtMC4zNjUxMyAxLjI0NzEsLTAuNTc1NjMgMC40MDM1NCwtMC4xNTgzNyAwLjc4MjE1LC0wLjMzMDg2IDEuMTYzNCwtMC41MzczNSAwLjExODc2LC0wLjA2NDMgMC40NzI4NiwtMC4yNjExNiAwLjM1NjMsLTAuMTkyOTMgLTYuMjc1NCwzLjY3MzcgLTcuNzY5NCw0LjYzMjkgLTUuNTgxNCwzLjIzNjMgMi4xNTUyLC0xLjI3MSA0LjQyMTYsLTIuMzY5OSA2LjQ2NTYsLTMuODEyOSAxLjg1MDUsLTEuMzA2NCAtNy44ODQ2LDQuNDYyIC01Ljg4MywzLjQwMTYgMi4yMTI2LC0xLjE3MjEgNC4yOTk5LC0yLjU3MiA2LjUxNjIsLTMuNzM3MSAyLjAwNDIsLTEuMDUzNiAtMy45MjExLDIuMjY1MyAtNS44NzkyLDMuNDAyMiAtMC4xMDE0MywwLjA1ODkgMC4yMDYwOCwtMC4xMTIwNyAwLjMwOTEyLC0wLjE2ODEgbCA2LjQ4NjcsLTMuNzgwMyBjIC0xMi40NDYsNy4yNDc0IC0yLjM1NSwxLjI3ODMgMS44NTU2LC0xLjA2NTEgLTE1LjA3Niw4LjcyMDUgLTAuMDcwOCwwLjAzMjggMC42MzU5NSwtMC4zNDA5MiAxLjk5OTMsLTEuMDU3MyAtMy45MTUyLDIuMjY1MiAtNS44NzA5LDMuNDAxIC0wLjEwNDUsMC4wNjA3IDAuMjEyOSwtMC4xMTQ1MyAwLjMxNzI3LC0wLjE3NTQ1IDIuMTY0OSwtMS4yNjM2IDQuMzQyLC0yLjUwNjYgNi40OTA0LC0zLjc5OCAxLjkzNDYsLTEuMTYyOSAtMy44OTk0LDIuMjc1IC01Ljg0OTEsMy40MTI1IDIuMjA0OSwtMS40NTA4IDQuNjUxNSwtMi41MjI2IDYuODA0NCwtNC4wNDk1IDEuODMxNCwtMS4yOTg4IC03Ljc5OTEsNC40NTIyIC01LjgyOTUsMy4zNzQzIDIuMjEwNSwtMS4yMDk3IDQuMzY3MiwtMi41MTUzIDYuNTUyNSwtMy43NyAwLjIzODQ3LC0wLjEzNjkyIDAuNDgzOTUsLTAuMjYxNDEgMC43MjA0MSwtMC40MDE5MyAtMS45NTYzLDEuMTQ0IC0zLjkwOTEsMi4yOTM3IC01Ljg2ODgsMy40MzE5IC0wLjEwMTE5LDAuMDU4OCAwLjIwMjEsLTAuMTE5NjkgMC4yOTI5NCwtMC4xOTM0NSAwLjI5MjA0LC0wLjIzNzE0IDAuNTcyOSwtMC40ODU5OSAwLjg5NDM2LC0wLjY4ODk4IDAuMTEzMzQsLTAuMDcxNiAwLjI0MTMsLTAuMTE2NzkgMC4zNjE5NiwtMC4xNzUxOCAwLjc5NDQ3LC0wLjU3NDM2IDEuNTE4LC0xLjI0NTUgMi4zMzQ4LC0xLjc5NDMgMC42NDQ5MiwtMC40OTUxMyAxLjM1NTEsLTAuOTg2NjcgMS42NjQyLC0xLjc3MTIgMC40NDE3NSwtMC42Nzg3MiAwLjk0NTc3LC0xLjMwNzMgMS4yNzA1LC0yLjA2MiAwLjU2NTA0LC0wLjc2OTAxIDEuMDEyLC0xLjYyMDIgMS41MTU3LC0yLjQyNzIgMC41MTQzNiwtMC42NjU0IDAuODYwMiwtMS40MzMyIDEuMjI0NiwtMi4xODUyIDAuNDM2NTcsLTAuNTUxNTEgMC43MTAxMiwtMS4yMjUzIDEuMTIzMSwtMS43OTg4IDAuMjk5NDEsLTAuODY5MzUgMC43NTU5MSwtMS43MDA3IDEuMjQ5OSwtMi40NzE4IDAuMzgzMDksLTAuNDgxNzEgMC42MzM3MiwtMC45Nzk0MyAwLjk0MTYzLC0xLjUwOTEgMC4xMDc0OSwtMC4xODQ5IDAuMjI4MiwtMC4zNjE4IDAuMzQyMywtMC41NDI3IDAuMTE4MzMsLTAuMTY4MzcgMC4yNTEwNywtMC4zMjc0OCAwLjM1NDk4LC0wLjUwNTExIDAuMTAwMzUsLTAuMTcxNTYgMC4xNzA0LC0wLjM1OTEzIDAuMjU1NjEsLTAuNTM4NyAwLjQyMzczLC0wLjc1NTkgMC44MjY3OCwtMS41MzA0IDEuMzQ1MiwtMi4yMjQ2IDAuNDIxMTUsLTAuODU4NjggMS4xMzM3LC0xLjUxOTUgMS41NjEyLC0yLjM3OTIgMC43NDg2NywtMC44NzQ1MiAxLjE4MywtMS45OTk1IDIuMTEyOCwtMi43Mjk2IDMuMDQxMiwtMi40OTQxIDQuMzgwNCwtNC41OTYxIDkuMDMzNiwtNi4wMjUzIDAuNzM3MzIsLTAuMjY3ODEgMS40NjAxLC0wLjM2NzY4IDIuMDYwOSwwLjI1MTExIDAuNjMyODcsMC44OTAxNCAwLjQ5NjI5LDEuODYxIDAuMzU0MDYsMi44OTk0IC0wLjE0MDY2LDEuMDU3OCAtMC4zNzk0LDIuMTAyMyAtMC4zNzU2MSwzLjE3MzUgLTAuMDcxMSwwLjgzNDcyIC0wLjE4ODMzLDEuNjYyNyAtMC40NTgzLDIuNDU5OCAtMC4wNTY0LDAuODQwMjYgLTAuMTI1NTEsMS42OTggLTAuNTAwMDIsMi40NjcgLTAuMTk0MDEsMC4zNDMxNiAtMC4yNTMwMSwwLjY5ODAzIC0wLjQxNzYyLDEuMDU0IC0wLjA1MDMsMC4xMDg4MSAtMC4xMTQ3NiwwLjIxMDUxIC0wLjE3MjE0LDAuMzE1NzcgLTAuMDY0NywwLjA5MSAtMC4xNDQzLDAuMTczMTcgLTAuMTk0MDksMC4yNzMxNiAtMC4wNTgsMC4xMTYzOCAtMC4wODM5LDAuMjQ2MTMgLTAuMTI1ODMsMC4zNjkyIC0wLjMwOTc5LDAuNzcwMjMgLTAuMzAyOCwxLjY2MDIgLTAuODIyMzUsMi4zNTU3IC0wLjIzNTc4LDAuNzQ1NzMgLTAuNTUxNjcsMS40OTg5IC0xLjAyNzgsMi4xMjE5IC0wLjMxMjg3LDAuNzcxNzEgLTAuNTM1NTQsMS41ODEzIC0wLjk4OTk3LDIuMjg4NCAtMC4zODU3MiwwLjk3OTcgLTEuMDExOSwxLjgxODkgLTEuNDY1MiwyLjc2NDMgLTAuNDU3NTQsMC43OTUwNCAtMC45MTI5MiwxLjU3ODQgLTEuMzYwMSwyLjM2ODMgLTEuMjQxOSwyLjUwNjEgLTUuMTMzOCwzLjQxNSAtNi45ODU3LDQuNTEzIC0xLjkxMDksMS4xMzI5IDMuODM1MywtMi4yNDI5IDUuNzU5MSwtMy4zNTM5IDAuMzE0NjgsLTAuMTgxNzMgLTEuMzIwMywwLjgwOTUgLTAuODkyNTcsMC42MjU5IC0zLjI4ODEsMS44NzYzIC02LjM5NSw0LjA3MTkgLTkuNzg5Miw1Ljc3ODkgLTAuMTgzNjcsMC4xMDI0MSAtMC4zNjc1MiwwLjIwNDQ4IC0wLjU1MDk5LDAuMzA3MjMgLTAuMTczNzMsMC4wOTczIC0wLjY5Mjc5LDAuMzkyOTIgLTAuNTIwNjIsMC4yOTI5MSAxLjg5NCwtMS4xMDAxIDcuNTgxNCwtNC4zOTA4IDUuNjg2LC0zLjI5MzMgLTIyLjA0OCwxMi43NjYgMTQuMzUsLTguMzM0NCAtNy43MDAyLDQuNDYzMSAtMS4xMTE1LDAuNTU2MjQgLTIuMTc4MSwxLjIwMjggLTMuMzI1NywxLjY4NDMgLTEuMDg5NiwwLjQ2NjI3IC0yLjIwMDMsMC44OTQ3MyAtMy4yNDg1LDEuNDQ5OSAtMC42ODg1OSwwLjM4NzYzIC0xLjQ1ODYsMC41NDM5MiAtMi4xNTA4LDAuOTI3ODMgLTAuMjM4MjEsMC4wOTQxIC0wLjkyMjE4LDAuNDQzNzUgLTAuNzAxMDgsMC4zMTQ0NiAxMi41MzYsLTcuMzMwMyAyLjMwMjUsLTEuMTQ0MyAtMS40NDUsMC43NTQwNSAtMC44OTc5NywwLjI4NDQgLTEuODI0MSwwLjQ2NjI4IC0yLjcwNTEsMC44MDM2OCAtMC43Mjg0NywwLjIzNTI0IC0xLjM4OTYsMC42MDA1NCAtMi4wODI0LDAuOTIwODMgLTAuNzYzMTMsMC4zOTIwMyAtMS41NzE4LDAuNjk0MDMgLTIuMzQzOCwxLjA2OTQgLTEuMDExMywwLjUzMjY3IC0yLjAyODQsMS4wMiAtMy4xNjEyLDEuMjQyNiAtMS4zMjI5LDAuNDA4MzcgLTIuNjU0MSwwLjc4Mzg0IC00LjAxMzUsMS4wNTQ0IC0xLjM1MjksMC4zMDY4OSAtMi43MTE3LDAuNDQyMDkgLTQuMTAxMSwwLjM1OTI3IC0xLjc3OTUsLTAuMDA2IC0zLjU1OTMsLTAuMDE2NSAtNS4zMzg2LDAuMDE1NyBsIDUuODM1MywtNC4yMzk2IHoiIHN0eWxlPSJvcGFjaXR5OjAuNzk5MjYwMDQ7ZmlsbDojOWE4ZDgwIiBpZD0icGF0aDQwNzAiLz4mI3hhOyAgICAgICAgPGcgc3R5bGU9InN0cm9rZTojNWQyZTMxO3N0cm9rZS13aWR0aDo0LjQwMDAwMDEiIGlkPSJnNDAzMyI+JiN4YTsgICAgICAgICAgPHBhdGggZD0ibSAxOTYuODgsNzI2Ljk0IC0zNS43OTYsNDIuNjggMTAuMzI2LDI0Ljc4MiAtMzUuNzk2LC0xNy44OTggYyAtNDUuMjM5LDMwLjI4MSA2Ni41MTcsMTA4Ljc5IDExNy43MSw3Ny4wOTkgTCAyOTMuMjUsNzg2LjgzIGMgOS42MDMxLC00NS44NTggLTc4LjY0NCwtNzQuNDA2IC05Ni4zNzMsLTU5Ljg4OSB6IiBzdHlsZT0iZmlsbDpub25lO3N0cm9rZTojNWQyZTMxO3N0cm9rZS13aWR0aDo0LjQwMDAwMDEiIGlkPSJwYXRoNDAyNyIvPiYjeGE7ICAgICAgICAgIDxwYXRoIGQ9Im0gMTM2LjMsNzc2LjUxIDQ4Ljg3NSwtNDUuNDMzIDYuMTk1NCwyLjA2NTEiIHN0eWxlPSJmaWxsOm5vbmU7c3Ryb2tlOiM1ZDJlMzE7c3Ryb2tlLXdpZHRoOjQuNDAwMDAwMSIgaWQ9InBhdGg0MDI5Ii8+JiN4YTsgICAgICAgICAgPHBhdGggZD0ibSAyNTUuNzYsODQ4LjUzIGMgMTAuODgsLTMzLjc3IC00Ny4xLC03Ny4wNyAtOTMuOTksLTc4LjIyIiBzdHlsZT0iZmlsbDpub25lO3N0cm9rZTojNWQyZTMxO3N0cm9rZS13aWR0aDo0LjQwMDAwMDEiIGlkPSJwYXRoNDAzMSIvPiYjeGE7ICAgICAgICA8L2c+JiN4YTsgICAgICAgIDxwYXRoIHN0eWxlPSJvcGFjaXR5OjAuNTcyNDg5OTY7ZmlsbDojODI3MjYzIiBkPSJtIDEzOS4yMSw3NzYuMzggMjkuMjA2LDE0LjYwMyAtOS43MzUyLC0yMC45MzEgMzEuMTUzLC0zNi4wMiAtNC44Njc2LC0wLjQ4Njc2IHoiIGlkPSJwYXRoNDAzOCIvPiYjeGE7ICAgICAgICA8cGF0aCBkPSJtIDEzNC44MSw4MDEuMjMgYyAxLjM0OTksMC41MTQ0OSAyLjU3NjEsMS4zMjMgMy43MjM4LDIuMTkwNCAwLjc4MDcxLDAuNjAxMDUgMS4yNjcsMS40MzQzIDEuODY1NiwyLjE5MTYgMC4zNTIzLDAuNzM3MTIgMC45NDE2MiwxLjI4OCAxLjM5ODMsMS45NDkgMC41NjQ1OCwwLjQ5NDUxIDEuMDYyLDEuMDc1MiAxLjcyNjYsMS40Mzc1IDAuNTg4NTYsMC40MDM4NiAxLjIxOTQsMC43ODk5MSAxLjg5MTcsMS4wNDA2IDAuNjA3MywwLjQ5OTY0IDEuMzkyOCwwLjUxMjc5IDIuMDkwNSwwLjc4MjYxIDAuNzYxNjcsMC4zMDI3MiAxLjU3OTEsMC4zNjI5MiAyLjM4ODUsMC40MDgxMiAwLjk0OTIyLDAuMDM3OCAxLjg5OTUsMC4wMzI4IDIuODQ5MiwwLjAzMTkgMC45NzQ3NSwtMC4wMDIgMS45NDk1LC0wLjAwNCAyLjkyNDIsLTAuMDA1IDAuOTczOTYsLTcuNGUtNCAxLjk0NzksLTcuN2UtNCAyLjkyMTksLTguMWUtNCAwLjk3MzUzLC0yZS01IDEuOTQ3MSwxZS01IDIuOTIwNiwyZS01IDAuOTczNTEsMTBlLTYgMS45NDcsMTBlLTYgMi45MjA1LDEwZS02IGggMi45MjA2IDIuOTIwNiAyLjkyMDYgYyAwLjk0MTE4LC0wLjA2IDEuOTE2NywwLjEyODQ4IDIuODM3MSwtMC4xMDAyMSBsIC01Ljc4OTksNC4zMjczIGMgLTAuOTYyMDMsMC4wMzQ0IC0xLjkyNTEsMC4wMDggLTIuODg3NiwwLjAxNjIgaCAtMi45MjA2IC0yLjkyMDYgLTIuOTIwNiBjIC0wLjk3MzUxLDAgLTEuOTQ3LC0xMGUtNiAtMi45MjA1LC0yZS01IC0wLjk3MzUxLC0xZS01IC0xLjk0NywtNGUtNSAtMi45MjA1LDNlLTUgLTAuOTczNzksMS4xZS00IC0xLjk0NzYsMi43ZS00IC0yLjkyMTQsMC4wMDEgLTAuOTc1MDMsMTBlLTQgLTEuOTUwMSwwLjAwNCAtMi45MjUxLDAuMDA0IC0wLjk2MjMzLC0wLjAwMiAtMS45MjYxLC04LjVlLTQgLTIuODg2MiwtMC4wNzM2IC0wLjg1MzU0LC0wLjA4NDIgLTEuNjk0MiwtMC4yMzA1NSAtMi40OTczLC0wLjU0NDIyIC0wLjc0Njc0LC0wLjE5NzA0IC0xLjQ2NTYsLTAuNDI4MDMgLTIuMTI5MSwtMC44MzYwMiAtMC42NzU0MiwtMC4zMjkxNiAtMS4zMzYzLC0wLjY5Nzk1IC0xLjk0OTMsLTEuMTMzMiAtMC42OTE2MiwtMC40ODEzMSAtMS4yOTgyLC0xLjA3NjIgLTEuODgwOSwtMS42ODI4IC0wLjQ1NzEyLC0wLjY0MjA0IC0xLjAwOTgsLTEuMjA4NSAtMS4zNzEyLC0xLjkxODYgLTAuNTU0NjMsLTAuNzA5NSAtMC45OTgzNywtMS40OTU3IC0xLjczNCwtMi4wNTAyIC0xLjEwMjYsLTAuODE1MjEgLTIuMjY3NiwtMS42MDE2IC0zLjYxMDUsLTEuOTUxIGwgNS45NjUsLTQuMDg1MiB6IiBzdHlsZT0ib3BhY2l0eTowLjc5OTI2MDA0O2ZpbGw6IzlhOGQ4MCIgaWQ9InBhdGg0MDY2Ii8+JiN4YTsgICAgICAgIDxwYXRoIHN0eWxlPSJvcGFjaXR5OjAuODU1MDE5OTY7ZmlsbDojNzQ2NTVhIiBkPSJtIDIyMi45OSw4MzUuODYgYyA2Ljg5NzUsLTkuMzU0MiAtNS4wOTksLTE4LjE3OCAtMTUuMDcsLTIyLjY5MiAtOS42OTA3LC00LjQ5MzEgLTE1LjYwNSwtMTAuNjU1IC0xOC40NDIsLTEwLjg3NiAtMy4xODczLC0xLjM2NjkgLTEwLjQwOSwwLjM4OTY5IC0yMS42MDgsMS44MTcxIC0yLjg0NjQsMy4xOTk4IC0zLjQ3MjksNC4xODg1IC0wLjM3NDI5LDEyLjE2OSA4LjM2ODMsMTIuMjk4IDIwLjg5OCwyMS4wNCA0MC4yMjMsMjMuOTcyIDQuNDU5NiwwLjI3NzQ4IDguODYyNCwwLjcxMTQyIDE1LjI3MiwtNC4zOTAyIHoiIGlkPSJwYXRoMzk3Ni0yLTAiLz4mI3hhOyAgICAgICAgPHBhdGggdHJhbnNmb3JtPSJtYXRyaXgoMC44NzU4OCwwLjQxODk5LC0wLjQ0MjkyLDAuODA4MDEsNTA2LjMsNjQuOTcpIiBkPSJtIDExNS44NDg1Miw4ODcuMzYwNzIgYSAyMi44Nzc2NDcsOS4yNDg0MTEyIDAgMCAxIC0yMi43NjM2MDMsOS4yNDgyOSAyMi44Nzc2NDcsOS4yNDg0MTEyIDAgMCAxIC0yMi45OTA1NTYsLTkuMTU2MDkgMjIuODc3NjQ3LDkuMjQ4NDExMiAwIDAgMSAyMi41MzQzODQsLTkuMzM5NTggMjIuODc3NjQ3LDkuMjQ4NDExMiAwIDAgMSAyMy4yMTUyMjUsOS4wNjI5NyIgc3R5bGU9Im9wYWNpdHk6MC44NTUwMTk5NjtmaWxsOiM4YjUwNmI7c3Ryb2tlOiM1ZDJlMzE7c3Ryb2tlLXdpZHRoOjMuNTk5OTk5OSIgaWQ9InBhdGg0MDU4Ii8+JiN4YTsgICAgICAgIDxwYXRoIHN0eWxlPSJvcGFjaXR5OjAuNzk5MjYwMDQ7ZmlsbDojOWE4ZDgwIiBkPSJtIDIxMy42OSw3ODIuMjIgYyAxOC4wMzYsLTYuNjQ5MiAzMy4wNjQsLTE5LjgxOCA0My4zMjIsLTQzLjMyMiAxNy45NDgsMTEuODQ5IDM3LjkzMywyMi42MTkgMzQuNTYsNDUuNzU1IC03LjM4NTIsMTAuMzYzIC0yMC4yMjksMzMuNDYzIC0zMS4xNTMsNTIuMDgzIC01LjMwMjEsLTE0LjI0NCAwLjMyNjM5LC0yNC4zMDkgLTQ2LjcyOSwtNTQuNTE3IHoiIGlkPSJwYXRoNDA2MCIvPiYjeGE7ICAgICAgPC9nPiYjeGE7ICAgIDwvZz4mI3hhOyAgPC9nPiYjeGE7ICA8bWV0YWRhdGEgaWQ9Im1ldGFkYXRhNzUiPiYjeGE7ICAgICYjeGE7ICAgICAgJiN4YTsgICAgICAgIGltYWdlL3N2Zyt4bWwmI3hhOyAgICAgICAgJiN4YTsgICAgICAgICYjeGE7ICAgICAgICAmI3hhOyAgICAgICAgICAmI3hhOyAgICAgICAgICAgIE9wZW5DbGlwYXJ0JiN4YTsgICAgICAgICAgJiN4YTsgICAgICAgICYjeGE7ICAgICAgICBIYW0mI3hhOyAgICAgICAgaHR0cHM6Ly9vcGVuY2xpcGFydC5vcmcvZGV0YWlsLzIxMTQxOSYjeGE7ICAgICAgICAmI3hhOyAgICAgICAgICAmI3hhOyAgICAgICAgICAgIG1hcmF1ZGVyJiN4YTsgICAgICAgICAgJiN4YTsgICAgICAgICYjeGE7ICAgICAgJiN4YTsgICAgICAmI3hhOyAgICAgICAgJiN4YTsgICAgICAgICYjeGE7ICAgICAgICAmI3hhOyAgICAgICYjeGE7ICAgICYjeGE7ICA8L21ldGFkYXRhPiYjeGE7PC9zdmc+;" parent="1" vertex="1">
          <mxGeometry x="80" y="380" width="60" height="60" as="geometry" />
        </mxCell>
        <mxCell id="3iR2tvqCmlfJgyPU4IL4-16" value="" style="shape=trapezoid;perimeter=trapezoidPerimeter;whiteSpace=wrap;html=1;fixedSize=1;rotation=-90;size=36;" parent="1" vertex="1">
          <mxGeometry x="450" y="270" width="180" height="280" as="geometry" />
        </mxCell>
        <mxCell id="3iR2tvqCmlfJgyPU4IL4-2" value="" style="ellipse;whiteSpace=wrap;html=1;aspect=fixed;" parent="1" vertex="1">
          <mxGeometry x="274" y="335" width="150" height="150" as="geometry" />
        </mxCell>
        <mxCell id="3iR2tvqCmlfJgyPU4IL4-7" value="" style="rounded=0;whiteSpace=wrap;html=1;rotation=90;" parent="1" vertex="1">
          <mxGeometry x="310" y="405" width="80" height="10" as="geometry" />
        </mxCell>
        <mxCell id="3iR2tvqCmlfJgyPU4IL4-8" value="" style="rounded=0;whiteSpace=wrap;html=1;rotation=90;" parent="1" vertex="1">
          <mxGeometry x="295" y="405" width="80" height="10" as="geometry" />
        </mxCell>
        <mxCell id="3iR2tvqCmlfJgyPU4IL4-9" value="" style="rounded=0;whiteSpace=wrap;html=1;rotation=90;" parent="1" vertex="1">
          <mxGeometry x="325" y="405" width="80" height="10" as="geometry" />
        </mxCell>
        <mxCell id="3iR2tvqCmlfJgyPU4IL4-10" value="" style="rounded=0;whiteSpace=wrap;html=1;rotation=90;" parent="1" vertex="1">
          <mxGeometry x="280" y="405" width="80" height="10" as="geometry" />
        </mxCell>
        <mxCell id="3iR2tvqCmlfJgyPU4IL4-11" value="" style="rounded=0;whiteSpace=wrap;html=1;rotation=90;" parent="1" vertex="1">
          <mxGeometry x="340" y="405" width="80" height="10" as="geometry" />
        </mxCell>
        <mxCell id="3iR2tvqCmlfJgyPU4IL4-20" value="" style="ellipse;whiteSpace=wrap;html=1;aspect=fixed;fillColor=#000000;fontColor=#333333;strokeColor=#666666;" parent="1" vertex="1">
          <mxGeometry x="249" y="440" width="25" height="25" as="geometry" />
        </mxCell>
        <mxCell id="3iR2tvqCmlfJgyPU4IL4-21" value="" style="ellipse;whiteSpace=wrap;html=1;aspect=fixed;fillColor=#000000;fontColor=#333333;strokeColor=#666666;" parent="1" vertex="1">
          <mxGeometry x="380" y="630" width="25" height="25" as="geometry" />
        </mxCell>
        <mxCell id="3iR2tvqCmlfJgyPU4IL4-22" value="&lt;span style=&quot;font-size: 16px;&quot;&gt;PS2&lt;/span&gt;" style="text;html=1;align=center;verticalAlign=middle;whiteSpace=wrap;rounded=0;fontSize=16;" parent="1" vertex="1">
          <mxGeometry x="410" y="627.5" width="60" height="30" as="geometry" />
        </mxCell>
        <mxCell id="3iR2tvqCmlfJgyPU4IL4-23" value="" style="ellipse;whiteSpace=wrap;html=1;aspect=fixed;fillColor=#000000;fontColor=#333333;strokeColor=#666666;" parent="1" vertex="1">
          <mxGeometry x="295" y="630" width="25" height="25" as="geometry" />
        </mxCell>
        <mxCell id="3iR2tvqCmlfJgyPU4IL4-24" value="Scivolo&lt;div&gt;P &amp;lt; 5 Kg&lt;/div&gt;" style="text;html=1;align=center;verticalAlign=middle;whiteSpace=wrap;rounded=0;fontSize=16;" parent="1" vertex="1">
          <mxGeometry x="502.5" y="395" width="75" height="30" as="geometry" />
        </mxCell>
        <mxCell id="3iR2tvqCmlfJgyPU4IL4-25" value="Contenitore&lt;div&gt;5 &amp;lt;= P &amp;lt;= 10 Kg&amp;nbsp;&lt;/div&gt;" style="text;html=1;align=center;verticalAlign=middle;whiteSpace=wrap;rounded=0;fontSize=16;" parent="1" vertex="1">
          <mxGeometry x="287.5" y="727.5" width="125" height="35" as="geometry" />
        </mxCell>
        <mxCell id="3iR2tvqCmlfJgyPU4IL4-26" value="Contenitore&lt;div&gt;P &amp;gt; 10 Kg&lt;/div&gt;" style="text;html=1;align=center;verticalAlign=middle;whiteSpace=wrap;rounded=0;fontSize=16;" parent="1" vertex="1">
          <mxGeometry x="312.5" y="60" width="75" height="30" as="geometry" />
        </mxCell>
        <mxCell id="3iR2tvqCmlfJgyPU4IL4-27" value="" style="endArrow=classic;html=1;rounded=0;exitX=0.317;exitY=1.007;exitDx=0;exitDy=0;exitPerimeter=0;entryX=0.763;entryY=0.995;entryDx=0;entryDy=0;entryPerimeter=0;" parent="1" source="3iR2tvqCmlfJgyPU4IL4-48" target="3iR2tvqCmlfJgyPU4IL4-48" edge="1">
          <mxGeometry width="50" height="50" relative="1" as="geometry">
            <mxPoint x="365" y="430" as="sourcePoint" />
            <mxPoint x="410" y="430" as="targetPoint" />
          </mxGeometry>
        </mxCell>
        <mxCell id="3iR2tvqCmlfJgyPU4IL4-28" value="" style="ellipse;whiteSpace=wrap;html=1;aspect=fixed;fillColor=#000000;fontColor=#333333;strokeColor=#666666;" parent="1" vertex="1">
          <mxGeometry x="435" y="325" width="25" height="25" as="geometry" />
        </mxCell>
        <mxCell id="3iR2tvqCmlfJgyPU4IL4-29" value="" style="ellipse;whiteSpace=wrap;html=1;aspect=fixed;fillColor=#000000;fontColor=#333333;strokeColor=#666666;" parent="1" vertex="1">
          <mxGeometry x="435" y="470" width="25" height="25" as="geometry" />
        </mxCell>
        <mxCell id="3iR2tvqCmlfJgyPU4IL4-30" value="&lt;span style=&quot;font-size: 16px;&quot;&gt;PS3&lt;/span&gt;" style="text;html=1;align=center;verticalAlign=middle;whiteSpace=wrap;rounded=0;fontSize=16;" parent="1" vertex="1">
          <mxGeometry x="417.5" y="292" width="60" height="30" as="geometry" />
        </mxCell>
        <mxCell id="3iR2tvqCmlfJgyPU4IL4-35" value="" style="endArrow=none;dashed=1;html=1;rounded=0;" parent="1" source="3iR2tvqCmlfJgyPU4IL4-29" target="3iR2tvqCmlfJgyPU4IL4-28" edge="1">
          <mxGeometry width="50" height="50" relative="1" as="geometry">
            <mxPoint x="414" y="450" as="sourcePoint" />
            <mxPoint x="464" y="400" as="targetPoint" />
          </mxGeometry>
        </mxCell>
        <mxCell id="3iR2tvqCmlfJgyPU4IL4-36" value="" style="endArrow=none;dashed=1;html=1;rounded=0;" parent="1" source="3iR2tvqCmlfJgyPU4IL4-23" target="3iR2tvqCmlfJgyPU4IL4-21" edge="1">
          <mxGeometry width="50" height="50" relative="1" as="geometry">
            <mxPoint x="215" y="610" as="sourcePoint" />
            <mxPoint x="215" y="490" as="targetPoint" />
          </mxGeometry>
        </mxCell>
        <mxCell id="3iR2tvqCmlfJgyPU4IL4-37" value="" style="endArrow=none;dashed=1;html=1;rounded=0;" parent="1" source="3iR2tvqCmlfJgyPU4IL4-20" target="3iR2tvqCmlfJgyPU4IL4-19" edge="1">
          <mxGeometry width="50" height="50" relative="1" as="geometry">
            <mxPoint x="210" y="615" as="sourcePoint" />
            <mxPoint x="210" y="495" as="targetPoint" />
          </mxGeometry>
        </mxCell>
        <mxCell id="3iR2tvqCmlfJgyPU4IL4-38" value="" style="ellipse;whiteSpace=wrap;html=1;aspect=fixed;fillColor=#000000;fontColor=#333333;strokeColor=#666666;" parent="1" vertex="1">
          <mxGeometry x="380" y="167.5" width="25" height="25" as="geometry" />
        </mxCell>
        <mxCell id="3iR2tvqCmlfJgyPU4IL4-39" value="&lt;span style=&quot;font-size: 16px;&quot;&gt;PS4&lt;/span&gt;" style="text;html=1;align=center;verticalAlign=middle;whiteSpace=wrap;rounded=0;fontSize=16;" parent="1" vertex="1">
          <mxGeometry x="410" y="165" width="60" height="30" as="geometry" />
        </mxCell>
        <mxCell id="3iR2tvqCmlfJgyPU4IL4-40" value="" style="ellipse;whiteSpace=wrap;html=1;aspect=fixed;fillColor=#000000;fontColor=#333333;strokeColor=#666666;" parent="1" vertex="1">
          <mxGeometry x="295" y="167.5" width="25" height="25" as="geometry" />
        </mxCell>
        <mxCell id="3iR2tvqCmlfJgyPU4IL4-41" value="" style="endArrow=none;dashed=1;html=1;rounded=0;" parent="1" source="3iR2tvqCmlfJgyPU4IL4-40" target="3iR2tvqCmlfJgyPU4IL4-38" edge="1">
          <mxGeometry width="50" height="50" relative="1" as="geometry">
            <mxPoint x="215" y="147.5" as="sourcePoint" />
            <mxPoint x="215" y="27.5" as="targetPoint" />
          </mxGeometry>
        </mxCell>
        <mxCell id="3iR2tvqCmlfJgyPU4IL4-42" value="&lt;span style=&quot;font-size: 16px;&quot;&gt;FS1&lt;/span&gt;" style="text;html=1;align=center;verticalAlign=middle;whiteSpace=wrap;rounded=0;fontSize=16;" parent="1" vertex="1">
          <mxGeometry x="319" y="800" width="60" height="30" as="geometry" />
        </mxCell>
        <mxCell id="3iR2tvqCmlfJgyPU4IL4-44" value="&lt;span style=&quot;font-size: 16px;&quot;&gt;FS2&lt;/span&gt;" style="text;html=1;align=center;verticalAlign=middle;whiteSpace=wrap;rounded=0;fontSize=16;" parent="1" vertex="1">
          <mxGeometry x="319" y="-10" width="60" height="30" as="geometry" />
        </mxCell>
        <mxCell id="3iR2tvqCmlfJgyPU4IL4-45" value="&lt;span style=&quot;font-size: 16px;&quot;&gt;M1&lt;/span&gt;" style="text;html=1;align=left;verticalAlign=middle;whiteSpace=wrap;rounded=0;fontSize=16;" parent="1" vertex="1">
          <mxGeometry x="40" y="350" width="60" height="30" as="geometry" />
        </mxCell>
        <mxCell id="3iR2tvqCmlfJgyPU4IL4-46" value="&lt;span style=&quot;font-size: 16px;&quot;&gt;M2&lt;/span&gt;" style="text;html=1;align=right;verticalAlign=middle;whiteSpace=wrap;rounded=0;fontSize=16;" parent="1" vertex="1">
          <mxGeometry x="250" y="535" width="60" height="30" as="geometry" />
        </mxCell>
        <mxCell id="3iR2tvqCmlfJgyPU4IL4-47" value="&lt;span style=&quot;font-size: 16px;&quot;&gt;M3&lt;/span&gt;" style="text;html=1;align=right;verticalAlign=middle;whiteSpace=wrap;rounded=0;fontSize=16;" parent="1" vertex="1">
          <mxGeometry x="252.5" y="255" width="60" height="30" as="geometry" />
        </mxCell>
        <mxCell id="3iR2tvqCmlfJgyPU4IL4-48" value="&lt;span style=&quot;font-size: 16px;&quot;&gt;M5&lt;/span&gt;" style="text;html=1;align=center;verticalAlign=middle;whiteSpace=wrap;rounded=0;fontSize=16;" parent="1" vertex="1">
          <mxGeometry x="372.5" y="395" width="60" height="30" as="geometry" />
        </mxCell>
        <mxCell id="3iR2tvqCmlfJgyPU4IL4-60" value="" style="verticalLabelPosition=bottom;verticalAlign=top;html=1;shape=mxgraph.basic.arc;startAngle=0.3;endAngle=0.1;shadow=0;strokeColor=default;" parent="1" vertex="1">
          <mxGeometry x="394" y="235" width="50" height="50" as="geometry" />
        </mxCell>
        <mxCell id="3iR2tvqCmlfJgyPU4IL4-61" value="&lt;span style=&quot;font-size: 16px;&quot;&gt;M4&lt;/span&gt;" style="text;html=1;align=center;verticalAlign=middle;whiteSpace=wrap;rounded=0;fontSize=16;" parent="1" vertex="1">
          <mxGeometry x="387.5" y="245" width="60" height="30" as="geometry" />
        </mxCell>
        <mxCell id="3iR2tvqCmlfJgyPU4IL4-63" value="" style="endArrow=classic;html=1;rounded=0;" parent="1" edge="1">
          <mxGeometry width="50" height="50" relative="1" as="geometry">
            <mxPoint x="434" y="240" as="sourcePoint" />
            <mxPoint x="439" y="245" as="targetPoint" />
          </mxGeometry>
        </mxCell>
        <mxCell id="3iR2tvqCmlfJgyPU4IL4-64" value="&lt;span style=&quot;font-size: 16px;&quot;&gt;SB1&lt;/span&gt;" style="text;html=1;align=center;verticalAlign=middle;whiteSpace=wrap;rounded=0;fontSize=16;" parent="1" vertex="1">
          <mxGeometry x="270" y="400" width="45" height="20" as="geometry" />
        </mxCell>
        <mxCell id="3iR2tvqCmlfJgyPU4IL4-65" value="&lt;span style=&quot;font-size: 16px;&quot;&gt;SB2&lt;/span&gt;" style="text;html=1;align=center;verticalAlign=middle;whiteSpace=wrap;rounded=0;fontSize=16;" parent="1" vertex="1">
          <mxGeometry x="327.5" y="460" width="45" height="20" as="geometry" />
        </mxCell>
        <mxCell id="3iR2tvqCmlfJgyPU4IL4-66" value="&lt;span style=&quot;font-size: 16px;&quot;&gt;SB3&lt;/span&gt;" style="text;html=1;align=center;verticalAlign=middle;whiteSpace=wrap;rounded=0;fontSize=16;" parent="1" vertex="1">
          <mxGeometry x="325" y="340" width="45" height="20" as="geometry" />
        </mxCell>
        <mxCell id="3iR2tvqCmlfJgyPU4IL4-71" value="Piattaforma&lt;div&gt;girevole&lt;/div&gt;" style="text;html=1;align=center;verticalAlign=middle;whiteSpace=wrap;rounded=0;fontSize=16;" parent="1" vertex="1">
          <mxGeometry x="455" y="245" width="75" height="30" as="geometry" />
        </mxCell>
        <mxCell id="3iR2tvqCmlfJgyPU4IL4-79" value="" style="rounded=0;whiteSpace=wrap;html=1;fillColor=#E6E6E6;" parent="1" vertex="1">
          <mxGeometry x="520" y="600" width="240" height="120" as="geometry" />
        </mxCell>
        <mxCell id="3iR2tvqCmlfJgyPU4IL4-80" value="" style="ellipse;whiteSpace=wrap;html=1;aspect=fixed;fillColor=#990000;" parent="1" vertex="1">
          <mxGeometry x="536.25" y="630" width="72.5" height="72.5" as="geometry" />
        </mxCell>
        <mxCell id="3iR2tvqCmlfJgyPU4IL4-74" value="&lt;span style=&quot;font-size: 16px;&quot;&gt;PBE&lt;/span&gt;" style="text;html=1;align=center;verticalAlign=middle;whiteSpace=wrap;rounded=0;fontSize=16;" parent="1" vertex="1">
          <mxGeometry x="542.5" y="600" width="60" height="30" as="geometry" />
        </mxCell>
        <mxCell id="3iR2tvqCmlfJgyPU4IL4-81" value="&lt;font color=&quot;#ffffff&quot;&gt;START&lt;/font&gt;" style="ellipse;whiteSpace=wrap;html=1;aspect=fixed;fillColor=#4D9900;" parent="1" vertex="1">
          <mxGeometry x="620" y="640" width="52.5" height="52.5" as="geometry" />
        </mxCell>
        <mxCell id="3iR2tvqCmlfJgyPU4IL4-82" value="&lt;span style=&quot;font-size: 16px;&quot;&gt;PB1&lt;/span&gt;" style="text;html=1;align=center;verticalAlign=middle;whiteSpace=wrap;rounded=0;fontSize=16;" parent="1" vertex="1">
          <mxGeometry x="610" y="600" width="60" height="30" as="geometry" />
        </mxCell>
        <mxCell id="3iR2tvqCmlfJgyPU4IL4-83" value="&lt;span style=&quot;font-size: 16px;&quot;&gt;PB2&lt;/span&gt;" style="text;html=1;align=center;verticalAlign=middle;whiteSpace=wrap;rounded=0;fontSize=16;" parent="1" vertex="1">
          <mxGeometry x="683.75" y="600" width="60" height="30" as="geometry" />
        </mxCell>
        <mxCell id="3iR2tvqCmlfJgyPU4IL4-84" value="&lt;font color=&quot;#ffffff&quot;&gt;STOP&lt;/font&gt;" style="ellipse;whiteSpace=wrap;html=1;aspect=fixed;fillColor=#990000;" parent="1" vertex="1">
          <mxGeometry x="687.5" y="640" width="52.5" height="52.5" as="geometry" />
        </mxCell>
        <mxCell id="3iR2tvqCmlfJgyPU4IL4-85" value="" style="ellipse;whiteSpace=wrap;html=1;aspect=fixed;fillColor=#E6E6E6;" parent="1" vertex="1">
          <mxGeometry x="493.13" y="780" width="50" height="50" as="geometry" />
        </mxCell>
        <mxCell id="3iR2tvqCmlfJgyPU4IL4-86" value="&lt;span style=&quot;font-size: 16px;&quot;&gt;L1&lt;/span&gt;" style="text;html=1;align=center;verticalAlign=middle;whiteSpace=wrap;rounded=0;fontSize=16;" parent="1" vertex="1">
          <mxGeometry x="488.13" y="750" width="60" height="30" as="geometry" />
        </mxCell>
        <mxCell id="3iR2tvqCmlfJgyPU4IL4-87" value="" style="ellipse;whiteSpace=wrap;html=1;aspect=fixed;fillColor=#009900;" parent="1" vertex="1">
          <mxGeometry x="556.88" y="780" width="50" height="50" as="geometry" />
        </mxCell>
        <mxCell id="3iR2tvqCmlfJgyPU4IL4-88" value="&lt;span style=&quot;font-size: 16px;&quot;&gt;L2&lt;/span&gt;" style="text;html=1;align=center;verticalAlign=middle;whiteSpace=wrap;rounded=0;fontSize=16;" parent="1" vertex="1">
          <mxGeometry x="551.88" y="750" width="60" height="30" as="geometry" />
        </mxCell>
        <mxCell id="3iR2tvqCmlfJgyPU4IL4-89" value="" style="ellipse;whiteSpace=wrap;html=1;aspect=fixed;fillColor=#0000CC;" parent="1" vertex="1">
          <mxGeometry x="616.88" y="780" width="50" height="50" as="geometry" />
        </mxCell>
        <mxCell id="3iR2tvqCmlfJgyPU4IL4-90" value="&lt;span style=&quot;font-size: 16px;&quot;&gt;L3&lt;/span&gt;" style="text;html=1;align=center;verticalAlign=middle;whiteSpace=wrap;rounded=0;fontSize=16;" parent="1" vertex="1">
          <mxGeometry x="611.88" y="750" width="60" height="30" as="geometry" />
        </mxCell>
        <mxCell id="3iR2tvqCmlfJgyPU4IL4-91" value="" style="ellipse;whiteSpace=wrap;html=1;aspect=fixed;fillColor=#FFFF00;" parent="1" vertex="1">
          <mxGeometry x="676.88" y="780" width="50" height="50" as="geometry" />
        </mxCell>
        <mxCell id="3iR2tvqCmlfJgyPU4IL4-92" value="&lt;span style=&quot;font-size: 16px;&quot;&gt;L4&lt;/span&gt;" style="text;html=1;align=center;verticalAlign=middle;whiteSpace=wrap;rounded=0;fontSize=16;" parent="1" vertex="1">
          <mxGeometry x="671.88" y="750" width="60" height="30" as="geometry" />
        </mxCell>
        <mxCell id="3iR2tvqCmlfJgyPU4IL4-93" value="" style="ellipse;whiteSpace=wrap;html=1;aspect=fixed;fillColor=#CC0000;" parent="1" vertex="1">
          <mxGeometry x="736.88" y="780" width="50" height="50" as="geometry" />
        </mxCell>
        <mxCell id="3iR2tvqCmlfJgyPU4IL4-94" value="&lt;span style=&quot;font-size: 16px;&quot;&gt;L5&lt;/span&gt;" style="text;html=1;align=center;verticalAlign=middle;whiteSpace=wrap;rounded=0;fontSize=16;" parent="1" vertex="1">
          <mxGeometry x="731.88" y="750" width="60" height="30" as="geometry" />
        </mxCell>
        <mxCell id="HTmD_M1U4SyWbfOYsWga-1" value="&lt;span style=&quot;font-size: 16px;&quot;&gt;LC1&lt;/span&gt;" style="text;html=1;align=left;verticalAlign=middle;whiteSpace=wrap;rounded=0;fontSize=16;" vertex="1" parent="1">
          <mxGeometry x="384" y="320" width="60" height="30" as="geometry" />
        </mxCell>
      </root>
    </mxGraphModel>
  </diagram>
</mxfile>
